<svg id="Background" xmlns="http://www.w3.org/2000/svg" viewBox="0 0 150 150"><defs><style>.cls-1{fill:#fff;}.cls-2{fill:#42434c;}</style></defs><circle class="cls-1" cx="75" cy="75" r="75"/><path class="cls-2" d="M75.62,74.37H74.41a14,14,0,0,1-1.49-1.18c-1.81-1.86-3.63-3.72-5.37-5.65-1-1.18-2-2.49-2.93-3.75a42,42,0,0,1-3.89-6.07,46.45,46.45,0,0,1-2.06-4.48A23.42,23.42,0,0,1,57,46a21.25,21.25,0,0,1,.08-3.19A16.28,16.28,0,0,1,58,38.62,17.93,17.93,0,0,1,71.69,27c.48-.08.94-.19,1.41-.28h3.73a.66.66,0,0,0,.19.09,32.29,32.29,0,0,1,3.64.78,17.2,17.2,0,0,1,5.08,2.64,18.69,18.69,0,0,1,5.26,6,17.65,17.65,0,0,1,2,7.55,23.17,23.17,0,0,1-.26,3.9,21.74,21.74,0,0,1-1.74,6A43.13,43.13,0,0,1,87,61c-1,1.5-2.07,3-3.17,4.46C83,66.67,82,67.77,81.06,68.87c-.53.64-1.1,1.25-1.66,1.86A23.67,23.67,0,0,1,75.62,74.37ZM75,36.14a8.46,8.46,0,1,0,.23,0Z"/><path class="cls-2" d="M40.67,90.23l.68.61A3.85,3.85,0,0,1,38.71,92a3.59,3.59,0,1,1,0-7.18,3.87,3.87,0,0,1,2.64,1.14l-.68.62a2.91,2.91,0,0,0-2-.84,2.68,2.68,0,0,0,0,5.35A2.94,2.94,0,0,0,40.67,90.23Z"/><path class="cls-2" d="M46.37,87.7v-.32h.91V91.9h-.91v-.56a2.08,2.08,0,0,1-1.53.68,2.5,2.5,0,1,1,0-5A2,2,0,0,1,46.37,87.7Zm0,2.15v-.67a1.51,1.51,0,0,0-.42-.77,1.57,1.57,0,0,0-2.22,0,1.49,1.49,0,0,0-.46,1.11,1.47,1.47,0,0,0,.46,1.1,1.51,1.51,0,0,0,1.11.46,1.54,1.54,0,0,0,1.53-1.23Z"/><path class="cls-2" d="M49.52,84.86v7H48.6v-7Z"/><path class="cls-2" d="M51.75,84.86v7h-.91v-7Z"/><path class="cls-2" d="M54.48,90.88a1.31,1.31,0,0,0,.83.2,1.51,1.51,0,0,0,1.11-.46l.23-.27.91.32a4.55,4.55,0,0,1-.48.61,2.49,2.49,0,0,1-3.54,0,2.38,2.38,0,0,1-.73-1.77,2.51,2.51,0,0,1,4-2l.22.2.25.28-.46.46ZM56,88.06a1.34,1.34,0,0,0-.69-.11,1.55,1.55,0,0,0-1.57,1.56,1.26,1.26,0,0,0,.12.69Z"/><path class="cls-2" d="M62.77,84.87l2.28,3.94,2.28-3.94h.83v7h-.91V86.82l-2.2,3.8-2.2-3.8V91.9h-.91v-7Z"/><path class="cls-2" d="M71.1,90.88a1.31,1.31,0,0,0,.83.2A1.51,1.51,0,0,0,73,90.62l.23-.27.91.32a4.55,4.55,0,0,1-.48.61,2.49,2.49,0,0,1-3.54,0,2.38,2.38,0,0,1-.73-1.77,2.51,2.51,0,0,1,4-2l.22.2L74,88l-.46.46Zm1.52-2.82a1.34,1.34,0,0,0-.69-.11,1.55,1.55,0,0,0-1.57,1.56,1.26,1.26,0,0,0,.12.69Zm-.55-2.34h1.11L72,86.94h-.86Z"/><path class="cls-2" d="M78.56,87.38l-1.2,2.06,1.42,2.46h-1l-.89-1.52L76,91.9H74.91l1.42-2.46-1.2-2.06h1.05l.66,1.13.66-1.13Z"/><path class="cls-2" d="M80.81,85.7a.62.62,0,0,1,.19.46.58.58,0,0,1-.19.45.61.61,0,0,1-.45.18.64.64,0,0,1-.45-.18.62.62,0,0,1-.19-.45.66.66,0,0,1,.19-.46.64.64,0,0,1,.45-.18A.61.61,0,0,1,80.81,85.7Zm0,1.68V91.9h-.91V87.38Z"/><path class="cls-2" d="M85.79,90.35l.91.32a4.55,4.55,0,0,1-.48.61,2.49,2.49,0,0,1-3.54,0A2.38,2.38,0,0,1,82,89.51a2.5,2.5,0,0,1,4.27-1.77,5.35,5.35,0,0,1,.48.61l-.91.33-.24-.28a1.5,1.5,0,0,0-1.1-.45,1.56,1.56,0,0,0-1.11,2.67,1.57,1.57,0,0,0,2.22,0Z"/><path class="cls-2" d="M90,87a2.49,2.49,0,0,1,2.5,2.5,2.38,2.38,0,0,1-.73,1.77A2.42,2.42,0,0,1,90,92a2.53,2.53,0,0,1-2.5-2.51,2.42,2.42,0,0,1,.74-1.77A2.37,2.37,0,0,1,90,87Zm-1.11,1.4A1.57,1.57,0,0,0,90,91.08,1.57,1.57,0,1,0,90,88,1.51,1.51,0,0,0,88.88,88.41Z"/><path class="cls-2" d="M99.84,87.36h.37l.44-1.8h.93l-.45,1.8h1.81l-.23.91H100.9l-.09.39h1.8l-.23.91h-1.8l-.45,1.8H99.2l.45-1.8h-.37l-.45,1.8H97.9l.46-1.8H96.55l.23-.91h1.8l.1-.39h-1.8l.23-.91h1.8l.45-1.8h.93Zm.14.91h-.37l-.1.39h.37Z"/><path class="cls-2" d="M107.42,84.87v7h-.91V86.06h-.68l.93-1.19Z"/><path class="cls-2" d="M115.09,89.51a2.41,2.41,0,0,1-.73,1.77,2.38,2.38,0,0,1-1.77.73,2.49,2.49,0,0,1-2.49-2.5V87.36a2.49,2.49,0,0,1,2.49-2.49,2.38,2.38,0,0,1,1.77.73,2.4,2.4,0,0,1,.73,1.76Zm-.93-2.15a1.49,1.49,0,0,0-.46-1.1,1.56,1.56,0,0,0-2.21,0,1.49,1.49,0,0,0-.46,1.1v2.15a1.57,1.57,0,1,0,3.13,0Z"/><path class="cls-2" d="M30.87,96.58v6.12H30V96.58H28.31v-.91h4.2v.91Z"/><path class="cls-2" d="M35.26,97.81a2.41,2.41,0,0,1,1.77.73,2.45,2.45,0,0,1,.73,1.77,2.5,2.5,0,0,1-4.27,1.77,2.38,2.38,0,0,1-.73-1.77,2.49,2.49,0,0,1,2.5-2.5Zm-1.11,1.4a1.57,1.57,0,0,0,1.11,2.67,1.57,1.57,0,0,0,0-3.14A1.49,1.49,0,0,0,34.15,99.21Z"/><path class="cls-2" d="M39.72,98.79A1.64,1.64,0,0,1,41,98.06v1a1.16,1.16,0,0,0-.79.32,1.5,1.5,0,0,0-.46,1v2.32h-.91V98.18h.91Z"/><path class="cls-2" d="M43.25,101.68a1.29,1.29,0,0,0,.83.2,1.51,1.51,0,0,0,1.11-.46l.23-.27.91.32a4.55,4.55,0,0,1-.48.61,2.49,2.49,0,0,1-3.54,0,2.38,2.38,0,0,1-.73-1.77,2.51,2.51,0,0,1,4.05-2l.22.2.25.28-.46.46Zm1.52-2.82a1.31,1.31,0,0,0-.69-.12A1.55,1.55,0,0,0,43,99.2a1.51,1.51,0,0,0-.46,1.11,1.26,1.26,0,0,0,.12.69Z"/><path class="cls-2" d="M51.31,98.49v-.31h.91v4.52h-.91v-.56a2.08,2.08,0,0,1-1.53.68A2.5,2.5,0,0,1,48,98.55a2.38,2.38,0,0,1,1.77-.73A2.07,2.07,0,0,1,51.31,98.49Zm0,2.16V100a1.53,1.53,0,0,0-.43-.77,1.56,1.56,0,0,0-2.21,0,1.49,1.49,0,0,0-.46,1.11,1.57,1.57,0,0,0,1.57,1.56,1.5,1.5,0,0,0,1.1-.45A1.56,1.56,0,0,0,51.31,100.65Z"/><path class="cls-2" d="M57.47,98.49V95.67h.91v7h-.91v-.56a2.09,2.09,0,0,1-1.54.68,2.51,2.51,0,0,1-2.5-2.51,2.45,2.45,0,0,1,.73-1.77,2.41,2.41,0,0,1,1.77-.73A2.09,2.09,0,0,1,57.47,98.49Zm0,2.16V100a1.53,1.53,0,0,0-.43-.77,1.49,1.49,0,0,0-1.11-.47,1.57,1.57,0,0,0,0,3.14,1.48,1.48,0,0,0,1.11-.46A1.53,1.53,0,0,0,57.47,100.65Z"/><path class="cls-2" d="M61.94,97.81a2.37,2.37,0,0,1,1.76.73,2.42,2.42,0,0,1,.74,1.77,2.53,2.53,0,0,1-2.5,2.51,2.42,2.42,0,0,1-1.77-.74,2.38,2.38,0,0,1-.73-1.77,2.49,2.49,0,0,1,2.5-2.5Zm-1.11,1.4a1.57,1.57,0,0,0,1.11,2.67,1.57,1.57,0,0,0,0-3.14A1.49,1.49,0,0,0,60.83,99.21Z"/><path class="cls-2" d="M66.4,98.79a1.64,1.64,0,0,1,1.25-.73v1a1.16,1.16,0,0,0-.79.32,1.5,1.5,0,0,0-.46,1v2.32h-.91V98.18h.91Z"/><path class="cls-2" d="M75.57,98.49V95.67h.92v7h-.92v-.56a2.08,2.08,0,0,1-1.53.68,2.42,2.42,0,0,1-1.77-.74,2.38,2.38,0,0,1-.73-1.77,2.49,2.49,0,0,1,2.5-2.5A2.08,2.08,0,0,1,75.57,98.49Zm0,2.16V100a1.44,1.44,0,0,0-.42-.77A1.52,1.52,0,0,0,74,98.74a1.49,1.49,0,0,0-1.11.47A1.57,1.57,0,0,0,74,101.88a1.51,1.51,0,0,0,1.11-.46A1.44,1.44,0,0,0,75.57,100.65Z"/><path class="cls-2" d="M79.21,101.68a1.31,1.31,0,0,0,.83.2,1.51,1.51,0,0,0,1.11-.46l.24-.27.9.32a4.55,4.55,0,0,1-.48.61,2.5,2.5,0,0,1-4.27-1.77,2.45,2.45,0,0,1,.73-1.77A2.41,2.41,0,0,1,80,97.81a2.47,2.47,0,0,1,1.56.53l.21.2.25.28-.45.46Zm1.52-2.82a1.26,1.26,0,0,0-.69-.12,1.57,1.57,0,0,0-1.56,1.57,1.4,1.4,0,0,0,.11.69Z"/><path class="cls-2" d="M90.25,95.67v.91H87.37v2.15h2.88v.91H87.37v2.15h2.88v.91H86.46v-7Z"/><path class="cls-2" d="M92.37,99.39v3.31h-.91V98.18h.91v.53a1.11,1.11,0,0,1,1.15-.78,1.47,1.47,0,0,1,1.17.52,2.11,2.11,0,0,1,.44,1.31v2.94h-.91V99.8a.91.91,0,0,0-.28-.68,1,1,0,0,0-.68-.27.94.94,0,0,0-.68.27A1,1,0,0,0,92.37,99.39Z"/><path class="cls-2" d="M96.46,98.18h.91v.42a1,1,0,0,1,1-.66.76.76,0,0,1,.84.75,1.07,1.07,0,0,1,1.18-.75c.64,0,1,.38,1,1.16v3.6h-.91V99.52c0-.45-.18-.67-.54-.67a.53.53,0,0,0-.39.16c-.11.1-.16.46-.16,1.06v2.63h-.91V99.52c0-.45-.18-.67-.54-.67a.53.53,0,0,0-.39.16,1.2,1.2,0,0,0-.16.72v3h-.91Z"/><path class="cls-2" d="M104.1,101.68a1.31,1.31,0,0,0,.83.2,1.48,1.48,0,0,0,1.11-.46l.24-.27.91.32a5.28,5.28,0,0,1-.49.61,2.42,2.42,0,0,1-1.77.74,2.53,2.53,0,0,1-2.5-2.51,2.42,2.42,0,0,1,.74-1.77,2.37,2.37,0,0,1,1.76-.73,2.47,2.47,0,0,1,1.56.53l.21.2a3.5,3.5,0,0,1,.25.28l-.45.46Zm1.52-2.82a1.26,1.26,0,0,0-.69-.12,1.57,1.57,0,0,0-1.56,1.57,1.26,1.26,0,0,0,.12.69Z"/><path class="cls-2" d="M112.17,98.49V95.67h.91v7h-.91v-.56a2.1,2.1,0,0,1-1.54.68,2.42,2.42,0,0,1-1.77-.74,2.38,2.38,0,0,1-.73-1.77,2.49,2.49,0,0,1,2.5-2.5A2.1,2.1,0,0,1,112.17,98.49Zm0,2.16V100a1.57,1.57,0,0,0-2.65-.77,1.56,1.56,0,0,0,0,2.21,1.57,1.57,0,0,0,2.22,0A1.53,1.53,0,0,0,112.17,100.65Z"/><path class="cls-2" d="M115.38,96.5a.66.66,0,0,1,.19.46.62.62,0,0,1-.19.45.65.65,0,0,1-.46.18.6.6,0,0,1-.44-.18.58.58,0,0,1-.19-.45.62.62,0,0,1,.19-.46.6.6,0,0,1,.44-.18A.65.65,0,0,1,115.38,96.5Zm0,1.68v4.52h-.91V98.18Z"/><path class="cls-2" d="M119,97.81a2.49,2.49,0,0,1,2.5,2.5,2.38,2.38,0,0,1-.73,1.77,2.42,2.42,0,0,1-1.77.74,2.53,2.53,0,0,1-2.5-2.51,2.42,2.42,0,0,1,.74-1.77A2.37,2.37,0,0,1,119,97.81Zm-1.11,1.4a1.57,1.57,0,0,0,1.11,2.67,1.57,1.57,0,0,0,0-3.14A1.52,1.52,0,0,0,117.9,99.21Z"/><path class="cls-2" d="M55.31,112.54a3.5,3.5,0,0,1-2.48,1,3.59,3.59,0,1,1,0-7.18,3.9,3.9,0,0,1,2.64,1.14l-.68.62a2.93,2.93,0,0,0-2-.84,2.57,2.57,0,0,0-1.89.78,2.62,2.62,0,0,0-.79,1.89,2.68,2.68,0,0,0,2.68,2.68,2.46,2.46,0,0,0,1.57-.5V110h.91Z"/><path class="cls-2" d="M58.59,113.56a1.86,1.86,0,0,1-1.38-.52,1.79,1.79,0,0,1-.53-1.31V109h.91v2.71a.9.9,0,0,0,.29.68,1,1,0,0,0,1.39,0,.91.91,0,0,0,.28-.68V109h.91v2.75a1.83,1.83,0,0,1-.53,1.31A1.8,1.8,0,0,1,58.59,113.56Z"/><path class="cls-2" d="M65.7,109.29V109h.92v4.52H65.7v-.56a2.08,2.08,0,0,1-1.53.68,2.5,2.5,0,0,1-1.77-4.27,2.41,2.41,0,0,1,1.77-.73A2.07,2.07,0,0,1,65.7,109.29Zm0,2.16v-.67a1.44,1.44,0,0,0-.42-.77,1.57,1.57,0,0,0-2.22,0,1.53,1.53,0,0,0-.46,1.11,1.57,1.57,0,0,0,1.57,1.56,1.54,1.54,0,0,0,1.11-.45A1.47,1.47,0,0,0,65.7,111.45Z"/><path class="cls-2" d="M68.85,110.19v3.31h-.91V109h.91v.53a1.12,1.12,0,0,1,1.15-.78,1.47,1.47,0,0,1,1.17.52,2.11,2.11,0,0,1,.44,1.31v2.94H70.7v-2.9a.91.91,0,0,0-.28-.68,1,1,0,0,0-1.36,0A1,1,0,0,0,68.85,110.19Z"/><path class="cls-2" d="M76.86,109.29V109h.92v4.52h-.92v-.56a2.08,2.08,0,0,1-1.53.68,2.5,2.5,0,0,1-1.76-4.27,2.37,2.37,0,0,1,1.76-.73A2.07,2.07,0,0,1,76.86,109.29Zm0,2.16v-.67a1.44,1.44,0,0,0-.42-.77,1.53,1.53,0,0,0-1.11-.46,1.51,1.51,0,0,0-1.1.46,1.49,1.49,0,0,0-.46,1.11,1.57,1.57,0,0,0,1.56,1.56,1.52,1.52,0,0,0,1.11-.45A1.47,1.47,0,0,0,76.86,111.45Z"/><path class="cls-2" d="M78.66,113.54c.32,0,.49-.13.49-.3V109h.91v4.25c0,.74-.47,1.15-1.4,1.22Zm1.39-6.24a.62.62,0,0,1,.19.46.58.58,0,0,1-.19.45.61.61,0,0,1-.45.18.64.64,0,0,1-.45-.18.62.62,0,0,1-.19-.45.66.66,0,0,1,.19-.46.64.64,0,0,1,.45-.18A.61.61,0,0,1,80.05,107.3Z"/><path class="cls-2" d="M83.48,113.56A1.86,1.86,0,0,1,82.1,113a1.79,1.79,0,0,1-.53-1.31V109h.91v2.71a.94.94,0,0,0,.29.68,1,1,0,0,0,1.39,0,.91.91,0,0,0,.28-.68V109h.91v2.75a1.83,1.83,0,0,1-.53,1.31A1.8,1.8,0,0,1,83.48,113.56Z"/><path class="cls-2" d="M90.59,109.29V109h.92v4.52h-.92v-.56a2.08,2.08,0,0,1-1.53.68,2.5,2.5,0,0,1-1.77-4.27,2.41,2.41,0,0,1,1.77-.73A2.07,2.07,0,0,1,90.59,109.29Zm0,2.16v-.67a1.44,1.44,0,0,0-.42-.77A1.57,1.57,0,0,0,88,110a1.53,1.53,0,0,0-.46,1.11,1.57,1.57,0,0,0,1.57,1.56,1.54,1.54,0,0,0,1.11-.45A1.47,1.47,0,0,0,90.59,111.45Z"/><path class="cls-2" d="M93.4,109v-1.7h.91V109h.81v.91h-.81v3.61H93.4v-3.61h-.81V109Z"/><path class="cls-2" d="M98.42,108.61a2.41,2.41,0,0,1,1.77.73,2.45,2.45,0,0,1,.73,1.77,2.5,2.5,0,0,1-4.27,1.77,2.38,2.38,0,0,1-.73-1.77,2.49,2.49,0,0,1,2.5-2.5ZM97.31,110a1.56,1.56,0,0,0,0,2.21,1.49,1.49,0,0,0,1.11.46A1.57,1.57,0,1,0,97.31,110Z"/></svg>