<svg id="Background" xmlns="http://www.w3.org/2000/svg" viewBox="0 0 150 150"><defs><style>.cls-1{fill:#fff;}.cls-2{fill:#42434c;}</style></defs><circle class="cls-1" cx="75" cy="75" r="75"/><path class="cls-2" d="M75.62,74.37H74.41a14,14,0,0,1-1.49-1.18c-1.81-1.86-3.63-3.72-5.37-5.65-1-1.18-2-2.49-2.93-3.75a42,42,0,0,1-3.89-6.07,46.45,46.45,0,0,1-2.06-4.48A23.42,23.42,0,0,1,57,46a21.25,21.25,0,0,1,.08-3.19A16.28,16.28,0,0,1,58,38.62,17.94,17.94,0,0,1,71.69,27c.48-.08.94-.19,1.41-.28h3.73a.66.66,0,0,0,.19.09,32.29,32.29,0,0,1,3.64.78,17.08,17.08,0,0,1,5.08,2.64,18.71,18.71,0,0,1,5.26,6,17.65,17.65,0,0,1,2,7.55,23.17,23.17,0,0,1-.26,3.9,21.74,21.74,0,0,1-1.74,6A43,43,0,0,1,87,61c-1,1.5-2.07,3-3.17,4.46a41.61,41.61,0,0,1-2.77,3.41c-.53.64-1.1,1.25-1.66,1.86A23.67,23.67,0,0,1,75.62,74.37ZM75,36.14a8.46,8.46,0,1,0,.23,0Z"/><path class="cls-2" d="M20.23,90a1.54,1.54,0,0,1-.39,1.12,1.44,1.44,0,0,1-2,0A1.53,1.53,0,0,1,17.39,90l.71-.27a1.58,1.58,0,0,0,.31.81.6.6,0,0,0,.37.11h0a.54.54,0,0,0,.41-.16.8.8,0,0,0,.13-.52V84.51h.89Z"/><path class="cls-2" d="M23.77,86.62a2.37,2.37,0,0,1,1.74.72,2.49,2.49,0,0,1,0,3.5,2.37,2.37,0,0,1-1.74.72,2.47,2.47,0,1,1,0-4.94ZM22.67,88a1.5,1.5,0,0,0-.45,1.09,1.48,1.48,0,0,0,.45,1.09,1.56,1.56,0,0,0,2.19,0,1.48,1.48,0,0,0,.45-1.09,1.55,1.55,0,0,0-1.54-1.55A1.51,1.51,0,0,0,22.67,88Z"/><path class="cls-2" d="M28.17,90.49a.55.55,0,0,0,.38.15.52.52,0,0,0,.38-.15.53.53,0,0,0,.16-.39.54.54,0,0,0-.15-.38,3.94,3.94,0,0,0-.47-.33,3.34,3.34,0,0,1-.69-.47,1.22,1.22,0,0,1,.86-2.07,1.12,1.12,0,0,1,.84.34,1,1,0,0,1,.3.53l-.87.25a.38.38,0,0,0-.06-.14.29.29,0,0,0-.21-.08.29.29,0,0,0-.22.09.34.34,0,0,0-.1.23.28.28,0,0,0,.1.22,2.19,2.19,0,0,0,.37.26,3.64,3.64,0,0,1,.78.54,1.44,1.44,0,0,1-2,2,1.47,1.47,0,0,1-.38-.73l.89-.19A.66.66,0,0,0,28.17,90.49Z"/><path class="cls-2" d="M32.48,90.43a1.21,1.21,0,0,0,.82.2,1.48,1.48,0,0,0,1.09-.45,3.39,3.39,0,0,0,.23-.27l.9.32a5.35,5.35,0,0,1-.48.61,2.47,2.47,0,1,1-.21-3.69l.21.19a3.5,3.5,0,0,1,.25.28l-.45.45ZM34,87.66a1.24,1.24,0,0,0-.68-.12,1.45,1.45,0,0,0-1.09.46,1.48,1.48,0,0,0-.45,1.09,1.27,1.27,0,0,0,.11.68Z"/><path class="cls-2" d="M37.6,87.88v3.57h-.9V87.88h-.4V87h.4v-.8a1.41,1.41,0,0,1,.42-1,1.35,1.35,0,0,1,1-.39,3,3,0,0,1,.81.19l-.3.85a1.64,1.64,0,0,0-.48-.16.54.54,0,0,0-.35.15.56.56,0,0,0-.15.34V87h.8v.9Z"/><path class="cls-2" d="M43.05,87.3V87H44v4.47h-.9v-.56a2,2,0,0,1-1.51.67,2.47,2.47,0,0,1,0-4.93A2,2,0,0,1,43.05,87.3Zm0,2.12v-.65a1.49,1.49,0,0,0-.41-.77,1.52,1.52,0,0,0-1.1-.45A1.54,1.54,0,0,0,40,89.09a1.55,1.55,0,0,0,1.54,1.55,1.52,1.52,0,0,0,1.1-.45A1.49,1.49,0,0,0,43.05,89.42Z"/><path class="cls-2" d="M54.27,85.46a3.55,3.55,0,0,1,0,5A3.55,3.55,0,0,1,48.22,88a3.55,3.55,0,0,1,3.54-3.55A3.43,3.43,0,0,1,54.27,85.46Zm-2.51-.13a2.5,2.5,0,0,0-1.86.77,2.64,2.64,0,1,0,1.86-.77Z"/><path class="cls-2" d="M57.41,87.59a1.58,1.58,0,0,1,1.23-.72v.93a1.16,1.16,0,0,0-.78.32,1.46,1.46,0,0,0-.45,1v2.29h-.9V87h.9Z"/><path class="cls-2" d="M60.23,87V85.31h.89V87h.81v.9h-.81v3.56h-.89V87.88h-.8V87Z"/><path class="cls-2" d="M63.94,85.33a.63.63,0,0,1,.18.45.61.61,0,0,1-.18.45.64.64,0,0,1-.45.18.6.6,0,0,1-.44-.18.58.58,0,0,1-.19-.45.6.6,0,0,1,.19-.45.6.6,0,0,1,.44-.18A.64.64,0,0,1,63.94,85.33Zm0,1.65v4.46H63V87Z"/><path class="cls-2" d="M67.34,87.88H65.51V87h3.38l-2,3.56h2v.9H65.31Z"/><path class="cls-2" d="M77.13,87.29V84.51H78v6.93h-.9v-.55a2.05,2.05,0,0,1-1.52.67,2.37,2.37,0,0,1-1.74-.72,2.49,2.49,0,0,1,0-3.5,2.37,2.37,0,0,1,1.74-.72A2.05,2.05,0,0,1,77.13,87.29Zm0,2.13v-.66A1.5,1.5,0,0,0,76.7,88a1.49,1.49,0,0,0-1.09-.46,1.55,1.55,0,0,0-1.54,1.55,1.48,1.48,0,0,0,.45,1.09,1.5,1.5,0,0,0,1.09.45,1.48,1.48,0,0,0,1.09-.45A1.5,1.5,0,0,0,77.13,89.42Z"/><path class="cls-2" d="M80.71,90.43a1.23,1.23,0,0,0,.82.2,1.52,1.52,0,0,0,1.1-.45l.23-.27.89.32a4.58,4.58,0,0,1-.47.61,2.47,2.47,0,1,1-.21-3.69l.21.19.24.28-.45.45Zm1.5-2.77a1.24,1.24,0,0,0-.68-.12A1.55,1.55,0,0,0,80,89.09a1.24,1.24,0,0,0,.12.68Z"/><path class="cls-2" d="M88.52,84.51a3.62,3.62,0,0,1,2.64,1,3.57,3.57,0,0,1,0,5,3.57,3.57,0,0,1-2.64,1h-.66V84.51Zm.24.91v5.11a2.35,2.35,0,0,0,1.75-.69A2.51,2.51,0,0,0,91.29,88a2.55,2.55,0,0,0-.78-1.87A2.35,2.35,0,0,0,88.76,85.42Z"/><path class="cls-2" d="M95.48,86.62a2.38,2.38,0,0,1,1.75.72,2.49,2.49,0,0,1,0,3.5,2.47,2.47,0,0,1-3.49,0,2.49,2.49,0,0,1,0-3.5A2.37,2.37,0,0,1,95.48,86.62ZM94.39,88a1.5,1.5,0,0,0-.45,1.09,1.48,1.48,0,0,0,.45,1.09,1.56,1.56,0,0,0,2.19,0A1.48,1.48,0,0,0,97,89.09,1.5,1.5,0,0,0,96.58,88a1.53,1.53,0,0,0-2.19,0Z"/><path class="cls-2" d="M99,87h.9v.42a1,1,0,0,1,1-.65.74.74,0,0,1,.82.74,1.06,1.06,0,0,1,1.17-.74c.63,0,1,.38,1,1.14v3.55h-.9V88.31q0-.66-.54-.66a.55.55,0,0,0-.38.15,2,2,0,0,0-.16,1v2.59H101V88.31q0-.66-.54-.66a.55.55,0,0,0-.38.15,1.2,1.2,0,0,0-.15.71v2.93H99Z"/><path class="cls-2" d="M105.93,85.35H107l-1.18,1.21H105Zm.19,1.63v4.46h-.9V87Z"/><path class="cls-2" d="M108.41,88.18v3.26h-.9V87h.9v.52a1.1,1.1,0,0,1,1.13-.76,1.4,1.4,0,0,1,1.15.52,2,2,0,0,1,.44,1.28v2.9h-.9V88.58a.87.87,0,0,0-.28-.66,1,1,0,0,0-.67-.28.94.94,0,0,0-.67.27A1.14,1.14,0,0,0,108.41,88.18Z"/><path class="cls-2" d="M116.31,87.29V87h.9V90.3a2.73,2.73,0,0,1-.7,2,2.75,2.75,0,0,1-3.5,0c-.09-.1-.25-.3-.47-.6l.89-.32.24.27a1.5,1.5,0,0,0,1.09.45c.71,0,1.21-.47,1.48-1.41a1.48,1.48,0,0,1-1.44.82,2.43,2.43,0,0,1-1.74-.7,2.3,2.3,0,0,1-.73-1.73,2.34,2.34,0,0,1,.73-1.74,2.37,2.37,0,0,1,1.74-.72A2.06,2.06,0,0,1,116.31,87.29Zm0,1.45a1.54,1.54,0,0,0-2.6-.74,1.47,1.47,0,0,0-.46,1.09,1.57,1.57,0,0,0,1.55,1.55,1.48,1.48,0,0,0,1.09-.45,1.55,1.55,0,0,0,.42-.74Z"/><path class="cls-2" d="M120.42,91.5a1.78,1.78,0,0,1-1.89-1.8V87h.9v2.68a1,1,0,0,0,.28.67,1,1,0,0,0,.71.27,1,1,0,0,0,1-.94V87h.9V89.7a1.84,1.84,0,0,1-.53,1.29A1.79,1.79,0,0,1,120.42,91.5Z"/><path class="cls-2" d="M125,90.43a1.21,1.21,0,0,0,.82.2,1.52,1.52,0,0,0,1.1-.45l.23-.27.89.32a7.4,7.4,0,0,1-.47.61,2.41,2.41,0,0,1-1.75.72,2.37,2.37,0,0,1-1.74-.72,2.49,2.49,0,0,1,0-3.5,2.47,2.47,0,0,1,3.27-.19l.22.19.24.28-.45.45Zm1.5-2.77a1.24,1.24,0,0,0-.68-.12,1.55,1.55,0,0,0-1.54,1.55,1.38,1.38,0,0,0,.11.68Z"/><path class="cls-2" d="M131.06,87.88h-1.83V87h3.38l-2,3.56h2v.9H129Z"/><path class="cls-2" d="M47.86,97.62h.36l.45-1.78h.91l-.44,1.78h1.78l-.23.89H48.91l-.09.38H50.6l-.23.9H48.59l-.44,1.78h-.91l.44-1.78h-.36l-.45,1.78H46l.45-1.78H44.62l.23-.9h1.78l.09-.38H44.94l.23-.89H47l.44-1.78h.91Zm.14.89h-.36l-.1.38h.36Z"/><path class="cls-2" d="M55.34,97.78a21.81,21.81,0,0,0-1.66,2,4.07,4.07,0,0,0-.64,2.27h-.91a4.77,4.77,0,0,1,.72-2.7,20.84,20.84,0,0,1,1.59-2,4.86,4.86,0,0,0,1-1.36H52.14v-.9h4.31A4,4,0,0,1,55.34,97.78Z"/><path class="cls-2" d="M61,95.16v6.93h-.9V96.33h-.66l.91-1.17Z"/><path class="cls-2" d="M67.17,95.16v6.93h-.9V96.33h-.66l.91-1.17Z"/><path class="cls-2" d="M71.38,100.89l-1,2.08h-.85l.55-2.08Z"/><path class="cls-2" d="M76.21,95.16v6.93h-.9V95.16Z"/><path class="cls-2" d="M81.47,97.94v-.31h.9V101a2.71,2.71,0,0,1-.71,2,2.7,2.7,0,0,1-3.49,0,4,4,0,0,1-.47-.59l.89-.32.23.26a1.52,1.52,0,0,0,1.1.45c.71,0,1.2-.46,1.48-1.4a1.5,1.5,0,0,1-1.45.82,2.4,2.4,0,0,1-1.74-.71,2.29,2.29,0,0,1-.72-1.72A2.41,2.41,0,0,1,78.21,98,2.37,2.37,0,0,1,80,97.27,2.09,2.09,0,0,1,81.47,97.94Zm0,1.45a1.41,1.41,0,0,0-.41-.74,1.55,1.55,0,0,0-2.19,2.18,1.5,1.5,0,0,0,1.09.46,1.47,1.47,0,0,0,1.1-.46,1.38,1.38,0,0,0,.41-.73Z"/><path class="cls-2" d="M84.58,98.24a1.59,1.59,0,0,1,1.24-.72v.93a1.12,1.12,0,0,0-.78.32,1.47,1.47,0,0,0-.46,1v2.29h-.89V97.63h.89Z"/><path class="cls-2" d="M87.74,96a.58.58,0,0,1,.19.45.58.58,0,0,1-.19.44.58.58,0,0,1-.45.19.59.59,0,0,1-.44-.19.6.6,0,0,1-.18-.44.61.61,0,0,1,.18-.45.62.62,0,0,1,.44-.18A.61.61,0,0,1,87.74,96Zm0,1.65v4.46h-.9V97.63Z"/><path class="cls-2" d="M90.51,101.08a1.26,1.26,0,0,0,.81.2,1.5,1.5,0,0,0,1.1-.45l.23-.27.9.32a4.25,4.25,0,0,1-.48.6,2.47,2.47,0,0,1-4.21-1.74,2.47,2.47,0,0,1,4-1.94l.21.19.25.28-.45.45ZM92,98.31a1.22,1.22,0,0,0-.68-.12,1.54,1.54,0,0,0-1.54,1.55,1.27,1.27,0,0,0,.12.68Z"/><path class="cls-2" d="M98.46,97.94v-.31h.9V101a2.71,2.71,0,0,1-.71,2,2.7,2.7,0,0,1-3.49,0,4,4,0,0,1-.47-.59l.89-.32.23.26a1.51,1.51,0,0,0,1.09.45c.72,0,1.21-.46,1.49-1.4a1.5,1.5,0,0,1-1.45.82,2.4,2.4,0,0,1-1.74-.71,2.29,2.29,0,0,1-.72-1.72A2.41,2.41,0,0,1,95.2,98a2.37,2.37,0,0,1,1.74-.72A2.09,2.09,0,0,1,98.46,97.94Zm0,1.45a1.41,1.41,0,0,0-.41-.74,1.55,1.55,0,0,0-2.19,2.18,1.5,1.5,0,0,0,1.09.46,1.47,1.47,0,0,0,1.1-.46,1.38,1.38,0,0,0,.41-.73Z"/><path class="cls-2" d="M104.47,97.94v-.31h.91v4.47h-.91v-.56a2,2,0,0,1-1.5.67,2.47,2.47,0,1,1,0-4.93A2,2,0,0,1,104.47,97.94Zm0,2.13v-.66a1.46,1.46,0,0,0-.41-.76,1.55,1.55,0,0,0-2.64,1.09,1.48,1.48,0,0,0,.45,1.09,1.51,1.51,0,0,0,1.1.46,1.47,1.47,0,0,0,1.09-.46A1.43,1.43,0,0,0,104.47,100.07Z"/><path class="cls-2" d="M38.11,109.18a3,3,0,0,1-1.19-.7,1.56,1.56,0,0,1-.46-1.13,1.53,1.53,0,0,1,.48-1.14,1.55,1.55,0,0,1,1.15-.48,1.59,1.59,0,0,1,1.14.47,2,2,0,0,1,.45.83l-.81.32a1.57,1.57,0,0,0-.27-.52.69.69,0,0,0-.51-.21.72.72,0,0,0-.52.21.74.74,0,0,0,0,1,2.28,2.28,0,0,0,.66.43,3.45,3.45,0,0,1,1.38.83,2.05,2.05,0,0,1,.64,1.53,2.08,2.08,0,0,1-.63,1.53,2.12,2.12,0,0,1-1.53.63,2.08,2.08,0,0,1-1.53-.63,2.44,2.44,0,0,1-.64-1.4l.87-.32a1.81,1.81,0,0,0,.4,1.09,1.28,1.28,0,0,0,1.8,0,1.28,1.28,0,0,0,0-1.8A2.57,2.57,0,0,0,38.11,109.18Z"/><path class="cls-2" d="M45,108.59v-.31h.9v4.46H45v-.55a2.08,2.08,0,0,1-1.51.67A2.46,2.46,0,0,1,41,110.39a2.37,2.37,0,0,1,.72-1.74,2.41,2.41,0,0,1,1.75-.72A2.07,2.07,0,0,1,45,108.59Zm0,2.13v-.66a1.55,1.55,0,0,0-1.51-1.21,1.52,1.52,0,0,0-1.1.45,1.55,1.55,0,0,0,0,2.18,1.52,1.52,0,0,0,1.1.45,1.5,1.5,0,0,0,1.09-.45A1.45,1.45,0,0,0,45,110.72Z"/><path class="cls-2" d="M48.09,109.48v3.26h-.9v-4.46h.9v.52a1.1,1.1,0,0,1,1.13-.76,1.41,1.41,0,0,1,1.15.51,1.92,1.92,0,0,1,.44,1.29v2.9h-.89v-2.86a.91.91,0,0,0-.28-.66.93.93,0,0,0-.68-.28.91.91,0,0,0-.66.27A1,1,0,0,0,48.09,109.48Z"/><path class="cls-2" d="M55.19,112.74v-6.93h.9v6h2.48v.9Z"/><path class="cls-2" d="M61.23,112.8a1.83,1.83,0,0,1-1.36-.51,1.8,1.8,0,0,1-.53-1.3v-2.71h.9V111a.87.87,0,0,0,.28.66.94.94,0,0,0,.7.28.91.91,0,0,0,.67-.28.87.87,0,0,0,.28-.66v-2.68h.9V111a1.84,1.84,0,0,1-.52,1.3A1.82,1.82,0,0,1,61.23,112.8Z"/><path class="cls-2" d="M65.34,106.63a.61.61,0,0,1,.18.45.6.6,0,0,1-.18.44.65.65,0,0,1-.45.19.63.63,0,0,1-.44-1.08.6.6,0,0,1,.44-.18A.64.64,0,0,1,65.34,106.63Zm0,1.65v4.46h-.89v-4.46Z"/><path class="cls-2" d="M67.62,111.78a.49.49,0,0,0,.38.16.51.51,0,0,0,.38-.16.53.53,0,0,0,0-.76,3.58,3.58,0,0,0-.46-.33,3.18,3.18,0,0,1-.69-.47,1.16,1.16,0,0,1-.36-.86,1.21,1.21,0,0,1,1.21-1.21,1.11,1.11,0,0,1,.84.34,1,1,0,0,1,.3.53l-.87.25a.38.38,0,0,0-.06-.14.25.25,0,0,0-.21-.08.31.31,0,0,0-.31.31.32.32,0,0,0,.09.23,2.75,2.75,0,0,0,.37.26,3.64,3.64,0,0,1,.78.54,1.44,1.44,0,0,1,0,2,1.35,1.35,0,0,1-1,.42,1.39,1.39,0,0,1-1-.42,1.47,1.47,0,0,1-.38-.73l.9-.19A.46.46,0,0,0,67.62,111.78Z"/><path class="cls-2" d="M77.47,108.59v-2.78h.91v6.93h-.91v-.55a2.05,2.05,0,0,1-1.51.67,2.34,2.34,0,0,1-1.74-.73A2.47,2.47,0,0,1,76,107.92,2,2,0,0,1,77.47,108.59Zm0,2.13v-.66a1.38,1.38,0,0,0-.42-.76,1.52,1.52,0,0,0-2.18,0,1.48,1.48,0,0,0-.45,1.09,1.5,1.5,0,0,0,.45,1.09,1.55,1.55,0,0,0,2.18,0A1.42,1.42,0,0,0,77.47,110.72Z"/><path class="cls-2" d="M81.06,111.73a1.27,1.27,0,0,0,.82.2,1.52,1.52,0,0,0,1.1-.45l.23-.27.89.32a6.72,6.72,0,0,1-.47.6,2.38,2.38,0,0,1-1.75.73,2.34,2.34,0,0,1-1.74-.73,2.47,2.47,0,0,1,1.74-4.21,2.32,2.32,0,0,1,1.53.53l.22.19.24.27-.45.46Zm1.5-2.77a1.24,1.24,0,0,0-.68-.12,1.5,1.5,0,0,0-1.09.45,1.52,1.52,0,0,0-.45,1.1,1.27,1.27,0,0,0,.12.68Z"/><path class="cls-2" d="M89.11,105.8v6.94h-.9V105.8Z"/><path class="cls-2" d="M94.28,108.59v-.31h.9v4.46h-.9v-.55a2.08,2.08,0,0,1-1.51.67,2.48,2.48,0,0,1-2.47-2.47,2.34,2.34,0,0,1,.73-1.74,2.37,2.37,0,0,1,1.74-.72A2.07,2.07,0,0,1,94.28,108.59Zm0,2.13v-.66a1.55,1.55,0,0,0-2.6-.76,1.52,1.52,0,0,0,0,2.18,1.48,1.48,0,0,0,1.09.45,1.5,1.5,0,0,0,1.09-.45A1.45,1.45,0,0,0,94.28,110.72Z"/><path class="cls-2" d="M100.45,110.52v2.22h-.9v-6.93h2a2.34,2.34,0,0,1,1.41.69,2.36,2.36,0,0,1-1.66,4Zm0-3.81v2.91h.82a1.47,1.47,0,0,0,1.45-1.46,1.45,1.45,0,0,0-1.45-1.45Z"/><path class="cls-2" d="M108,108.59v-.31h.9v4.46H108v-.55a2.08,2.08,0,0,1-1.51.67,2.48,2.48,0,0,1-2.47-2.47,2.34,2.34,0,0,1,.73-1.74,2.37,2.37,0,0,1,1.74-.72A2.07,2.07,0,0,1,108,108.59Zm0,2.13v-.66a1.42,1.42,0,0,0-.42-.76,1.5,1.5,0,0,0-1.09-.45,1.48,1.48,0,0,0-1.09.45,1.52,1.52,0,0,0,0,2.18,1.48,1.48,0,0,0,1.09.45,1.5,1.5,0,0,0,1.09-.45A1.38,1.38,0,0,0,108,110.72Z"/><path class="cls-2" d="M112.21,109.18h-1.83v-.9h3.38l-2,3.56h2v.9h-3.53Z"/></svg>