<svg id="Background" xmlns="http://www.w3.org/2000/svg" viewBox="0 0 150 150"><defs><style>.cls-1{fill:#fff;}.cls-2{fill:#42434c;}</style></defs><circle class="cls-1" cx="75" cy="75" r="75"/><path class="cls-2" d="M24.67,85.63l2.87,6.16h-.66l-1-2H23.26l-1,2h-.69l2.91-6.16Zm-.08,1.31-1.05,2.23h2.1Z"/><path class="cls-2" d="M28,87.23h.62l1.53,3.32,1.51-3.32h.63l-2.09,4.56h-.11Z"/><path class="cls-2" d="M35.62,85.63H38.7v.6H36.24v1.93H38.7v.61H36.24v3h-.62Z"/><path class="cls-2" d="M39.46,87.23h.6v.67a2.13,2.13,0,0,1,.56-.59,1.12,1.12,0,0,1,.62-.19,1.09,1.09,0,0,1,.52.15l-.31.5a.67.67,0,0,0-.3-.08.85.85,0,0,0-.57.24,1.5,1.5,0,0,0-.41.74,6.75,6.75,0,0,0-.11,1.58v1.54h-.6Z"/><path class="cls-2" d="M46.8,87.23v4.56h-.58V91a2.61,2.61,0,0,1-.83.67,2.23,2.23,0,0,1-1,.23,2.2,2.2,0,0,1-1.65-.71,2.32,2.32,0,0,1-.69-1.7,2.29,2.29,0,0,1,.69-1.68,2.25,2.25,0,0,1,1.67-.7,2.12,2.12,0,0,1,1,.24,2.23,2.23,0,0,1,.8.71v-.84Zm-2.35.45a1.78,1.78,0,0,0-.9.24,1.86,1.86,0,0,0-.9,1.6,1.91,1.91,0,0,0,.24.92,1.82,1.82,0,0,0,.67.68,1.73,1.73,0,0,0,.89.25,1.86,1.86,0,0,0,.91-.25,1.65,1.65,0,0,0,.66-.65,1.95,1.95,0,0,0-.28-2.26A1.76,1.76,0,0,0,44.45,87.68Z"/><path class="cls-2" d="M47.63,87.23h.61l1.57,3.51,1.52-3.51H52l-2.71,6.22h-.62l.87-2Z"/><path class="cls-2" d="M55.18,85.63h.62v5.56h2.37v.6h-3Z"/><path class="cls-2" d="M59,87.23h.59v2.13a4.33,4.33,0,0,0,.08,1.07,1.15,1.15,0,0,0,.48.66,1.41,1.41,0,0,0,.84.25,1.43,1.43,0,0,0,.84-.24,1.31,1.31,0,0,0,.47-.62,4.34,4.34,0,0,0,.09-1.12V87.23H63v2.24a3.69,3.69,0,0,1-.21,1.42,1.68,1.68,0,0,1-.67.75,2.06,2.06,0,0,1-1.1.27,2.14,2.14,0,0,1-1.12-.27,1.75,1.75,0,0,1-.66-.76A3.61,3.61,0,0,1,59,89.43Z"/><path class="cls-2" d="M64.46,85.36a.48.48,0,0,1,.34.14.45.45,0,0,1,.14.34.42.42,0,0,1-.14.34.45.45,0,0,1-.34.15.5.5,0,0,1-.48-.49.48.48,0,0,1,.48-.48Zm-.29,1.87h.59v4.56h-.59Z"/><path class="cls-2" d="M68.26,87.73l-.37.39a1.38,1.38,0,0,0-.92-.45.71.71,0,0,0-.49.18.59.59,0,0,0-.21.44.69.69,0,0,0,.17.43,2.61,2.61,0,0,0,.71.48,2.65,2.65,0,0,1,.89.65,1.21,1.21,0,0,1,.23.72,1.27,1.27,0,0,1-.4,1,1.33,1.33,0,0,1-1,.39,1.67,1.67,0,0,1-.76-.18,1.68,1.68,0,0,1-.59-.47l.37-.42a1.28,1.28,0,0,0,1,.51.85.85,0,0,0,.6-.23.7.7,0,0,0,.09-1,2.81,2.81,0,0,0-.74-.48A2.33,2.33,0,0,1,66,89a1.17,1.17,0,0,1-.22-.71,1.14,1.14,0,0,1,.35-.86,1.25,1.25,0,0,1,.9-.34A1.82,1.82,0,0,1,68.26,87.73Z"/><path class="cls-2" d="M76.22,85.48v6.31h-.58V91a2.58,2.58,0,0,1-.82.67,2.27,2.27,0,0,1-1,.23,2.23,2.23,0,0,1-1.65-.71,2.35,2.35,0,0,1-.68-1.7,2.29,2.29,0,0,1,.69-1.68,2.23,2.23,0,0,1,1.66-.7,2.12,2.12,0,0,1,1,.24,2.15,2.15,0,0,1,.8.71V85.48Zm-2.34,2.2a1.79,1.79,0,0,0-.91.24,1.92,1.92,0,0,0-.9,1.6,1.82,1.82,0,0,0,.25.92,1.73,1.73,0,0,0,.66.68,1.79,1.79,0,0,0,.89.25,1.9,1.9,0,0,0,.92-.25,1.79,1.79,0,0,0,.66-.65,2,2,0,0,0,.23-.94,1.82,1.82,0,0,0-.52-1.32A1.74,1.74,0,0,0,73.88,87.68Z"/><path class="cls-2" d="M81.38,90.28l.5.26a2.91,2.91,0,0,1-.57.77,2.28,2.28,0,0,1-.71.44,2.57,2.57,0,0,1-.9.16A2.21,2.21,0,0,1,78,91.18a2.47,2.47,0,0,1-.62-1.66A2.4,2.4,0,0,1,77.86,88a2.15,2.15,0,0,1,1.8-.86,2.23,2.23,0,0,1,1.86.88A2.5,2.5,0,0,1,82,89.56h-4.1a1.84,1.84,0,0,0,.51,1.3,1.6,1.6,0,0,0,1.21.51,1.74,1.74,0,0,0,.67-.13,1.61,1.61,0,0,0,.56-.32A2.63,2.63,0,0,0,81.38,90.28Zm0-1.23A2,2,0,0,0,81,88.3a1.57,1.57,0,0,0-.59-.45,1.77,1.77,0,0,0-.78-.17,1.64,1.64,0,0,0-1.15.43,1.89,1.89,0,0,0-.53.94Z"/><path class="cls-2" d="M85.59,85.63h.61v5.56h2.37v.6h-3Z"/><path class="cls-2" d="M93.29,90.28l.49.26a2.89,2.89,0,0,1-.56.77,2.22,2.22,0,0,1-.72.44,2.49,2.49,0,0,1-.9.16,2.2,2.2,0,0,1-1.74-.73,2.5,2.5,0,0,1-.1-3.2,2.16,2.16,0,0,1,1.81-.86,2.24,2.24,0,0,1,1.86.88,2.43,2.43,0,0,1,.5,1.56h-4.1a1.84,1.84,0,0,0,.51,1.3,1.62,1.62,0,0,0,1.21.51,1.79,1.79,0,0,0,.68-.13,1.71,1.71,0,0,0,.56-.32A2.9,2.9,0,0,0,93.29,90.28Zm0-1.23A2.18,2.18,0,0,0,93,88.3a1.53,1.53,0,0,0-.6-.45,1.8,1.8,0,0,0-1.93.26,2,2,0,0,0-.53.94Z"/><path class="cls-2" d="M97.18,87.12a2.24,2.24,0,0,1,1.74.76,2.45,2.45,0,0,1,0,3.31,2.39,2.39,0,0,1-3.42,0,2.33,2.33,0,0,1-.67-1.67,2.37,2.37,0,0,1,.63-1.64A2.26,2.26,0,0,1,97.18,87.12Zm0,.57a1.69,1.69,0,0,0-1.26.54,1.81,1.81,0,0,0-.52,1.31,1.86,1.86,0,0,0,.24.92,1.76,1.76,0,0,0,.64.66,1.86,1.86,0,0,0,1.79,0,1.79,1.79,0,0,0,.65-.66,1.86,1.86,0,0,0,.24-.92,1.82,1.82,0,0,0-.53-1.31A1.69,1.69,0,0,0,97.18,87.69Zm.29-2.59h.9l-1.24,1.29h-.57Z"/><path class="cls-2" d="M100.64,87.23h.58v.82a2.53,2.53,0,0,1,.78-.7,1.89,1.89,0,0,1,.93-.23,1.59,1.59,0,0,1,.91.26,1.48,1.48,0,0,1,.58.7,3.54,3.54,0,0,1,.19,1.36v2.35H104V89.62a5.93,5.93,0,0,0-.06-1.06,1.07,1.07,0,0,0-1.15-.9,1.42,1.42,0,0,0-1,.35,1.61,1.61,0,0,0-.55.87,5.62,5.62,0,0,0-.09,1.24v1.67h-.58Z"/><path class="cls-2" d="M108.72,87.06h-.63a2.11,2.11,0,0,1,.66-1.17,1.69,1.69,0,0,1,1.15-.41,1.81,1.81,0,0,1,.89.22,1.55,1.55,0,0,1,.65.59,1.5,1.5,0,0,1,.23.78,1.42,1.42,0,0,1-.79,1.26,1.81,1.81,0,0,1,.72.52A1.71,1.71,0,0,1,112,90a2,2,0,0,1-.28,1,1.82,1.82,0,0,1-.75.73,2.15,2.15,0,0,1-1.07.26,2,2,0,0,1-1.33-.46,2.24,2.24,0,0,1-.69-1.34h.6A1.78,1.78,0,0,0,109,91a1.41,1.41,0,0,0,1,.34,1.46,1.46,0,0,0,1.07-.41,1.27,1.27,0,0,0,.41-.94,1.25,1.25,0,0,0-.2-.67,1.35,1.35,0,0,0-.55-.48,3,3,0,0,0-1.05-.19v-.57a2,2,0,0,0,.77-.15,1.06,1.06,0,0,0,.5-.38.89.89,0,0,0-.16-1.19,1.16,1.16,0,0,0-.81-.3,1.08,1.08,0,0,0-.69.23A1.67,1.67,0,0,0,108.72,87.06Z"/><path class="cls-2" d="M112.61,88.71a5.42,5.42,0,0,1,.26-1.88,2.19,2.19,0,0,1,.74-1,1.77,1.77,0,0,1,1.07-.34,1.8,1.8,0,0,1,1.08.34,2.28,2.28,0,0,1,.77,1,6.25,6.25,0,0,1,0,3.7,2.23,2.23,0,0,1-.76,1,1.79,1.79,0,0,1-1.09.35,1.77,1.77,0,0,1-1.07-.34,2.12,2.12,0,0,1-.73-1A5.16,5.16,0,0,1,112.61,88.71Zm.58,0a4.89,4.89,0,0,0,.19,1.58,1.63,1.63,0,0,0,.55.81,1.28,1.28,0,0,0,.77.28,1.22,1.22,0,0,0,.76-.27,1.61,1.61,0,0,0,.54-.81,4.68,4.68,0,0,0,.23-1.59,4.62,4.62,0,0,0-.2-1.52,1.84,1.84,0,0,0-.57-.87,1.24,1.24,0,0,0-.76-.27,1.27,1.27,0,0,0-.77.27,1.74,1.74,0,0,0-.55.81A4.89,4.89,0,0,0,113.19,88.72Z"/><path class="cls-2" d="M121.3,85.63v.59h-2.18l-.31,1.68a2.57,2.57,0,0,1,.72-.12,1.88,1.88,0,0,1,1.39.56,2,2,0,0,1,.54,1.44,2.24,2.24,0,0,1-.28,1.12,1.94,1.94,0,0,1-.76.77,2.21,2.21,0,0,1-1.1.27,1.84,1.84,0,0,1-1.88-1.64h.63a1.47,1.47,0,0,0,.24.58,1.24,1.24,0,0,0,.45.35,1.39,1.39,0,0,0,1.64-.32,1.61,1.61,0,0,0,.43-1.15,1.37,1.37,0,0,0-.39-1,1.43,1.43,0,0,0-1-.39,3.44,3.44,0,0,0-1.32.33l.57-3.06Z"/><path class="cls-2" d="M123.43,85.63h1.21v6.16H124V86.23h-1Z"/><path class="cls-2" d="M127.83,90.66l.56.27-.85,1.58-.41-.18Z"/><path class="cls-2" d="M45.77,97.06l-.49.37a2.79,2.79,0,0,0-1-.79,2.85,2.85,0,0,0-1.24-.27,2.75,2.75,0,0,0-1.36.35A2.55,2.55,0,0,0,40.4,99a2.51,2.51,0,0,0,.77,1.88,2.67,2.67,0,0,0,1.95.75,2.75,2.75,0,0,0,2.16-1l.49.37a3.08,3.08,0,0,1-1.15.9,3.66,3.66,0,0,1-1.54.32,3.21,3.21,0,0,1-2.55-1.07,3.27,3.27,0,0,1-.78-2.2,3,3,0,0,1,1-2.27,3.24,3.24,0,0,1,2.37-.93,3.57,3.57,0,0,1,1.56.34A3.12,3.12,0,0,1,45.77,97.06Z"/><path class="cls-2" d="M50.74,100.57l.49.25a2.6,2.6,0,0,1-.56.78A2.28,2.28,0,0,1,50,102a2.57,2.57,0,0,1-.9.15,2.17,2.17,0,0,1-1.75-.73,2.43,2.43,0,0,1-.63-1.65,2.39,2.39,0,0,1,.54-1.54A2.16,2.16,0,0,1,49,97.4a2.24,2.24,0,0,1,1.86.89,2.47,2.47,0,0,1,.51,1.56h-4.1a1.89,1.89,0,0,0,.5,1.3,1.65,1.65,0,0,0,1.22.5,1.93,1.93,0,0,0,.67-.12,1.61,1.61,0,0,0,.56-.32A2.63,2.63,0,0,0,50.74,100.57Zm0-1.23a2,2,0,0,0-.34-.75,1.57,1.57,0,0,0-.59-.45A1.77,1.77,0,0,0,49,98a1.64,1.64,0,0,0-1.15.43,1.89,1.89,0,0,0-.53.94Z"/><path class="cls-2" d="M52.48,97.52h.58v.82a2.53,2.53,0,0,1,.78-.7,1.9,1.9,0,0,1,.93-.24,1.67,1.67,0,0,1,.91.26,1.58,1.58,0,0,1,.58.7,3.63,3.63,0,0,1,.19,1.37v2.35h-.59V99.9a5.87,5.87,0,0,0-.06-1.05,1.07,1.07,0,0,0-1.15-.91,1.43,1.43,0,0,0-.95.36,1.61,1.61,0,0,0-.55.87,5.62,5.62,0,0,0-.09,1.24v1.67h-.58Z"/><path class="cls-2" d="M58.22,95.83h.58v1.69h.93V98H58.8v4h-.58V98h-.8v-.51h.8Z"/><path class="cls-2" d="M60.39,97.52H61v.67a2.13,2.13,0,0,1,.56-.59,1.14,1.14,0,0,1,.62-.2,1.11,1.11,0,0,1,.52.16l-.3.49a.94.94,0,0,0-.31-.08.82.82,0,0,0-.57.25,1.45,1.45,0,0,0-.41.74,6.75,6.75,0,0,0-.11,1.58v1.54h-.6Z"/><path class="cls-2" d="M65.35,97.4a2.25,2.25,0,0,1,1.74.77,2.43,2.43,0,0,1,0,3.31,2.2,2.2,0,0,1-1.7.71,2.24,2.24,0,0,1-1.72-.71A2.38,2.38,0,0,1,63,99.81a2.36,2.36,0,0,1,.63-1.64A2.25,2.25,0,0,1,65.35,97.4Zm0,.58a1.69,1.69,0,0,0-1.25.54,1.8,1.8,0,0,0-.53,1.3,1.9,1.9,0,0,0,.24.93,1.69,1.69,0,0,0,.65.65,1.79,1.79,0,0,0,1.79,0,1.69,1.69,0,0,0,.65-.65,2,2,0,0,0,.23-.93,1.79,1.79,0,0,0-.52-1.3A1.69,1.69,0,0,0,65.34,98Z"/><path class="cls-2" d="M70.64,100.93l.52-.31c.37.67.79,1,1.28,1a1.3,1.3,0,0,0,.58-.14,1,1,0,0,0,.41-.39.94.94,0,0,0,.14-.51,1,1,0,0,0-.2-.61,5.54,5.54,0,0,0-1.06-1,6,6,0,0,1-1-.84,1.51,1.51,0,0,1-.32-.94,1.4,1.4,0,0,1,.19-.73,1.45,1.45,0,0,1,.54-.53,1.61,1.61,0,0,1,1.57,0,2.81,2.81,0,0,1,.81.79l-.51.38a2.37,2.37,0,0,0-.59-.6,1,1,0,0,0-.53-.15.85.85,0,0,0-.61.23.72.72,0,0,0-.24.55.86.86,0,0,0,.09.39,1.25,1.25,0,0,0,.3.41c.08.08.35.29.8.62a4.4,4.4,0,0,1,1.09,1.05,1.67,1.67,0,0,1,.3.92,1.58,1.58,0,0,1-.51,1.17,1.7,1.7,0,0,1-1.24.49,1.79,1.79,0,0,1-1-.3A2.61,2.61,0,0,1,70.64,100.93Z"/><path class="cls-2" d="M75.37,97.52H76v2.13a4.38,4.38,0,0,0,.08,1.07,1.15,1.15,0,0,0,.48.66,1.49,1.49,0,0,0,.85.24,1.42,1.42,0,0,0,.83-.23,1.25,1.25,0,0,0,.47-.62,4.34,4.34,0,0,0,.09-1.12V97.52h.6v2.24a3.66,3.66,0,0,1-.22,1.42,1.71,1.71,0,0,1-.67.74,2.4,2.4,0,0,1-2.21,0,1.68,1.68,0,0,1-.67-.75,3.61,3.61,0,0,1-.22-1.45Z"/><path class="cls-2" d="M80.44,97.52H81v.67a2.15,2.15,0,0,1,.57-.59,1.11,1.11,0,0,1,.62-.2,1.15,1.15,0,0,1,.52.16l-.31.49a.83.83,0,0,0-.31-.08.81.81,0,0,0-.56.25,1.54,1.54,0,0,0-.42.74,7.38,7.38,0,0,0-.11,1.58v1.54h-.59Z"/><path class="cls-2" d="M83.82,101l.56.26-.85,1.59-.41-.18Z"/><path class="cls-2" d="M88,95.92h3.9l-3.29,6.31-.51-.26,2.84-5.46H88Z"/><path class="cls-2" d="M95.23,95.76l.51.34-1.67,2.51a2.09,2.09,0,0,1,.63-.11,1.66,1.66,0,0,1,1.24.53,1.78,1.78,0,0,1,.52,1.31,2,2,0,0,1-.25,1,1.9,1.9,0,0,1-.7.68,2,2,0,0,1-1,.25,1.91,1.91,0,0,1-.94-.24,1.8,1.8,0,0,1-.68-.69,1.9,1.9,0,0,1-.25-1,2.39,2.39,0,0,1,.15-.8,5.21,5.21,0,0,1,.55-1ZM94.55,99a1.25,1.25,0,0,0-.91.38,1.22,1.22,0,0,0-.38.92,1.2,1.2,0,0,0,.38.91,1.29,1.29,0,0,0,1.83,0,1.24,1.24,0,0,0,.38-.91,1.3,1.3,0,0,0-1.3-1.3Z"/><path class="cls-2" d="M97.1,99a5.16,5.16,0,0,1,.27-1.88,2.12,2.12,0,0,1,.74-1,1.75,1.75,0,0,1,1.06-.35,1.86,1.86,0,0,1,1.09.35,2.32,2.32,0,0,1,.77,1,5.24,5.24,0,0,1,.28,1.86,5.18,5.18,0,0,1-.28,1.85,2.3,2.3,0,0,1-.77,1,1.86,1.86,0,0,1-1.09.35,1.76,1.76,0,0,1-1.06-.34,2.14,2.14,0,0,1-.74-1A5.2,5.2,0,0,1,97.1,99Zm.59,0a5.25,5.25,0,0,0,.18,1.58,1.8,1.8,0,0,0,.55.81,1.29,1.29,0,0,0,.77.27,1.25,1.25,0,0,0,.77-.27,1.61,1.61,0,0,0,.54-.81,4.84,4.84,0,0,0,.23-1.58,4.6,4.6,0,0,0-.21-1.52,1.71,1.71,0,0,0-.56-.87,1.23,1.23,0,0,0-1.54,0,1.61,1.61,0,0,0-.54.81A4.85,4.85,0,0,0,97.69,99Z"/><path class="cls-2" d="M103.23,102.23l-.51-.33,1.67-2.52a1.86,1.86,0,0,1-.63.11,1.66,1.66,0,0,1-1.25-.53,1.79,1.79,0,0,1-.51-1.3,1.86,1.86,0,0,1,.25-1A1.83,1.83,0,0,1,103,96a1.93,1.93,0,0,1,1.92,0,1.88,1.88,0,0,1,.68.69,2,2,0,0,1,.24,1,2.3,2.3,0,0,1-.15.79,4.85,4.85,0,0,1-.54,1ZM103.9,99a1.22,1.22,0,0,0,.92-.38,1.3,1.3,0,1,0-.92.38Z"/><path class="cls-2" d="M106.61,99a5.19,5.19,0,0,1,.26-1.88,2.12,2.12,0,0,1,.74-1,1.78,1.78,0,0,1,1.07-.35,1.83,1.83,0,0,1,1.08.35,2.32,2.32,0,0,1,.77,1,5,5,0,0,1,.28,1.86,5,5,0,0,1-.28,1.85,2.23,2.23,0,0,1-.77,1,1.83,1.83,0,0,1-1.08.35,1.77,1.77,0,0,1-1.07-.34,2.21,2.21,0,0,1-.74-1A5.46,5.46,0,0,1,106.61,99Zm.58,0a4.89,4.89,0,0,0,.19,1.58,1.65,1.65,0,0,0,.55.81,1.27,1.27,0,0,0,.77.27,1.24,1.24,0,0,0,.76-.27,1.61,1.61,0,0,0,.54-.81,4.58,4.58,0,0,0,.23-1.58,4.91,4.91,0,0,0-.2-1.52,1.79,1.79,0,0,0-.57-.87,1.26,1.26,0,0,0-.76-.27,1.25,1.25,0,0,0-.77.27,1.63,1.63,0,0,0-.55.81A4.85,4.85,0,0,0,107.19,99Z"/><path class="cls-2" d="M49.78,111.22l.52-.32c.37.68.8,1,1.28,1a1.27,1.27,0,0,0,.58-.14,1.13,1.13,0,0,0,.42-.39,1,1,0,0,0,.14-.52,1,1,0,0,0-.21-.6,4.64,4.64,0,0,0-1-1,5.18,5.18,0,0,1-1-.84,1.54,1.54,0,0,1-.33-.94,1.43,1.43,0,0,1,.19-.74,1.38,1.38,0,0,1,.55-.52,1.49,1.49,0,0,1,.75-.19,1.55,1.55,0,0,1,.82.22,2.8,2.8,0,0,1,.8.79l-.5.38a2.45,2.45,0,0,0-.59-.61,1.14,1.14,0,0,0-.54-.14.85.85,0,0,0-.61.22.77.77,0,0,0-.23.56.91.91,0,0,0,.08.39,1.63,1.63,0,0,0,.31.41c.08.08.34.28.79.62a4.47,4.47,0,0,1,1.1,1,1.65,1.65,0,0,1,.3.92,1.54,1.54,0,0,1-.51,1.16,1.71,1.71,0,0,1-1.24.5,1.84,1.84,0,0,1-1-.3A2.79,2.79,0,0,1,49.78,111.22Z"/><path class="cls-2" d="M59.13,107.81v4.55h-.58v-.78a2.65,2.65,0,0,1-.83.68,2.32,2.32,0,0,1-2.65-.48,2.35,2.35,0,0,1-.68-1.71,2.32,2.32,0,0,1,.69-1.68,2.27,2.27,0,0,1,1.66-.7,2.12,2.12,0,0,1,1,.24,2.27,2.27,0,0,1,.8.72v-.84Zm-2.34.45a1.79,1.79,0,0,0-.91.24,1.84,1.84,0,0,0-.66.67,1.89,1.89,0,0,0-.24.92,1.79,1.79,0,0,0,.25.92,1.75,1.75,0,0,0,1.55.93,1.82,1.82,0,0,0,.91-.24,1.7,1.7,0,0,0,.67-.66,1.89,1.89,0,0,0,.23-.93,1.83,1.83,0,0,0-.52-1.32A1.71,1.71,0,0,0,56.79,108.26Z"/><path class="cls-2" d="M60.45,107.81H61v.82a2.57,2.57,0,0,1,.78-.71,2,2,0,0,1,.93-.23,1.67,1.67,0,0,1,.91.26,1.53,1.53,0,0,1,.58.7,3.59,3.59,0,0,1,.19,1.37v2.34h-.59v-2.17a5.87,5.87,0,0,0-.06-1,1.17,1.17,0,0,0-.39-.68,1.21,1.21,0,0,0-.76-.23,1.47,1.47,0,0,0-.95.35,1.69,1.69,0,0,0-.55.87,5.68,5.68,0,0,0-.09,1.24v1.67h-.58Z"/><path class="cls-2" d="M66.19,106.12h.58v1.69h.93v.51h-.93v4h-.58v-4h-.8v-.51h.8Z"/><path class="cls-2" d="M68.78,105.93a.47.47,0,0,1,.35.15.48.48,0,0,1,.14.34.49.49,0,0,1-.14.34.5.5,0,0,1-.35.14.45.45,0,0,1-.33-.14.46.46,0,0,1-.15-.34.45.45,0,0,1,.15-.34A.43.43,0,0,1,68.78,105.93Zm-.29,1.88h.59v4.55h-.59Z"/><path class="cls-2" d="M74.83,107.81v4.55h-.57v-.78a2.65,2.65,0,0,1-.83.68,2.25,2.25,0,0,1-1,.22,2.19,2.19,0,0,1-1.65-.7,2.35,2.35,0,0,1-.69-1.71,2.32,2.32,0,0,1,.69-1.68,2.28,2.28,0,0,1,1.66-.7,2.13,2.13,0,0,1,1,.24,2.36,2.36,0,0,1,.8.72v-.84Zm-2.34.45a1.76,1.76,0,0,0-.9.24,1.7,1.7,0,0,0-.66.67,1.88,1.88,0,0,0,0,1.84,1.85,1.85,0,0,0,.67.69,1.72,1.72,0,0,0,.89.24,1.85,1.85,0,0,0,.91-.24,1.61,1.61,0,0,0,.66-.66,2,2,0,0,0-.29-2.25A1.68,1.68,0,0,0,72.49,108.26Z"/><path class="cls-2" d="M80.08,107.81h.59v3.63a4.27,4.27,0,0,1-.17,1.4,1.87,1.87,0,0,1-.8,1,2.7,2.7,0,0,1-1.37.34,3.12,3.12,0,0,1-1-.17,2.15,2.15,0,0,1-.76-.44,2.53,2.53,0,0,1-.54-.82h.63a1.79,1.79,0,0,0,.67.67,2.26,2.26,0,0,0,1,.22,2.07,2.07,0,0,0,1-.23,1.29,1.29,0,0,0,.59-.56,2.44,2.44,0,0,0,.18-1.09v-.23a2.2,2.2,0,0,1-.81.64,2.36,2.36,0,0,1-1,.22,2.31,2.31,0,0,1-1.18-.31,2.24,2.24,0,0,1-.86-.84,2.31,2.31,0,0,1-.3-1.16,2.37,2.37,0,0,1,2.35-2.36,2.24,2.24,0,0,1,1,.21,2.68,2.68,0,0,1,.85.7Zm-1.73.45a1.83,1.83,0,0,0-.92.24,1.7,1.7,0,0,0-.67.66,1.77,1.77,0,0,0-.25.92,1.65,1.65,0,0,0,.51,1.24,1.75,1.75,0,0,0,1.3.49,1.78,1.78,0,0,0,1.3-.48,1.72,1.72,0,0,0,.49-1.28,1.87,1.87,0,0,0-.23-.92,1.64,1.64,0,0,0-.64-.64A1.82,1.82,0,0,0,78.35,108.26Z"/><path class="cls-2" d="M84.08,107.69a2.27,2.27,0,0,1,1.74.76,2.46,2.46,0,0,1,0,3.32,2.43,2.43,0,0,1-3.43,0,2.38,2.38,0,0,1-.66-1.67,2.36,2.36,0,0,1,.63-1.64A2.25,2.25,0,0,1,84.08,107.69Zm0,.58a1.69,1.69,0,0,0-1.26.54,1.8,1.8,0,0,0-.53,1.3,1.83,1.83,0,0,0,.24.92,1.65,1.65,0,0,0,.65.66,1.86,1.86,0,0,0,1.79,0,1.65,1.65,0,0,0,.65-.66,1.83,1.83,0,0,0,.24-.92,1.8,1.8,0,0,0-.53-1.3A1.69,1.69,0,0,0,84.08,108.27Z"/><path class="cls-2" d="M94.45,106.05v6.31h-.57v-.78a2.65,2.65,0,0,1-.83.68,2.25,2.25,0,0,1-1,.22,2.19,2.19,0,0,1-1.65-.7,2.35,2.35,0,0,1-.69-1.71,2.32,2.32,0,0,1,.69-1.68,2.28,2.28,0,0,1,1.66-.7,2.13,2.13,0,0,1,1,.24,2.36,2.36,0,0,1,.8.72v-2.6Zm-2.34,2.21a1.78,1.78,0,0,0-.9.24,1.7,1.7,0,0,0-.66.67,1.88,1.88,0,0,0,0,1.84,1.85,1.85,0,0,0,.67.69,1.72,1.72,0,0,0,.89.24,1.85,1.85,0,0,0,.91-.24,1.61,1.61,0,0,0,.66-.66,2,2,0,0,0-.29-2.25A1.68,1.68,0,0,0,92.11,108.26Z"/><path class="cls-2" d="M99.62,110.85l.49.26a2.6,2.6,0,0,1-.56.77,2.08,2.08,0,0,1-.72.45,2.5,2.5,0,0,1-.9.15,2.17,2.17,0,0,1-1.74-.73,2.5,2.5,0,0,1-.1-3.2,2.19,2.19,0,0,1,1.81-.86,2.27,2.27,0,0,1,1.86.89,2.4,2.4,0,0,1,.5,1.55h-4.1a1.82,1.82,0,0,0,.51,1.3,1.62,1.62,0,0,0,1.21.51,2,2,0,0,0,.68-.12,1.91,1.91,0,0,0,.56-.32A2.77,2.77,0,0,0,99.62,110.85Zm0-1.22a1.87,1.87,0,0,0-.35-.75,1.62,1.62,0,0,0-.59-.46,1.84,1.84,0,0,0-.77-.17,1.72,1.72,0,0,0-1.16.43,2,2,0,0,0-.53.95Z"/><path class="cls-2" d="M48,122l.91,1.16h-.76l-.63-.8a3.29,3.29,0,0,1-4-.47,3.08,3.08,0,0,1-.94-2.27A3.28,3.28,0,0,1,43,118a3.08,3.08,0,0,1,1.17-1.18,3.23,3.23,0,0,1,4.88,2.8,3.29,3.29,0,0,1-.26,1.31A3.4,3.4,0,0,1,48,122Zm-.38-.48a2.74,2.74,0,0,0,.46-3.26,2.64,2.64,0,0,0-2.27-1.3,2.61,2.61,0,0,0-1.3.35,2.5,2.5,0,0,0-.95,1,2.66,2.66,0,0,0-.35,1.35,2.59,2.59,0,0,0,2.59,2.61,2.59,2.59,0,0,0,1.34-.36l-1.37-1.74h.75Z"/><path class="cls-2" d="M50.16,118.1h.59v2.12a5.08,5.08,0,0,0,.08,1.08,1.28,1.28,0,0,0,.48.66,1.49,1.49,0,0,0,.85.24A1.42,1.42,0,0,0,53,122a1.17,1.17,0,0,0,.47-.62,4.28,4.28,0,0,0,.09-1.12V118.1h.6v2.23a3.66,3.66,0,0,1-.22,1.42,1.72,1.72,0,0,1-.66.75,2.12,2.12,0,0,1-1.11.27,2.1,2.1,0,0,1-1.11-.27,1.68,1.68,0,0,1-.67-.75,3.85,3.85,0,0,1-.22-1.46Z"/><path class="cls-2" d="M59.28,121.14l.5.26a2.74,2.74,0,0,1-.56.77,2.48,2.48,0,0,1-.72.45,2.57,2.57,0,0,1-.9.15,2.15,2.15,0,0,1-1.74-.73,2.47,2.47,0,0,1-.63-1.65,2.41,2.41,0,0,1,.53-1.55,2.19,2.19,0,0,1,1.81-.86,2.26,2.26,0,0,1,1.86.88,2.51,2.51,0,0,1,.5,1.56h-4.1a1.84,1.84,0,0,0,.51,1.3,1.6,1.6,0,0,0,1.21.51,2,2,0,0,0,.68-.12,1.85,1.85,0,0,0,.55-.32A2.72,2.72,0,0,0,59.28,121.14Zm0-1.23a1.86,1.86,0,0,0-.34-.75,1.81,1.81,0,0,0-.59-.45,1.92,1.92,0,0,0-.78-.17,1.66,1.66,0,0,0-1.15.43,2,2,0,0,0-.53.94Z"/><path class="cls-2" d="M60.8,118.1h.6v.66a2,2,0,0,1,.56-.58,1.14,1.14,0,0,1,.62-.2,1,1,0,0,1,.52.16l-.3.49a.94.94,0,0,0-.31-.08.85.85,0,0,0-.57.24,1.49,1.49,0,0,0-.41.75,6.65,6.65,0,0,0-.11,1.57v1.54h-.6Z"/><path class="cls-2" d="M67.43,121.14l.5.26a2.74,2.74,0,0,1-.56.77,2.48,2.48,0,0,1-.72.45,2.57,2.57,0,0,1-.9.15A2.15,2.15,0,0,1,64,122a2.47,2.47,0,0,1-.63-1.65,2.41,2.41,0,0,1,.53-1.55,2.19,2.19,0,0,1,1.81-.86,2.26,2.26,0,0,1,1.86.88,2.51,2.51,0,0,1,.5,1.56H64a1.84,1.84,0,0,0,.51,1.3,1.6,1.6,0,0,0,1.21.51,2,2,0,0,0,.68-.12,1.85,1.85,0,0,0,.55-.32A2.72,2.72,0,0,0,67.43,121.14Zm0-1.23a1.86,1.86,0,0,0-.34-.75,1.81,1.81,0,0,0-.59-.45,1.92,1.92,0,0,0-.78-.17,1.66,1.66,0,0,0-1.15.43,2,2,0,0,0-.53.94ZM66,116h.9l-1.23,1.29h-.58Z"/><path class="cls-2" d="M69.68,116.41h.59v1.69h.93v.5h-.93v4.05h-.59V118.6h-.8v-.5h.8Z"/><path class="cls-2" d="M76.61,118.1v4.55H76v-.78a2.58,2.58,0,0,1-.83.67,2.26,2.26,0,0,1-1,.23,2.19,2.19,0,0,1-1.65-.7,2.35,2.35,0,0,1-.69-1.71,2.3,2.3,0,0,1,.69-1.68,2.25,2.25,0,0,1,1.66-.7,2.13,2.13,0,0,1,1,.24,2.43,2.43,0,0,1,.8.71v-.83Zm-2.34.45a1.76,1.76,0,0,0-.9.24,1.7,1.7,0,0,0-.66.67,1.87,1.87,0,0,0,.66,2.52,1.7,1.7,0,0,0,.9.25,1.85,1.85,0,0,0,.91-.24,1.68,1.68,0,0,0,.66-.66,1.83,1.83,0,0,0,.23-.93,1.79,1.79,0,0,0-.52-1.32A1.68,1.68,0,0,0,74.27,118.55Z"/><path class="cls-2" d="M77.71,118.1h.6v.66a2.08,2.08,0,0,1,.56-.58,1.14,1.14,0,0,1,.62-.2,1,1,0,0,1,.52.16l-.3.49a.94.94,0,0,0-.31-.08.85.85,0,0,0-.57.24,1.49,1.49,0,0,0-.41.75,6.65,6.65,0,0,0-.11,1.57v1.54h-.6Z"/><path class="cls-2" d="M82.67,118a2.24,2.24,0,0,1,1.74.76,2.46,2.46,0,0,1,0,3.32,2.43,2.43,0,0,1-3.43,0,2.4,2.4,0,0,1-.66-1.67,2.36,2.36,0,0,1,.63-1.64A2.25,2.25,0,0,1,82.67,118Zm0,.57a1.69,1.69,0,0,0-1.25.54,1.88,1.88,0,0,0-.29,2.23,1.79,1.79,0,0,0,.65.66,1.86,1.86,0,0,0,1.79,0,1.79,1.79,0,0,0,.65-.66,1.88,1.88,0,0,0-.29-2.23A1.69,1.69,0,0,0,82.66,118.55Z"/><path class="cls-2" d="M86.71,121.52l.56.27-.85,1.58L86,123.2Z"/><path class="cls-2" d="M96.13,122l.91,1.16h-.76l-.62-.8a3.31,3.31,0,0,1-4-.47,3.08,3.08,0,0,1-.94-2.27,3.28,3.28,0,0,1,.43-1.65,3.24,3.24,0,0,1,6,1.62,3.29,3.29,0,0,1-.26,1.31A3.4,3.4,0,0,1,96.13,122Zm-.38-.48a2.74,2.74,0,0,0,.46-3.26,2.64,2.64,0,0,0-2.27-1.3,2.61,2.61,0,0,0-1.3.35,2.57,2.57,0,0,0-1,1,2.66,2.66,0,0,0-.35,1.35,2.53,2.53,0,0,0,.76,1.85,2.49,2.49,0,0,0,1.83.76,2.56,2.56,0,0,0,1.34-.36l-1.37-1.74h.75Z"/><path class="cls-2" d="M98.12,118.1h.6v.66a1.84,1.84,0,0,1,.56-.58,1.14,1.14,0,0,1,.62-.2,1,1,0,0,1,.52.16l-.31.49a.83.83,0,0,0-.31-.08.84.84,0,0,0-.56.24,1.57,1.57,0,0,0-.42.75,7.49,7.49,0,0,0-.1,1.57v1.54h-.6Z"/><path class="cls-2" d="M103.07,118a2.24,2.24,0,0,1,1.75.76,2.45,2.45,0,0,1,0,3.32,2.41,2.41,0,0,1-3.42,0,2.46,2.46,0,0,1,0-3.31A2.28,2.28,0,0,1,103.07,118Zm0,.57a1.67,1.67,0,0,0-1.25.54,1.88,1.88,0,0,0-.29,2.23,1.79,1.79,0,0,0,.65.66,1.71,1.71,0,0,0,.89.23,1.7,1.7,0,0,0,1.54-.89,1.83,1.83,0,0,0,.24-.92,1.81,1.81,0,0,0-.52-1.31A1.71,1.71,0,0,0,103.07,118.55Z"/><path class="cls-2" d="M107.18,121.73a.49.49,0,0,1,.36.15.5.5,0,0,1,.15.37.53.53,0,0,1-.15.37.49.49,0,0,1-.36.15.5.5,0,0,1-.37-.15.53.53,0,0,1-.15-.37.51.51,0,0,1,.52-.52Z"/><path class="cls-2" d="M75.62,74.37H74.41a14.3,14.3,0,0,1-1.49-1.18c-1.81-1.86-3.63-3.72-5.37-5.65-1-1.18-2-2.49-2.93-3.75a42,42,0,0,1-3.89-6.07,46.64,46.64,0,0,1-2.06-4.48A23.54,23.54,0,0,1,57,46a21.25,21.25,0,0,1,.08-3.19A16.09,16.09,0,0,1,58,38.62,17.76,17.76,0,0,1,62.14,32a17.91,17.91,0,0,1,9.55-5.05c.48-.08.94-.19,1.41-.28h3.73a.66.66,0,0,0,.19.09,33.6,33.6,0,0,1,3.64.78,17.33,17.33,0,0,1,5.08,2.64A18.66,18.66,0,0,1,91,36.21,17.6,17.6,0,0,1,93,43.76a23.24,23.24,0,0,1-.26,3.9,21.77,21.77,0,0,1-1.74,6,42.86,42.86,0,0,1-4,7.38c-1,1.5-2.07,3-3.17,4.46C83,66.67,82,67.77,81.06,68.87c-.53.64-1.1,1.25-1.66,1.86A24.1,24.1,0,0,1,75.62,74.37ZM75,36.14a8.52,8.52,0,1,0,8.57,8.66A8.5,8.5,0,0,0,75,36.14Z"/></svg>