<svg id="Background" xmlns="http://www.w3.org/2000/svg" viewBox="0 0 150 150"><defs><style>.cls-1{fill:#fff;}.cls-2,.cls-3{fill:#42434c;}.cls-3{isolation:isolate;font-size:15.89px;font-family:CaviarDreams-Bold, Caviar Dreams;font-weight:700;}</style></defs><circle class="cls-1" cx="75" cy="75" r="75"/><path class="cls-2" d="M95.34,81.92H54.66a3.12,3.12,0,0,1-3.12-3.12h0V43.18a3.12,3.12,0,0,1,3.12-3.12h.06l3.59.08v1.1a5.25,5.25,0,0,0,1.86,4.4,4.81,4.81,0,0,0,6.15.07A4.62,4.62,0,0,0,68.23,42V40.18H81.77v1.4A5,5,0,0,0,91.67,43c0-.06,0-.12,0-.18a4.66,4.66,0,0,0,0-1.18V40.19h3.65a3.12,3.12,0,0,1,3.12,3.11V78.8a3.12,3.12,0,0,1-3.12,3.12ZM55,78.55H95V51.91H55Z"/><path class="cls-2" d="M64.06,34.46a4.09,4.09,0,0,1,1.69,1.08,3,3,0,0,1,.81,2v3.84a3.32,3.32,0,0,1-3,3.14A3.48,3.48,0,0,1,61,43.66a2.73,2.73,0,0,1-1-2c0-1.23-.1-2.46-.1-3.69a3.34,3.34,0,0,1,2.5-3.47s.06,0,.09-.08Z"/><path class="cls-2" d="M87.42,34.46a15.55,15.55,0,0,1,1.43.82,2.5,2.5,0,0,1,1.06,1.92C90,38.46,90,39.72,90,41a3.3,3.3,0,0,1-2.56,3.42,3.35,3.35,0,0,1-3.22-.92,3.29,3.29,0,0,1-.88-2.5,29.18,29.18,0,0,0,0-3.24,3.36,3.36,0,0,1,2.29-3.23l.23-.1Z"/><path class="cls-2" d="M76.8,55.43h5.31V60.1H76.8Z"/><path class="cls-2" d="M59.91,67.79V63.13h5.32v4.66Z"/><path class="cls-2" d="M76.79,63.12h5.32v4.67H76.79Z"/><path class="cls-2" d="M59.91,71h5.32v4.68H59.91Z"/><path class="cls-2" d="M82.12,71v4.67H76.8V71Z"/><path class="cls-2" d="M68.35,55.42h5.22V60.1H68.35Z"/><path class="cls-2" d="M90,55.44v4.67H84.77V55.44Z"/><path class="cls-2" d="M73.59,63.13V67.8H68.36V63.13Z"/><path class="cls-2" d="M90,63.13V67.8H84.77V63.13Z"/><path class="cls-2" d="M68.36,71h5.22v4.67H68.36Z"/><path class="cls-2" d="M90,71v4.67H84.77V71Z"/><text class="cls-3" transform="translate(43.87 100.86)">Sábado</text><path class="cls-2" d="M19.19,105.42v10.46H17.84v-8.69h-1l1.37-1.77Z"/><path class="cls-2" d="M28.53,109.37A37.18,37.18,0,0,0,26,112.45a6.31,6.31,0,0,0-1,3.43H23.68a7.43,7.43,0,0,1,1.09-4.08,34.82,34.82,0,0,1,2.4-3,7.08,7.08,0,0,0,1.5-2.06h-5v-1.35h6.5A6,6,0,0,1,28.53,109.37Z"/><path class="cls-2" d="M33.48,114.34a1,1,0,0,1,0,1.35.93.93,0,0,1-1.33,0,.91.91,0,0,1-.29-.68,1,1,0,0,1,1.62-.67Z"/><path class="cls-2" d="M36.39,105.42a5.41,5.41,0,0,1,4,1.44,5.36,5.36,0,0,1,0,7.58,5.41,5.41,0,0,1-4,1.44h-1V105.42Zm.36,1.38v7.71a3.6,3.6,0,0,0,2.65-1,4,4,0,0,0,0-5.64A3.59,3.59,0,0,0,36.75,106.8Z"/><path class="cls-2" d="M45,106.66a1,1,0,0,1,.28.68A.93.93,0,0,1,45,108a1,1,0,0,1-.68.27.91.91,0,0,1-.66-.27.9.9,0,0,1-.29-.67,1,1,0,0,1,1-1A1,1,0,0,1,45,106.66Zm0,2.49v6.73H43.68v-6.73Z"/><path class="cls-2" d="M52.43,113.57l1.36.49a9.49,9.49,0,0,1-.72.91,3.73,3.73,0,0,1-6.36-2.64,3.72,3.72,0,0,1,6.36-2.63,7.52,7.52,0,0,1,.72.89l-1.36.5a4.45,4.45,0,0,0-.35-.41,2.33,2.33,0,0,0-3.29,0,2.33,2.33,0,0,0,1.64,4,2.29,2.29,0,0,0,1.66-.68Z"/><path class="cls-2" d="M56.81,106.66a.92.92,0,0,1,.29.68.9.9,0,0,1-.29.67.92.92,0,0,1-.67.27.94.94,0,0,1-1-.94,1,1,0,0,1,.28-.68.94.94,0,0,1,.67-.27A.92.92,0,0,1,56.81,106.66Zm0,2.49v6.73H55.47v-6.73Z"/><path class="cls-2" d="M61,114.36a1.87,1.87,0,0,0,1.23.3,2.29,2.29,0,0,0,1.66-.68l.34-.41,1.36.49c-.34.45-.58.76-.72.91a3.73,3.73,0,0,1-5.27,0,3.59,3.59,0,0,1-1.09-2.64,3.56,3.56,0,0,1,1.09-2.63,3.73,3.73,0,0,1,5-.3l.32.3.37.41-.68.68Zm2.26-4.19a2,2,0,0,0-1-.17,2.2,2.2,0,0,0-1.64.68,2.25,2.25,0,0,0-.69,1.65,1.92,1.92,0,0,0,.18,1Z"/><path class="cls-2" d="M67.14,109.15H68.5v.63a1.48,1.48,0,0,1,1.51-1,1.14,1.14,0,0,1,1.25,1.13A1.59,1.59,0,0,1,73,108.79c1,0,1.43.58,1.43,1.74v5.35H73.09v-4.73c0-.67-.27-1-.81-1a.78.78,0,0,0-.57.24c-.16.16-.24.68-.24,1.58v3.91H70.11v-4.73c0-.67-.27-1-.81-1a.8.8,0,0,0-.58.24c-.14.13-.21.49-.23,1.07v4.42H67.14Z"/><path class="cls-2" d="M77.77,115v.84H76.42V105.42h1.35v4.2a3.06,3.06,0,0,1,2.28-1,3.73,3.73,0,0,1,0,7.46A3.06,3.06,0,0,1,77.77,115Zm0-3.23v1A2.16,2.16,0,0,0,78.4,114a2.34,2.34,0,0,0,3.3,0,2.22,2.22,0,0,0,.69-1.65,2.34,2.34,0,0,0-4-1.65A2.14,2.14,0,0,0,77.77,111.81Z"/><path class="cls-2" d="M86.92,110.06A2.44,2.44,0,0,1,88.79,109v1.41a1.7,1.7,0,0,0-1.18.48,2.2,2.2,0,0,0-.69,1.55v3.46H85.57v-6.73h1.35Z"/><path class="cls-2" d="M92.17,114.36a1.89,1.89,0,0,0,1.23.3,2.29,2.29,0,0,0,1.66-.68l.34-.41,1.36.49A9.49,9.49,0,0,1,96,115a3.73,3.73,0,0,1-6.36-2.64,3.74,3.74,0,0,1,3.72-3.73,3.63,3.63,0,0,1,2.32.8c.11.09.21.19.32.3l.37.41-.68.68Zm2.26-4.19a2,2,0,0,0-1-.17,2.2,2.2,0,0,0-1.64.68,2.25,2.25,0,0,0-.69,1.65,1.92,1.92,0,0,0,.18,1Z"/><path class="cls-2" d="M99.14,114.34a1,1,0,0,1,.28.67.94.94,0,0,1-.28.68.94.94,0,0,1-1.34,0,1,1,0,0,1,0-1.35,1,1,0,0,1,1.34,0Z"/><path class="cls-2" d="M102.5,112.58l1.82-1.35a10.55,10.55,0,0,0,1.35-1.21,2.12,2.12,0,0,0,.59-1.44,1.84,1.84,0,0,0-.56-1.35,1.87,1.87,0,0,0-1.35-.55,1.83,1.83,0,0,0-1.34.55,2.7,2.7,0,0,0-.6,1.65l-1.35-.49a3.71,3.71,0,0,1,1-2.13,3.27,3.27,0,0,1,4.64,0,3.18,3.18,0,0,1,1,2.33,3.34,3.34,0,0,1-.93,2.35,10.27,10.27,0,0,1-1.37,1.21l-1.73,1.31a2.24,2.24,0,0,0-.94,1.07h5v1.36h-6.56C101.32,114.21,101.79,113.11,102.5,112.58Z"/><path class="cls-2" d="M116.55,112.33a3.72,3.72,0,1,1-7.43,0v-3.2a3.72,3.72,0,0,1,7.43,0Zm-1.38-3.2a2.33,2.33,0,0,0-4.66,0v3.2a2.21,2.21,0,0,0,.68,1.65,2.33,2.33,0,0,0,3.29,0,2.22,2.22,0,0,0,.69-1.65Z"/><path class="cls-2" d="M119.48,112.58l1.82-1.35a9.82,9.82,0,0,0,1.34-1.21,2.08,2.08,0,0,0,.6-1.44,1.84,1.84,0,0,0-.56-1.35,1.87,1.87,0,0,0-1.35-.55,1.83,1.83,0,0,0-1.34.55,2.7,2.7,0,0,0-.6,1.65l-1.35-.49a3.71,3.71,0,0,1,1-2.13,3.27,3.27,0,0,1,4.64,0,3.18,3.18,0,0,1,1,2.33,3.34,3.34,0,0,1-.93,2.35,10.27,10.27,0,0,1-1.37,1.21l-1.74,1.31a2.21,2.21,0,0,0-.93,1.07h5v1.36h-6.56C118.29,114.21,118.77,113.11,119.48,112.58Z"/><path class="cls-2" d="M128,112.58l1.82-1.35A10.55,10.55,0,0,0,131.2,110a2.12,2.12,0,0,0,.59-1.44,1.91,1.91,0,0,0-3.25-1.35,2.7,2.7,0,0,0-.6,1.65l-1.35-.49a3.71,3.71,0,0,1,1-2.13,3.27,3.27,0,0,1,4.64,0,3.18,3.18,0,0,1,1,2.33,3.34,3.34,0,0,1-.93,2.35,10.27,10.27,0,0,1-1.37,1.21l-1.73,1.31a2.24,2.24,0,0,0-.94,1.07h5v1.36H126.6C126.85,114.21,127.32,113.11,128,112.58Z"/></svg>