<svg id="Background" xmlns="http://www.w3.org/2000/svg" viewBox="0 0 150 150"><defs><style>.cls-1{fill:#fff;}.cls-2{fill:#42434c;}</style></defs><circle class="cls-1" cx="75" cy="75" r="75"/><path class="cls-2" d="M47.37,88.68h1.26l3.83,8.94,3.9-8.94h1.26l-5,11.57h-.25Z"/><path class="cls-2" d="M59.76,88.17a.92.92,0,0,1,.91.91.87.87,0,0,1-.27.64.88.88,0,0,1-1.27,0,.87.87,0,0,1-.27-.64.92.92,0,0,1,.9-.91Zm-.55,3.52h1.1v8.56h-1.1Z"/><path class="cls-2" d="M69.81,97.41l.93.49a5.18,5.18,0,0,1-1.06,1.45,4.35,4.35,0,0,1-1.34.83,4.77,4.77,0,0,1-1.7.29,4.09,4.09,0,0,1-3.27-1.37A4.62,4.62,0,0,1,62.19,96a4.57,4.57,0,0,1,1-2.91,4.07,4.07,0,0,1,3.39-1.62,4.26,4.26,0,0,1,3.5,1.66A4.69,4.69,0,0,1,71,96.06h-7.7a3.48,3.48,0,0,0,.95,2.44,3.05,3.05,0,0,0,2.28,1,3.7,3.7,0,0,0,1.27-.23,3.35,3.35,0,0,0,1.05-.6A5.44,5.44,0,0,0,69.81,97.41Zm0-2.3a3.69,3.69,0,0,0-.64-1.41,3,3,0,0,0-1.12-.85,3.33,3.33,0,0,0-1.45-.32,3.14,3.14,0,0,0-2.17.81,3.59,3.59,0,0,0-1,1.77Z"/><path class="cls-2" d="M72.66,91.69h1.12v1.25a4,4,0,0,1,1.06-1.1A2.07,2.07,0,0,1,76,91.47a2,2,0,0,1,1,.29l-.57.93a1.55,1.55,0,0,0-.58-.15,1.57,1.57,0,0,0-1.07.46A2.75,2.75,0,0,0,74,94.4a13.13,13.13,0,0,0-.21,3v2.89H72.66Z"/><path class="cls-2" d="M77.92,91.69H79v1.54a4.61,4.61,0,0,1,1.46-1.32,3.64,3.64,0,0,1,1.75-.44,3,3,0,0,1,1.7.49A2.93,2.93,0,0,1,85,93.27a6.9,6.9,0,0,1,.35,2.58v4.4h-1.1V96.17a10.31,10.31,0,0,0-.12-2,2.17,2.17,0,0,0-.73-1.27A2.22,2.22,0,0,0,82,92.49a2.72,2.72,0,0,0-1.79.66,3.07,3.07,0,0,0-1,1.63A11.06,11.06,0,0,0,79,97.11v3.14h-1.1Z"/><path class="cls-2" d="M95,97.41l.93.49a5.18,5.18,0,0,1-1.06,1.45,4.35,4.35,0,0,1-1.34.83,4.77,4.77,0,0,1-1.7.29,4.09,4.09,0,0,1-3.27-1.37A4.62,4.62,0,0,1,87.33,96a4.57,4.57,0,0,1,1-2.91,4.07,4.07,0,0,1,3.39-1.62,4.26,4.26,0,0,1,3.5,1.66,4.69,4.69,0,0,1,.94,2.93h-7.7a3.48,3.48,0,0,0,1,2.44,3,3,0,0,0,2.28,1A3.7,3.7,0,0,0,93,99.23a3.35,3.35,0,0,0,1.05-.6A5.44,5.44,0,0,0,95,97.41Zm0-2.3a3.69,3.69,0,0,0-.64-1.41,3,3,0,0,0-1.12-.85,3.34,3.34,0,0,0-1.46-.32,3.13,3.13,0,0,0-2.16.81,3.59,3.59,0,0,0-1,1.77Z"/><path class="cls-2" d="M102.52,92.63l-.71.73a2.57,2.57,0,0,0-1.73-.86,1.3,1.3,0,0,0-.92.36,1.09,1.09,0,0,0-.38.82,1.22,1.22,0,0,0,.31.8,4.69,4.69,0,0,0,1.33.9,5,5,0,0,1,1.67,1.23,2.23,2.23,0,0,1,.43,1.34,2.39,2.39,0,0,1-.74,1.79,2.51,2.51,0,0,1-1.85.73,3.3,3.3,0,0,1-1.41-.32,3.16,3.16,0,0,1-1.12-.89l.7-.79a2.37,2.37,0,0,0,1.78,1A1.61,1.61,0,0,0,101,99a1.3,1.3,0,0,0,.16-1.84,4.77,4.77,0,0,0-1.39-.91,4.35,4.35,0,0,1-1.57-1.18,2.22,2.22,0,0,1-.42-1.33,2.17,2.17,0,0,1,.66-1.62,2.35,2.35,0,0,1,1.69-.65A3.52,3.52,0,0,1,102.52,92.63Z"/><path class="cls-2" d="M27,109.47a10,10,0,0,1,.49-3.54,4.14,4.14,0,0,1,1.39-1.9,3.36,3.36,0,0,1,2-.64,3.46,3.46,0,0,1,2,.65A4.32,4.32,0,0,1,34.4,106a11.66,11.66,0,0,1,0,7A4.19,4.19,0,0,1,33,114.88a3.43,3.43,0,0,1-2,.66,3.37,3.37,0,0,1-2-.63A4.07,4.07,0,0,1,27.53,113,10,10,0,0,1,27,109.47Zm1.09,0a9.59,9.59,0,0,0,.35,3,3.21,3.21,0,0,0,1,1.53,2.38,2.38,0,0,0,1.44.52,2.3,2.3,0,0,0,1.44-.51,3.09,3.09,0,0,0,1-1.53,9,9,0,0,0,.43-3,9.08,9.08,0,0,0-.38-2.86A3.35,3.35,0,0,0,32.39,105a2.25,2.25,0,0,0-2.88,0,3.12,3.12,0,0,0-1,1.52A9.31,9.31,0,0,0,28.12,109.49Z"/><path class="cls-2" d="M38.43,103.68H40.7v11.57H39.55V104.81H37.73Z"/><path class="cls-2" d="M46.81,113.52a1,1,0,0,1,.69.28.94.94,0,0,1,.28.7.93.93,0,0,1-.28.68.94.94,0,0,1-.69.29.92.92,0,0,1-.68-.29.94.94,0,0,1-.29-.68,1,1,0,0,1,1-1Z"/><path class="cls-2" d="M54,103.68h1.16v7.81a7.59,7.59,0,0,1-.28,2.51,2.37,2.37,0,0,1-.93,1.12,2.87,2.87,0,0,1-1.58.42,3.69,3.69,0,0,1-1.38-.27,5.66,5.66,0,0,1-1.51-1l.61-.92a8.76,8.76,0,0,0,1.51.9,1.82,1.82,0,0,0,.77.17,1.42,1.42,0,0,0,.9-.3,1.53,1.53,0,0,0,.57-.79,7.28,7.28,0,0,0,.16-1.92Z"/><path class="cls-2" d="M57.68,106.69h1.1v4a8.79,8.79,0,0,0,.16,2,2.29,2.29,0,0,0,.9,1.25,2.8,2.8,0,0,0,1.59.45A2.68,2.68,0,0,0,63,114a2.28,2.28,0,0,0,.89-1.17,8.19,8.19,0,0,0,.17-2.1v-4h1.12v4.2a6.77,6.77,0,0,1-.41,2.67,3.13,3.13,0,0,1-1.24,1.4,4.52,4.52,0,0,1-4.17,0,3.06,3.06,0,0,1-1.25-1.41,6.85,6.85,0,0,1-.42-2.74Z"/><path class="cls-2" d="M67.45,103.39h1.1v11.86h-1.1Z"/><path class="cls-2" d="M71.22,103.17a.9.9,0,0,1,.91.91.9.9,0,0,1-.26.64.88.88,0,0,1-.65.27.92.92,0,0,1-.9-.91.85.85,0,0,1,.27-.64A.86.86,0,0,1,71.22,103.17Zm-.54,3.52h1.1v8.56h-1.1Z"/><path class="cls-2" d="M78.12,106.47a4.26,4.26,0,0,1,3.28,1.43,4.6,4.6,0,0,1-.07,6.23,4.53,4.53,0,0,1-6.43,0,4.59,4.59,0,0,1-.07-6.22A4.24,4.24,0,0,1,78.12,106.47Zm0,1.08a3.21,3.21,0,0,0-2.36,1,3.44,3.44,0,0,0-1,2.46,3.49,3.49,0,0,0,.45,1.73A3.21,3.21,0,0,0,76.43,114a3.52,3.52,0,0,0,3.37,0A3.21,3.21,0,0,0,81,112.75a3.49,3.49,0,0,0,.45-1.73,3.4,3.4,0,0,0-1-2.46A3.21,3.21,0,0,0,78.11,107.55Z"/><path class="cls-2" d="M85.83,113.52a1,1,0,0,1,1,1,.94.94,0,0,1-.29.68.92.92,0,0,1-.68.29.94.94,0,0,1-.69-.29.93.93,0,0,1-.28-.68.94.94,0,0,1,.28-.7A1,1,0,0,1,85.83,113.52Z"/><path class="cls-2" d="M89.71,107.3H88.6a4,4,0,0,1,1.15-2.81,3.68,3.68,0,0,1,2.71-1.1A3.45,3.45,0,0,1,96,106.85a3.85,3.85,0,0,1-.47,1.85A13,13,0,0,1,93.73,111l-2.88,3.1h5.34v1.12H88.33l4.42-4.78a14.31,14.31,0,0,0,1.75-2.13,2.9,2.9,0,0,0,.4-1.47,2.27,2.27,0,0,0-.72-1.68,2.48,2.48,0,0,0-1.78-.71,2.52,2.52,0,0,0-1.85.74A3.2,3.2,0,0,0,89.71,107.3Z"/><path class="cls-2" d="M97.29,109.47a10,10,0,0,1,.49-3.54,4.14,4.14,0,0,1,1.39-1.9,3.34,3.34,0,0,1,2-.64,3.46,3.46,0,0,1,2,.65,4.24,4.24,0,0,1,1.44,1.95,9.2,9.2,0,0,1,.54,3.48,9.4,9.4,0,0,1-.53,3.47,4.26,4.26,0,0,1-1.44,1.94,3.43,3.43,0,0,1-2,.66,3.34,3.34,0,0,1-2-.63A4.07,4.07,0,0,1,97.79,113,9.72,9.72,0,0,1,97.29,109.47Zm1.09,0a9.59,9.59,0,0,0,.35,3,3.14,3.14,0,0,0,1,1.53,2.36,2.36,0,0,0,1.44.52,2.3,2.3,0,0,0,1.44-.51,3.09,3.09,0,0,0,1-1.53,9,9,0,0,0,.43-3,8.77,8.77,0,0,0-.39-2.86,3.27,3.27,0,0,0-1.06-1.63,2.25,2.25,0,0,0-2.88,0,3.05,3.05,0,0,0-1,1.52A9.31,9.31,0,0,0,98.38,109.49Z"/><path class="cls-2" d="M107.57,107.3h-1.11a4,4,0,0,1,1.14-2.81,3.71,3.71,0,0,1,2.71-1.1,3.45,3.45,0,0,1,3.58,3.46,3.75,3.75,0,0,1-.48,1.85,13.33,13.33,0,0,1-1.82,2.33l-2.89,3.1H114v1.12h-7.86l4.42-4.78a13.68,13.68,0,0,0,1.75-2.13,2.82,2.82,0,0,0,.41-1.47,2.24,2.24,0,0,0-.73-1.68,2.46,2.46,0,0,0-1.78-.71,2.49,2.49,0,0,0-1.84.74A3.2,3.2,0,0,0,107.57,107.3Z"/><path class="cls-2" d="M116.5,107.3h-1.11a4,4,0,0,1,1.14-2.81,3.7,3.7,0,0,1,2.71-1.1,3.44,3.44,0,0,1,3.57,3.46,3.74,3.74,0,0,1-.47,1.85,13,13,0,0,1-1.83,2.33l-2.88,3.1H123v1.12h-7.86l4.42-4.78a14.31,14.31,0,0,0,1.75-2.13,2.92,2.92,0,0,0,.41-1.47,2.24,2.24,0,0,0-.73-1.68,2.46,2.46,0,0,0-1.78-.71,2.52,2.52,0,0,0-1.85.74A3.14,3.14,0,0,0,116.5,107.3Z"/><path class="cls-2" d="M95.34,81.92H54.66a3.12,3.12,0,0,1-3.12-3.12V43.18a3.12,3.12,0,0,1,3.18-3.12l3.59.08c0,.39,0,.74,0,1.1a5.28,5.28,0,0,0,1.86,4.4,4.81,4.81,0,0,0,6.15.07A4.65,4.65,0,0,0,68.23,42c0-.61,0-1.22,0-1.82H81.77c0,.48,0,.94,0,1.4a5,5,0,0,0,8.42,3.81,4.93,4.93,0,0,0,1.51-3.74c0-.49,0-1,0-1.46h3.65a3.12,3.12,0,0,1,3.12,3.11V78.8A3.12,3.12,0,0,1,95.34,81.92ZM55,78.55H95V51.91H55Z"/><path class="cls-2" d="M64.06,34.46a4.09,4.09,0,0,1,1.69,1.08,3,3,0,0,1,.81,2c0,1.28,0,2.56,0,3.84a3.32,3.32,0,0,1-3,3.14A3.44,3.44,0,0,1,61,43.66a2.73,2.73,0,0,1-1-2c-.05-1.23-.1-2.46-.1-3.69a3.34,3.34,0,0,1,2.5-3.47s.06,0,.09-.08Z"/><path class="cls-2" d="M87.42,34.46c.48.27,1,.51,1.43.82a2.52,2.52,0,0,1,1.06,1.92C90,38.46,90,39.72,90,41a3.29,3.29,0,0,1-2.56,3.42,3.33,3.33,0,0,1-3.22-.92A3.28,3.28,0,0,1,83.34,41a31.82,31.82,0,0,0,0-3.24,3.36,3.36,0,0,1,2.29-3.23l.23-.1Z"/><path class="cls-2" d="M76.8,55.43h5.31V60.1H76.8Z"/><path class="cls-2" d="M59.91,67.79V63.13h5.32v4.66Z"/><path class="cls-2" d="M76.79,63.12h5.32v4.67H76.79Z"/><path class="cls-2" d="M59.91,71h5.32v4.68H59.91Z"/><path class="cls-2" d="M82.12,71v4.67H76.8V71Z"/><path class="cls-2" d="M68.35,55.42h5.22V60.1H68.35Z"/><path class="cls-2" d="M90,55.44v4.67H84.77V55.44Z"/><path class="cls-2" d="M73.59,63.13V67.8H68.36V63.13Z"/><path class="cls-2" d="M90,63.13V67.8H84.77V63.13Z"/><path class="cls-2" d="M68.36,71h5.22v4.67H68.36Z"/><path class="cls-2" d="M90,71v4.67H84.77V71Z"/></svg>