<svg id="Background" xmlns="http://www.w3.org/2000/svg" viewBox="0 0 150 150"><defs><style>.cls-1{fill:#fff;}.cls-2,.cls-3{fill:#42434c;}.cls-3{font-size:15.89px;font-family:CaviarDreams-Bold, Caviar Dreams;font-weight:700;}.cls-4{letter-spacing:-0.04em;}.cls-5{letter-spacing:0em;}</style></defs><circle class="cls-1" cx="75" cy="75" r="75"/><path class="cls-2" d="M95.34,81.92H54.66a3.12,3.12,0,0,1-3.12-3.12h0V43.18a3.12,3.12,0,0,1,3.12-3.12h.06l3.59.08v1.1a5.26,5.26,0,0,0,1.86,4.4,4.81,4.81,0,0,0,6.15.07A4.63,4.63,0,0,0,68.23,42V40.18H81.77v1.4a5,5,0,1,0,9.93.07V40.19h3.65a3.12,3.12,0,0,1,3.12,3.11V78.8a3.12,3.12,0,0,1-3.12,3.12ZM55,78.55H95V51.91H55Z"/><path class="cls-2" d="M64.06,34.46a4.09,4.09,0,0,1,1.69,1.08,3,3,0,0,1,.81,2v3.84a3.32,3.32,0,0,1-3,3.14A3.48,3.48,0,0,1,61,43.66a2.73,2.73,0,0,1-1-2c0-1.23-.1-2.46-.1-3.69a3.34,3.34,0,0,1,2.5-3.47s.06,0,.09-.08Z"/><path class="cls-2" d="M87.42,34.46a15.21,15.21,0,0,1,1.43.82,2.5,2.5,0,0,1,1.06,1.92C90,38.46,90,39.72,90,41a3.3,3.3,0,0,1-2.56,3.42,3.35,3.35,0,0,1-3.22-.92,3.29,3.29,0,0,1-.88-2.5,29.18,29.18,0,0,0,0-3.24,3.36,3.36,0,0,1,2.29-3.23l.23-.1Z"/><path class="cls-2" d="M76.8,55.43h5.31V60.1H76.8Z"/><path class="cls-2" d="M59.91,67.79V63.13h5.32v4.66Z"/><path class="cls-2" d="M76.79,63.12h5.32v4.67H76.79Z"/><path class="cls-2" d="M59.91,71h5.32v4.68H59.91Z"/><path class="cls-2" d="M82.12,71v4.67H76.8V71Z"/><path class="cls-2" d="M68.35,55.42h5.22V60.1H68.35Z"/><path class="cls-2" d="M90,55.44v4.67H84.77V55.44Z"/><path class="cls-2" d="M73.59,63.13V67.8H68.36V63.13Z"/><path class="cls-2" d="M90,63.13V67.8H84.77V63.13Z"/><path class="cls-2" d="M68.36,71h5.22v4.67H68.36Z"/><path class="cls-2" d="M90,71v4.67H84.77V71Z"/><text class="cls-3" transform="translate(43.87 100.86)">Sábado<tspan x="-20.54" y="19.07">17.Juli</tspan><tspan class="cls-4" x="28.88" y="19.07">o</tspan><tspan class="cls-5" x="38.54" y="19.07">.2022</tspan></text></svg>