<svg id="Background" xmlns="http://www.w3.org/2000/svg" viewBox="0 0 120 85"><defs><style>.cls-1{fill:#9973a2;}</style></defs><path class="cls-1" d="M107,69.41c-1.73-.46-3.06-.87-4.42-1.17A2.9,2.9,0,0,0,99,69.81c-.72,1.62.21,2.76,1.53,3.59,1.06.67,2.16,1.27,4,2.34-2.61.65-4.39,1.05-6.14,1.53a15,15,0,0,0-2.83,1c-1.56.78-2.55,2-1.8,3.83.67,1.65,2.11,1.71,3.64,1.45,4.52-.76,9-1.53,13.58-2.24s5.57-2.52,4.39-6.87c-1.35-5-2.51-10-3.74-15-.21-.84-.29-1.71-.57-2.52a2.93,2.93,0,0,0-3.73-2.08,2.8,2.8,0,0,0-2.24,3.24c.29,2.57.86,5.1,1.31,7.65C106.6,66.8,106.78,67.89,107,69.41Z"/><path class="cls-1" d="M74.1,15.53c-.21-.49-.35-1.65-1-2.24-2.66-2.38-5.44-4.64-8.27-6.82a2.87,2.87,0,0,0-4.24.25C59.49,8,60,9.63,61.72,11.11c2.52,2.13,5,4.35,7.61,6.32C71.42,19,73.69,18.17,74.1,15.53Z"/><path class="cls-1" d="M8.38,46.08c-.14,1.71-.59,3.46-.33,5.1a4,4,0,0,0,2.19,2.7,2.38,2.38,0,0,0,3.11-2.14,76.5,76.5,0,0,0,1.1-8.92,2.83,2.83,0,0,0-2.77-3.21c-2-.07-2.68,1.31-2.87,3.06-.13,1.14-.33,2.27-.49,3.4Z"/><path class="cls-1" d="M10.92,62c.34-2.79-.55-4.59-2.09-4.86-1.95-.34-2.8.9-3.38,2.54C4.69,61.86,3.85,64,3,66.13c-.63,1.66-.52,3.19,1.24,4S7.39,70,8.14,68.47C9.28,66.17,10.19,63.76,10.92,62Z"/><path class="cls-1" d="M86.21,53.24a2.66,2.66,0,0,0,3.21-2.89,52.15,52.15,0,0,0-1.63-8.86,3.14,3.14,0,0,0-2.54-1.7,3.22,3.22,0,0,0-2.39,2,17,17,0,0,0,2.21,10.71C85.33,52.9,86,53.09,86.21,53.24Z"/><path class="cls-1" d="M14.06,32.36a7.39,7.39,0,0,0,2.16-1.59,55.87,55.87,0,0,0,3.58-5.88c.8-1.46,1.18-3-.46-4.24s-3.14-.44-4.09.93a39.64,39.64,0,0,0-3.85,6.68C10.56,30.22,11.64,32,14.06,32.36Z"/><path class="cls-1" d="M81,21.85c-1.92-.41-3.63,1.07-3,3a52,52,0,0,0,3.58,8.3,2.89,2.89,0,0,0,2.57.89,3.42,3.42,0,0,0,2-2c.76-2.11-2.32-8.93-4.31-9.95A5.53,5.53,0,0,0,81,21.85Z"/><path class="cls-1" d="M91.52,58.59c-1.9-.2-3.66,1.67-2.66,3.29a33,33,0,0,0,6,7.18c1.49,1.34,3.91-.33,3.87-2.36C98.66,64.85,93.28,58.77,91.52,58.59Z"/><path class="cls-1" d="M33.79,10.85c.15-2.1-1.1-3.38-3.06-3.08a12.34,12.34,0,0,0-8.4,4.75,3.24,3.24,0,0,0,.11,3.08,3.19,3.19,0,0,0,2.92.84,54,54,0,0,0,7.19-3.85C33.2,12.2,33.51,11.26,33.79,10.85Z"/><path class="cls-1" d="M48,2.23a36.08,36.08,0,0,0-4.69.53c-1.54.35-2.63,1.65-2,3.19A4.16,4.16,0,0,0,44,8a23.33,23.33,0,0,0,5.54,0c1.7-.11,3.13-.78,3.19-2.77s-1.41-2.58-3.1-2.78Z"/></svg>