<svg id="Background" xmlns="http://www.w3.org/2000/svg" viewBox="0 0 150 85"><defs><style>.cls-1{fill:#9973a2;}</style></defs><path class="cls-1" d="M138.33,29.39c-.76,2.06-1.15,3.11-1.55,4.16-1.12,3-2.3,4-4.14,3.48s-2.32-2.14-1.53-5.12c.36-1.36.7-2.72,1.3-5.06-2.1,1.51-3.36,2.45-4.66,3.33-.83.57-1.71,1.44-2.6,1.48a5.24,5.24,0,0,1-3.43-1c-1.12-1-.59-2.41.32-3.52a5.73,5.73,0,0,1,1-.88c3.51-2.59,7-5.25,10.55-7.76,2.67-1.87,4-1.65,5.72,1.16,2.9,4.7,5.63,9.5,8.4,14.28,1,1.66,1.26,3.35-.6,4.61-1.49,1-3.39.32-4.7-1.8S140,32.43,138.33,29.39Z"/><path class="cls-1" d="M54.74,62c-.22.38-.47.62-.5.87-.15,1.72-.66,3.28-2.61,3.46-2.13.19-3-1.41-3.56-3.15-.81-2.48-1.61-5-2.36-7.45a3.51,3.51,0,0,1-.25-2.12c.49-1.08,1.18-2.59,2.08-2.83s2.3.77,3,1.63,1,2.33,1.59,3.8c1.9-.31,3.71-.68,5.52-.89,1.53-.17,3,.1,3.44,1.88a2.74,2.74,0,0,1-2,3.41C57.8,61.12,56.4,61.48,54.74,62Z"/><path class="cls-1" d="M7.42,22.37a52,52,0,0,1,0,5.26C7.15,30,6,31.19,4.23,31c-2-.21-2.66-1.65-2.66-3.38,0-3.34.1-6.68.27-10a6,6,0,0,1,.79-2.45c.68-1.27,1.9-2.11,3.23-1.43a3.88,3.88,0,0,1,1.79,2.58A40.25,40.25,0,0,1,7.42,22.37Z"/><path class="cls-1" d="M34.59,61.14c-2.76-.88-5.55-1.64-8.24-2.69a2.78,2.78,0,0,1-1.76-3.91c.8-1.86,2.37-1.71,4.09-1.27,2.52.65,5.09,1.15,7.65,1.57,1.82.3,3.58.57,3.75,2.86.12,1.77-1.42,2.86-4,3-.43,0-.87,0-1.31,0Z"/><path class="cls-1" d="M63.18,9.53c-1.62.15-3.49.35-5.37.49-1.54.11-3-.15-3.43-1.92a2.69,2.69,0,0,1,2.36-3.52,55.36,55.36,0,0,1,9.88-.48,3.06,3.06,0,0,1,2.81,3.69c-.59,1.89-2.06,2.23-3.82,2C64.89,9.65,64.17,9.62,63.18,9.53Z"/><path class="cls-1" d="M9.9,35.23a11.55,11.55,0,0,1,2.22,2.25c1.41,2.37,2.6,4.87,3.84,7.34.32.64.8,1.42.67,2a4.87,4.87,0,0,1-1.41,2.85,2.84,2.84,0,0,1-2.71-.39,19.27,19.27,0,0,1-5.71-11C6.52,36.7,7.38,35.47,9.9,35.23Z"/><path class="cls-1" d="M128,45.57a8.56,8.56,0,0,1-.77,2.36c-1.81,2.46-3.66,4.89-5.61,7.24a2.48,2.48,0,0,1-3.53.56,2.57,2.57,0,0,1-.81-3.82,83.56,83.56,0,0,1,5.79-7.66,3.76,3.76,0,0,1,3.12-.71C126.91,43.7,127.42,44.9,128,45.57Z"/><path class="cls-1" d="M82.75,18.39c-.13,2-2.66,3.42-4.14,2a44.8,44.8,0,0,1-5.89-7.45c-.41-.63.07-2.45.74-3s2.59-.69,3.05-.18c2.22,2.46,4.13,5.19,6.12,7.85C82.78,17.75,82.72,18.11,82.75,18.39Z"/><path class="cls-1" d="M76.84,47.79A8.84,8.84,0,0,1,75.43,50c-1.49,1.38-3.13,2.6-4.74,3.84-1.16.88-2.65,1.19-3.5,0-.62-.89-1-3-.48-3.45a34.34,34.34,0,0,1,7.11-5.5C75.36,43.93,77,45.57,76.84,47.79Z"/><path class="cls-1" d="M66.57,78.26c-.2,2.09-1.35,2.75-3,2.69-2.26-.07-6.86-4.12-7.26-6.35-.37-2.06,1.75-4.06,3.48-3a47.28,47.28,0,0,1,6.35,5.26C66.48,77.2,66.48,77.94,66.57,78.26Z"/><path class="cls-1" d="M40.7,33.68c.11-1.22-.08-2.38.36-3.21s1.49-2,2.32-2A3.18,3.18,0,0,1,46,30.14a33.73,33.73,0,0,1,.58,7.77,3.15,3.15,0,0,1-2.21,2.18,4,4,0,0,1-2.93-1.9C40.76,36.8,40.88,35.07,40.7,33.68Z"/><path class="cls-1" d="M44.75,20.55c-.64-.81-1.62-1.54-1.9-2.48-.81-2.69,2.77-7.48,5.61-7.76,2.11-.21,3.86,1.87,2.81,3.66a43.39,43.39,0,0,1-4.49,5.77C46.46,20.12,45.76,20.17,44.75,20.55Z"/><path class="cls-1" d="M104.52,71.61c-.4.56-.79,1.62-1.55,2.09a19,19,0,0,1-5.1,2.35c-.86.23-2.6-.38-2.89-1.06-.4-1-.25-2.94.42-3.4a20.54,20.54,0,0,1,6.2-2.89C103.23,68.25,104.24,69.51,104.52,71.61Z"/><path class="cls-1" d="M84,80.06c-1.56,0-2.29,0-3,0-1.65-.1-3-1-2.74-2.62a3.86,3.86,0,0,1,2.26-2.59A18,18,0,0,1,86,74.42a2.45,2.45,0,0,1,2.58,2.41,2.74,2.74,0,0,1-2.48,3A14.14,14.14,0,0,1,84,80.06Z"/><path class="cls-1" d="M84.48,28.41c-.68,2.18-1,4.1-1.89,5.68a4,4,0,0,1-3,1.69c-1.61-.1-2.41-1.62-2.15-3.19a31.3,31.3,0,0,1,1.44-5c.54-1.58,1.81-2.49,3.34-1.81C83.15,26.24,83.74,27.53,84.48,28.41Z"/><path class="cls-1" d="M111.48,60.43a2.32,2.32,0,0,1,2.14,3.35,13.37,13.37,0,0,1-4,4.35c-1.47,1-3.55-.49-3.62-2.35C106,63.63,109.32,60.33,111.48,60.43Z"/></svg>