<?xml version="1.0" encoding="utf-8"?>
<!-- Generator: Adobe Illustrator 23.0.1, SVG Export Plug-In . SVG Version: 6.00 Build 0)  -->
<svg version="1.1" id="Capa_1" xmlns="http://www.w3.org/2000/svg" xmlns:xlink="http://www.w3.org/1999/xlink" x="0px" y="0px"
	 viewBox="0 0 283.46 283.46" style="enable-background:new 0 0 283.46 283.46;" xml:space="preserve">
<style type="text/css">
	.st0{fill:#A47B8B;stroke:#524E50;stroke-width:2.7972;stroke-miterlimit:10;}
	.st1{fill:#E2B8AF;stroke:#524E50;stroke-width:1.3986;stroke-miterlimit:10;}
	.st2{fill:#88B091;}
	.st3{fill:#524E50;}
	.st4{fill:#E27A96;stroke:#524E50;stroke-width:2.7972;stroke-miterlimit:10;}
</style>
<g>
	<g>
		<path class="st0" d="M180.3,49.29c6.41-0.26,12.44,3.24,17.89,8.19c1.5,1.36,2.68,3.93,5.24,2.87c2.53-1.04,2.7-3.64,2.9-6.08
			c0.5-6.22,1.23-12.46,6.22-16.96c4.55-4.11,9.84-6,15.89-3.54c7.44,3.03,11.66,8.57,12.76,16.6c0.54,3.95-1.99,8.94,1.46,11.67
			c4.22,3.34,7.13-2.18,10.56-3.63c11.71-4.95,20.81,4.66,24.4,13.56c5.41,13.39-0.2,23.26-12.24,25.95
			c-10.58,2.37-16.18,7.8-16.16,19.4c0.01,4.82-1.85,10.1-5.25,14.54c-6.51,8.5-15.29,9.32-23.07,1.97
			c-5.41-5.11-7.67-11.76-10.27-18.35c-2.6-6.58-4.5-6.77-8.99-1c-1.42,1.82-2.6,3.83-3.75,5.84c-3.72,6.5-8.88,11.13-16.73,9.71
			c-7.73-1.41-12.9-6.8-15.72-13.99c-3.95-10.06-2.9-13.69,5.05-20.57c9.71-8.4,9.63-9.41-1.22-15.81
			c-6.27-3.7-9.58-11.04-7.92-17.57C163.23,54.69,170.68,49.29,180.3,49.29z"/>
		<path class="st1" d="M216.05,71.16c10.94,0.14,19.21,3.68,23.99,13.26c2.28,4.58,0.63,8.51-2.84,11.54
			c-8.93,7.78-27.16,4.14-32.43-6.6c-2.26-4.61-4.56-9.46-1.03-14.85C207.22,69.2,212.46,72.28,216.05,71.16z"/>
	</g>
	<g>
		<path class="st2" d="M46.5,153.47c-17.3-3.42-30.52-12.24-37.51-28.92c-2.51-6.01-4.04-12.35-4.23-18.95
			C4.53,97.51,4.57,89.45,6.7,81.56c0.56-2.08,0.93-3.47,3.89-2.29c10.96,4.34,22.4,4.75,34.02,3.58
			c11.99-1.2,23.93-3.25,36.03-3.04c8.48,0.15,16.75,1.46,24.07,6.33c7.34,4.89,11.05,12.08,13.45,20.24
			c0.81,2.77,0.99,5.62,1.56,8.42c0.3,1.45,0.87,2.45,2.01,3.22c10.26,7.02,18.01,16.34,24.45,26.81c0.91,1.49,2.97,3.76,0.66,5.42
			c-2.44,1.75-3.5-1.1-4.63-2.5c-5.7-7.05-10.84-14.58-17.78-20.55c-1.68-1.44-3.71-4.04-5.19-3.79c-2.12,0.36-1.27,3.72-2.04,5.69
			c-2.75,7.01-7.24,12.68-13.45,16.81c-8.7,5.8-18.4,8.84-28.86,9.38c-0.57,0.29-1.2,0.11-1.79,0.18
			c-4.14,0.5-17.23-0.61-19.21-0.88C51.66,154.65,48.57,153.85,46.5,153.47z"/>
		<path class="st3" d="M146.18,144.83c-6.44-10.47-14.2-19.79-24.45-26.81c-1.13-0.77-1.71-1.77-2.01-3.22
			c-0.57-2.79-0.75-5.64-1.56-8.42c-2.4-8.17-6.11-15.36-13.45-20.24c-7.32-4.87-15.59-6.18-24.07-6.33
			c-12.09-0.21-24.03,1.84-36.03,3.04c-11.62,1.17-23.06,0.76-34.02-3.58c-2.96-1.17-3.33,0.21-3.89,2.29
			c-2.13,7.9-2.18,15.95-1.94,24.04c0.19,6.6,1.72,12.94,4.23,18.95c6.98,16.69,20.21,25.5,37.51,28.92
			c2.08,0.38,5.16,1.18,7.39,1.12c1.98,0.27,15.07,1.38,19.21,0.88c0.6-0.07,1.22,0.11,1.79-0.18c10.46-0.54,20.16-3.58,28.86-9.38
			c6.2-4.13,10.7-9.8,13.45-16.81c0.77-1.97-0.08-5.33,2.04-5.69c1.47-0.25,3.51,2.34,5.19,3.79c6.95,5.96,12.09,13.49,17.78,20.55
			c1.13,1.4,2.19,4.25,4.63,2.5C149.15,148.59,147.09,146.31,146.18,144.83z M90.23,85.39c1.84,0.23,2.98,1.11,3.87,2.52
			c3.5,5.61,5.31,11.8,6.1,18.32c0.15,1.23,0.41,2.45-1.76,1.98c-7.89-1.7-15.87-2.77-23.95-2.5c-2.14,0.07-3.01-0.26-2.96-2.75
			c0.12-6.07-1.33-11.84-4.51-17.35C74.98,84.24,82.59,84.42,90.23,85.39z M42.64,87.67c6.42-0.32,12.85-0.8,19.19-1.98
			c0.72-0.13,1.16-0.19,1.64,0.74c2.7,5.29,4.77,10.75,5.06,16.75c0.06,1.17,0.43,2.48-1.63,2.48c-9.11,0.03-18.17-0.35-27.21-2.14
			c0.95-4.05,0.98-7.99-0.03-11.92C39,89.04,39.56,87.82,42.64,87.67z M25.58,87.84c2.52,0.31,5.09,0.38,7.63,0.29
			c1.79-0.06,2.82,0.31,3.08,2.26c0.36,2.71,1.18,9.56,1.12,10.27c-0.15,1.67-0.58,2.58-2.7,1.87c-2.87-0.96-5.63-2.16-8.47-3.13
			c-3.59-1.22-4.59-3.69-5-7.05C20.6,87.11,20.46,87.21,25.58,87.84z M13.59,84.98c3.99,2.18,4.83,3.47,5.05,6.82
			c0.04,0.56,0.56,1.19-0.14,1.64c-0.74,0.47-1.01-0.25-1.43-0.64c-2.6-2.46-4.72-5.23-6.35-9.3
			C12.17,84.27,12.94,84.63,13.59,84.98z M9.32,87.85c2.16,4.06,4.7,7.12,7.8,10c-2.04,1.59-4.28,2.25-6.46,3.03
			c-1.04,0.37-2.14,0.59-2.24-1.01C8.19,96.02,8.36,92.18,9.32,87.85z M10.06,113.5c-0.02-0.1-0.03-0.2-0.03-0.31
			c0.04-2.75-2.24-5.99-0.64-8c2.03-2.54,6.07-2.88,8.86-4.93c0.58-0.43,1.49-0.38,2.06,0.08c4.26,3.42,9.46,5.02,14.6,7.31
			c-4.6,4.9-9.94,8.22-15.73,10.88c-0.18,0.08-0.41,0.05-0.6,0.12C11.82,121.11,11.15,120.7,10.06,113.5z M28.61,141.81
			c-6.55-4.42-11.36-10.28-14.82-17.42c6.47-2.45,12.78-5.12,18.2-9.46c0.71-0.57,8.4-6.5,12.94-5.53
			c6.51,1.39,13.18,1.56,19.83,1.66c0.37,0.01,0.74,0.1,1.42,0.21c-3.71,6.27-8.59,11.16-13.59,15.95
			c-5.99,5.73-12.73,10.43-19.82,14.67C31.24,142.81,30.09,142.81,28.61,141.81z M52.33,149.94c-6.09-0.63-11.82-2.51-17.79-5.01
			c9.86-5.85,18.6-12.47,26.14-20.57c3.28-3.52,6.56-7.06,8.84-11.35c0.77-1.44,1.71-1.86,3.35-1.91
			c7.81-0.25,15.48,0.83,23.14,2.06c3.71,0.6,4.03,1.28,1.97,4.6c-3.3,5.3-21.84,26.73-25.46,27.75
			C66.56,150.51,59.75,151.62,52.33,149.94z M114.2,122.75c-4.27,14.62-14.69,22.38-28.75,26.17c-1.57,0.42-3.17,0.73-4.75,1.09
			c-2.98,0.09-5.92,1.25-8.98,0.39c0.67-1.51,27.48-28.03,30.37-34.47c0.41-0.92,0.78-1.03,1.57-0.67c3.13,1.4,6.27,2.77,9.39,4.19
			C114.57,120.14,114.7,121.04,114.2,122.75z M104.56,109.71c-0.91-0.36-1.16-0.96-1.18-1.88c-0.17-6.79-1.79-13.22-5.18-19.31
			c7.88,1.28,16.7,15.08,17.29,25.59C111.81,112.62,108.2,111.14,104.56,109.71z"/>
	</g>
	<g>
		<path class="st4" d="M79.53,183.46c3.79-0.15,7.36,1.92,10.57,4.84c0.89,0.81,1.58,2.32,3.09,1.7c1.5-0.61,1.6-2.15,1.71-3.59
			c0.29-3.68,0.73-7.36,3.68-10.02c2.69-2.43,5.82-3.55,9.39-2.09c4.4,1.79,6.89,5.06,7.54,9.81c0.32,2.33-1.18,5.28,0.86,6.9
			c2.49,1.98,4.21-1.29,6.24-2.15c6.92-2.92,12.3,2.76,14.42,8.02c3.19,7.92-0.12,13.75-7.24,15.34c-6.25,1.4-9.57,4.61-9.55,11.46
			c0.01,2.85-1.09,5.97-3.1,8.59c-3.85,5.02-9.04,5.51-13.64,1.17c-3.2-3.02-4.53-6.95-6.07-10.85c-1.54-3.89-2.66-4-5.31-0.59
			c-0.84,1.07-1.54,2.27-2.22,3.45c-2.2,3.84-5.25,6.58-9.89,5.74c-4.57-0.83-7.62-4.02-9.29-8.27c-2.34-5.95-1.71-8.09,2.99-12.16
			c5.74-4.97,5.69-5.56-0.72-9.35c-3.71-2.19-5.66-6.53-4.68-10.38C69.44,186.65,73.85,183.46,79.53,183.46z"/>
		<path class="st1" d="M100.66,196.39c6.47,0.08,11.36,2.17,14.18,7.84c1.35,2.71,0.37,5.03-1.68,6.82
			c-5.28,4.6-16.05,2.45-19.17-3.9c-1.34-2.72-2.69-5.59-0.61-8.78C95.45,195.23,98.54,197.05,100.66,196.39z"/>
	</g>
	<g>
		<path class="st4" d="M179.19,187.91c4.53-0.18,8.78,2.29,12.62,5.78c1.06,0.96,1.89,2.77,3.69,2.03c1.79-0.73,1.91-2.57,2.05-4.29
			c0.35-4.39,0.87-8.79,4.39-11.97c3.21-2.9,6.94-4.24,11.21-2.5c5.25,2.14,8.23,6.05,9.01,11.72c0.38,2.79-1.41,6.31,1.03,8.24
			c2.98,2.36,5.03-1.54,7.45-2.56c8.27-3.49,14.68,3.29,17.22,9.57c3.81,9.45-0.14,16.41-8.64,18.32
			c-7.47,1.67-11.42,5.5-11.4,13.69c0.01,3.4-1.31,7.13-3.71,10.26c-4.6,6-10.79,6.58-16.28,1.39c-3.82-3.61-5.41-8.3-7.25-12.95
			c-1.84-4.65-3.17-4.78-6.34-0.71c-1,1.28-1.84,2.71-2.65,4.12c-2.62,4.58-6.27,7.86-11.81,6.85c-5.45-0.99-9.1-4.8-11.1-9.87
			c-2.79-7.1-2.05-9.66,3.57-14.51c6.85-5.93,6.8-6.64-0.86-11.16c-4.42-2.61-6.76-7.79-5.59-12.4
			C167.14,191.72,172.4,187.91,179.19,187.91z"/>
		<path class="st1" d="M204.42,203.35c7.72,0.1,13.56,2.59,16.93,9.36c1.61,3.23,0.44,6.01-2,8.14c-6.3,5.49-19.17,2.92-22.89-4.65
			c-1.6-3.25-3.21-6.68-0.73-10.48C198.19,201.96,201.88,204.14,204.42,203.35z"/>
	</g>
</g>
</svg>
