<svg id="Background" xmlns="http://www.w3.org/2000/svg" viewBox="0 0 150 150"><defs><style>.cls-1{fill:#fff;}.cls-2,.cls-3{fill:#42434c;}.cls-3{stroke:#42434c;stroke-miterlimit:10;stroke-width:0.25px;}</style></defs><circle class="cls-1" cx="75" cy="75" r="75"/><path class="cls-2" d="M75,40.5A23.06,23.06,0,1,0,98.06,63.56,23.05,23.05,0,0,0,75,40.5Zm1.74,42.56V81.51a1.74,1.74,0,1,0-3.48,0h0v1.55A19.6,19.6,0,0,1,55.5,65.25H57a1.74,1.74,0,1,0,0-3.48H55.5A19.62,19.62,0,0,1,73.26,44.06V45.5a1.74,1.74,0,0,0,3.48,0V44.06A19.6,19.6,0,0,1,94.49,61.77H93a1.74,1.74,0,1,0,0,3.48h1.5A19.6,19.6,0,0,1,76.74,83.06Z"/><path class="cls-2" d="M85.37,52.33,75.06,63.13H75a2.41,2.41,0,0,0-.38,0L66,56.64a1.31,1.31,0,0,0-1.57,2.09l8.63,6.52A2,2,0,0,0,77,65.08v-.15l10.31-10.8a1.31,1.31,0,1,0-1.73-2,1.29,1.29,0,0,0-.16.17Z"/><path class="cls-2" d="M55.47,97.59a1,1,0,0,1,.94,1.06,1.05,1.05,0,0,1-.26.61.91.91,0,0,1-.68.28.94.94,0,0,1-.69-.28,1,1,0,0,1,0-1.38A.94.94,0,0,1,55.47,97.59Zm0,7a.91.91,0,0,1,.68.28,1,1,0,0,1,0,1.38.92.92,0,0,1-.68.29.94.94,0,0,1-.69-.29,1,1,0,0,1,0-1.38.92.92,0,0,1,.69-.23Z"/><path class="cls-2" d="M66.93,100.59a10.11,10.11,0,0,1,.49-3.54,4.07,4.07,0,0,1,1.39-1.9,3.34,3.34,0,0,1,2-.64,3.41,3.41,0,0,1,2,.65A4.33,4.33,0,0,1,74.3,97.1a9.62,9.62,0,0,1,.53,3.49,9.51,9.51,0,0,1-.53,3.47A4.21,4.21,0,0,1,72.86,106a3.42,3.42,0,0,1-2,.66,3.27,3.27,0,0,1-2-.64,4,4,0,0,1-1.39-1.9A10.06,10.06,0,0,1,66.93,100.59Zm1.09,0a9.82,9.82,0,0,0,.35,3,3,3,0,0,0,1,1.52,2.29,2.29,0,0,0,2.88,0,3.09,3.09,0,0,0,1-1.53,9,9,0,0,0,.43-3,8.67,8.67,0,0,0-.39-2.86,3.25,3.25,0,0,0-1.06-1.63,2.26,2.26,0,0,0-2.88,0,3.1,3.1,0,0,0-1,1.52,9.09,9.09,0,0,0-.35,3Z"/><path class="cls-2" d="M81.05,97.81h1.1v1.57A4.5,4.5,0,0,1,83.65,98a4,4,0,0,1,1.89-.45,4.21,4.21,0,0,1,3.12,1.31A4.33,4.33,0,0,1,90,102a4.44,4.44,0,0,1-1.28,3.2,4.33,4.33,0,0,1-5,.9,4.76,4.76,0,0,1-1.55-1.27v4.6H81Zm4.4.84a3.26,3.26,0,0,0-2.4,1,3.39,3.39,0,0,0-1,2.48,3.51,3.51,0,0,0,.44,1.76,3.19,3.19,0,0,0,1.24,1.23,3.59,3.59,0,0,0,1.72.45,3.27,3.27,0,0,0,1.67-.45,3.41,3.41,0,0,0,1.24-1.29,3.5,3.5,0,0,0,0-3.46,3.3,3.3,0,0,0-2.93-1.72Z"/><path class="cls-2" d="M92,97.81h1.1v1.48a4.38,4.38,0,0,1,1.19-1.2,3.38,3.38,0,0,1,1.75-.5,2.81,2.81,0,0,1,1.18.25,2.47,2.47,0,0,1,.92.64,3.69,3.69,0,0,1,.61,1.16,4.12,4.12,0,0,1,1.37-1.53,3.3,3.3,0,0,1,1.78-.52,2.78,2.78,0,0,1,1.56.45,2.68,2.68,0,0,1,1,1.25,6.57,6.57,0,0,1,.33,2.41v4.67h-1.12V101.7a6.4,6.4,0,0,0-.2-1.9,1.64,1.64,0,0,0-.67-.82,2,2,0,0,0-1.13-.32,2.47,2.47,0,0,0-1.46.47,2.75,2.75,0,0,0-1,1.26A7.64,7.64,0,0,0,99,103v3.35H97.9V102a7.48,7.48,0,0,0-.19-2.11A1.73,1.73,0,0,0,97,99a1.91,1.91,0,0,0-1.14-.34,2.41,2.41,0,0,0-1.42.46,2.75,2.75,0,0,0-1,1.24,6.62,6.62,0,0,0-.32,2.38v3.63H92Z"/><path class="cls-3" d="M46.54,98.35c.24-.08.52-.15.82-.22a5.92,5.92,0,0,1,.92-.08,4.82,4.82,0,0,1,1.56.26,4.27,4.27,0,0,1,2.48,2.1,4.06,4.06,0,0,1,.51,2,4.5,4.5,0,0,1-.19,1.24,4.22,4.22,0,0,1-4,3,4.43,4.43,0,0,1-1.28-.2A3.9,3.9,0,0,1,45.32,105l.47-.53a3.29,3.29,0,0,0,1.82,1.3,3.82,3.82,0,0,0,1,.16,3.39,3.39,0,0,0,1.61-.42A3.36,3.36,0,0,0,52,103.4a3.57,3.57,0,0,0,.16-1.05,3.43,3.43,0,0,0-.42-1.62A3.61,3.61,0,0,0,49.64,99a4.14,4.14,0,0,0-1.31-.2,7,7,0,0,0-2.08.36l-.53-.47,1.36-3.74v-.24h3.69v.67H47.63Z"/><path class="cls-3" d="M61.06,99.9h-.55v-.67a3.18,3.18,0,0,0,1.12-.17,3,3,0,0,0,1-.72A1.84,1.84,0,0,0,63.1,97a1.81,1.81,0,0,0-1.82-1.82,1.78,1.78,0,0,0-1.28.53,2,2,0,0,0-.44.68l-.63-.25a2.13,2.13,0,0,1,.57-.91A2.53,2.53,0,0,1,63.81,97a2.34,2.34,0,0,1-.56,1.65,3.24,3.24,0,0,1-1,.8A4.15,4.15,0,0,1,64,100.59a3.58,3.58,0,0,1,1,2.54,3.44,3.44,0,0,1-1,2.5,3.52,3.52,0,0,1-5,0,3.52,3.52,0,0,1-1-1.94l.68-.24a2.82,2.82,0,0,0,4.8,1.69,2.7,2.7,0,0,0,.83-2,2.93,2.93,0,0,0-.8-2A4.3,4.3,0,0,0,61.06,99.9Z"/></svg>