<svg id="Background" xmlns="http://www.w3.org/2000/svg" viewBox="0 0 150 150"><defs><style>.cls-1{fill:#fff;}.cls-2{fill:#42434c;}</style></defs><circle class="cls-1" cx="75" cy="75" r="75"/><path class="cls-2" d="M75,40.5A23.06,23.06,0,1,0,98.06,63.56,23.05,23.05,0,0,0,75,40.5Zm1.74,42.56V81.51a1.74,1.74,0,1,0-3.48,0h0v1.55A19.6,19.6,0,0,1,55.5,65.25H57a1.74,1.74,0,1,0,0-3.48H55.5A19.62,19.62,0,0,1,73.26,44.06V45.5a1.74,1.74,0,0,0,3.48,0V44.06A19.6,19.6,0,0,1,94.49,61.77H93a1.74,1.74,0,1,0,0,3.48h1.5A19.6,19.6,0,0,1,76.74,83.06Z"/><path class="cls-2" d="M85.37,52.33,75.06,63.13H75a2.41,2.41,0,0,0-.38,0L66,56.64a1.31,1.31,0,0,0-1.57,2.09l8.63,6.52A2,2,0,0,0,77,65.08v-.15l10.31-10.8a1.32,1.32,0,0,0-1.73-2h0a1.29,1.29,0,0,0-.16.17Z"/><path class="cls-2" d="M57.44,100.43a1.12,1.12,0,1,1-1.58,1.6h0a1.11,1.11,0,0,1,0-1.57l0,0A1.15,1.15,0,0,1,57.44,100.43Zm0,4.42a1.07,1.07,0,0,1,.33.79,1.12,1.12,0,0,1-1.1,1.14,1.14,1.14,0,0,1-.81-.33,1.07,1.07,0,0,1-.34-.81,1,1,0,0,1,.34-.79,1.11,1.11,0,0,1,1.57,0Z"/><path class="cls-2" d="M78.17,102.46a4.42,4.42,0,0,1-8.83,0v-3.8a4.42,4.42,0,0,1,8.83,0Zm-1.65-3.8a2.64,2.64,0,0,0-.81-1.94,2.76,2.76,0,0,0-3.9,0h0a2.59,2.59,0,0,0-.8,1.94v3.8a2.77,2.77,0,0,0,5.53,0Z"/><path class="cls-2" d="M87,105.68v3.68H85.41V98.69H87v.72A3.47,3.47,0,0,1,89.73,98a4.42,4.42,0,0,1,0,8.84h0A3.71,3.71,0,0,1,87,105.68Zm0-3.84v1.25a2.57,2.57,0,0,0,.75,1.33,2.78,2.78,0,1,0,2-4.77,2.68,2.68,0,0,0-2,.81A2.62,2.62,0,0,0,87,101.84Z"/><path class="cls-2" d="M96.08,98.69h1.61v.74a1.76,1.76,0,0,1,1.79-1.17A1.35,1.35,0,0,1,101,99.45a.76.76,0,0,1,0,.15,1.88,1.88,0,0,1,2.09-1.34c1.13,0,1.69.69,1.69,2.06v6.35h-1.61v-5.62c0-.78-.32-1.18-1-1.18a1,1,0,0,0-.68.28,3.48,3.48,0,0,0-.29,1.88v4.64H99.6v-5.62c0-.78-.33-1.18-1-1.18a1,1,0,0,0-.68.28,2.05,2.05,0,0,0-.28,1.28v5.24H96.08Z"/><path class="cls-2" d="M50.17,100.39l-.93,0V98.85a4.8,4.8,0,0,0,1.32-.13,2.14,2.14,0,0,0,.7-.52,1.32,1.32,0,0,0,.37-.92,1.14,1.14,0,0,0-.35-.86,1.23,1.23,0,0,0-1.72,0,2.72,2.72,0,0,0-.46.9l-1.42-.56a3.49,3.49,0,0,1,.77-1.44,2.79,2.79,0,0,1,3.94,0,2.66,2.66,0,0,1,.82,2,2.93,2.93,0,0,1-1.37,2.22,2.28,2.28,0,0,1,1.38.75,3.79,3.79,0,0,1,1.06,2.65,3.7,3.7,0,0,1-3.71,3.72,3.54,3.54,0,0,1-2.61-1.1,4.2,4.2,0,0,1-1.1-2.41l1.53-.55a3,3,0,0,0,.67,1.86,2.07,2.07,0,0,0,1.51.63,2.1,2.1,0,0,0,1.53-.63,2,2,0,0,0,.63-1.52,2.26,2.26,0,0,0-.63-1.58A3.41,3.41,0,0,0,50.17,100.39Z"/><path class="cls-2" d="M63.23,100.39l-.92,0V98.85a4.8,4.8,0,0,0,1.32-.13,2.22,2.22,0,0,0,.69-.52,1.29,1.29,0,0,0,.38-.92,1.18,1.18,0,0,0-.35-.86,1.22,1.22,0,0,0-.87-.35,1.17,1.17,0,0,0-.85.35,2.54,2.54,0,0,0-.46.9l-1.43-.56a3.49,3.49,0,0,1,.78-1.44,2.79,2.79,0,0,1,4.75,2,2.91,2.91,0,0,1-1.36,2.22,2.28,2.28,0,0,1,1.38.75,3.78,3.78,0,0,1,1,2.65,3.7,3.7,0,0,1-3.7,3.72,3.54,3.54,0,0,1-2.61-1.1,4.14,4.14,0,0,1-1.1-2.41l1.52-.55a3.08,3.08,0,0,0,.67,1.86,2.15,2.15,0,0,0,3,0,2,2,0,0,0,.63-1.52,2.26,2.26,0,0,0-.63-1.58A3.34,3.34,0,0,0,63.23,100.39Z"/></svg>