<svg id="Background" xmlns="http://www.w3.org/2000/svg" viewBox="0 0 150 150"><defs><style>.cls-1{fill:#fff;}.cls-2{fill:#42434c;}</style></defs><circle class="cls-1" cx="75" cy="75" r="75"/><path class="cls-2" d="M75,40.5A23.06,23.06,0,1,0,98.06,63.56,23.05,23.05,0,0,0,75,40.5Zm1.74,42.56V81.51a1.74,1.74,0,1,0-3.48,0h0v1.55A19.6,19.6,0,0,1,55.5,65.25H57a1.74,1.74,0,1,0,0-3.48H55.5A19.62,19.62,0,0,1,73.26,44.06V45.5a1.74,1.74,0,0,0,3.48,0V44.06A19.6,19.6,0,0,1,94.49,61.77H93a1.74,1.74,0,1,0,0,3.48h1.5A19.6,19.6,0,0,1,76.74,83.06Z"/><path class="cls-2" d="M85.37,52.33,75.06,63.13H75a2.41,2.41,0,0,0-.38,0L66,56.64a1.31,1.31,0,0,0-1.57,2.09l8.63,6.52A2,2,0,0,0,77,65.08v-.15l10.31-10.8a1.32,1.32,0,0,0-1.73-2h0a1.29,1.29,0,0,0-.16.17Z"/><path class="cls-2" d="M50.7,94.26h1.41v7.45H53.2v1.61H52.11v3.35H50.5v-3.35H45.42Zm-.2,3.62-2.29,3.83H50.5Z"/><path class="cls-2" d="M57.44,100.43a1.12,1.12,0,1,1-1.58,1.6,1.11,1.11,0,0,1,0-1.6,1.14,1.14,0,0,1,1.58,0Zm0,4.42a1.07,1.07,0,0,1,.33.79,1.12,1.12,0,0,1-1.91.81,1.07,1.07,0,0,1-.34-.81,1,1,0,0,1,.34-.79,1.11,1.11,0,0,1,1.58,0Z"/><path class="cls-2" d="M68.16,102.46a4.41,4.41,0,0,1-8.82,0v-3.8a4.41,4.41,0,0,1,8.82,0Zm-1.64-3.8a2.62,2.62,0,0,0-.81-1.94,2.76,2.76,0,0,0-3.91,0A2.62,2.62,0,0,0,61,98.66v3.8a2.77,2.77,0,0,0,2.76,2.76,2.68,2.68,0,0,0,2-.81,2.64,2.64,0,0,0,.81-2Z"/><path class="cls-2" d="M78.17,102.46a4.42,4.42,0,0,1-8.83,0v-3.8a4.42,4.42,0,0,1,8.83,0Zm-1.65-3.8a2.62,2.62,0,0,0-.81-1.94,2.76,2.76,0,0,0-3.91,0A2.62,2.62,0,0,0,71,98.66v3.8a2.77,2.77,0,0,0,5.53,0Z"/><path class="cls-2" d="M87,105.68v3.68H85.41V98.69H87v.72A3.49,3.49,0,0,1,89.73,98a4.42,4.42,0,0,1,4.41,4.42,4.4,4.4,0,0,1-4.41,4.42A3.67,3.67,0,0,1,87,105.68Zm0-3.84v1.25a2.6,2.6,0,0,0,.75,1.33,2.77,2.77,0,0,0,4.73-2,2.77,2.77,0,0,0-2.77-2.77,2.66,2.66,0,0,0-2,.81A2.63,2.63,0,0,0,87,101.84Z"/><path class="cls-2" d="M96.08,98.69h1.61v.74a1.76,1.76,0,0,1,1.79-1.17A1.36,1.36,0,0,1,101,99.6a1.89,1.89,0,0,1,2.09-1.34c1.13,0,1.69.69,1.69,2.06v6.35h-1.61v-5.62c0-.78-.32-1.18-1-1.18a1,1,0,0,0-.68.28,3.43,3.43,0,0,0-.29,1.88v4.64h-1.6v-5.62c0-.78-.33-1.18-1-1.18a1,1,0,0,0-.68.28,2.09,2.09,0,0,0-.28,1.28v5.24H96.08Z"/></svg>