<svg id="Background" xmlns="http://www.w3.org/2000/svg" viewBox="0 0 150 150"><defs><style>.cls-1{fill:#fff;}.cls-2{fill:#42434c;}</style></defs><circle class="cls-1" cx="75" cy="75" r="75"/><path class="cls-2" d="M75,40.5A23.06,23.06,0,1,0,98.06,63.56,23.05,23.05,0,0,0,75,40.5Zm1.74,42.56V81.51a1.74,1.74,0,1,0-3.48,0v1.55A19.6,19.6,0,0,1,55.5,65.25H57a1.74,1.74,0,1,0,0-3.48H55.5A19.62,19.62,0,0,1,73.26,44.06V45.5a1.74,1.74,0,0,0,3.48,0V44.06A19.6,19.6,0,0,1,94.49,61.77H93a1.74,1.74,0,1,0,0,3.48h1.5A19.6,19.6,0,0,1,76.74,83.06Z"/><path class="cls-2" d="M85.37,52.33,75.06,63.13H75a2.43,2.43,0,0,0-.38,0L66,56.64a1.31,1.31,0,0,0-1.57,2.09l8.63,6.52A2,2,0,0,0,77,65.08s0-.1,0-.15l10.31-10.8a1.31,1.31,0,1,0-1.89-1.8Z"/><path class="cls-2" d="M50,94.51l.95.62-3.13,4.73A3.73,3.73,0,0,1,49,99.65a3.11,3.11,0,0,1,2.34,1,3.39,3.39,0,0,1,1,2.45,3.55,3.55,0,0,1-.46,1.8,3.32,3.32,0,0,1-1.32,1.28,3.69,3.69,0,0,1-1.84.48,3.52,3.52,0,0,1-1.77-.46,3.37,3.37,0,0,1-1.28-1.29,3.62,3.62,0,0,1-.46-1.79,4.14,4.14,0,0,1,.29-1.49,9.23,9.23,0,0,1,1-1.88Zm-1.27,6.16a2.42,2.42,0,1,0,1.72.71A2.34,2.34,0,0,0,48.75,100.67Z"/><path class="cls-2" d="M55.47,97.59a1,1,0,0,1,.68,1.67.91.91,0,0,1-.68.28.94.94,0,0,1-.69-.28,1,1,0,0,1,0-1.38A.94.94,0,0,1,55.47,97.59Zm0,7a.91.91,0,0,1,.68.28,1,1,0,0,1,0,1.38.92.92,0,0,1-.68.29.94.94,0,0,1-.69-.29,1,1,0,0,1,0-1.38A.94.94,0,0,1,55.47,104.64Z"/><path class="cls-2" d="M58,100.59a10,10,0,0,1,.49-3.54,4.09,4.09,0,0,1,1.39-1.9,3.49,3.49,0,0,1,4,0,4.34,4.34,0,0,1,1.45,1.94,9.52,9.52,0,0,1,.53,3.49,9.64,9.64,0,0,1-.52,3.47A4.2,4.2,0,0,1,63.93,106a3.41,3.41,0,0,1-2,.66,3.31,3.31,0,0,1-2-.64,4.11,4.11,0,0,1-1.39-1.9A10,10,0,0,1,58,100.59Zm1.09,0a9.63,9.63,0,0,0,.35,3,3.13,3.13,0,0,0,1,1.52,2.35,2.35,0,0,0,1.45.52,2.4,2.4,0,0,0,1.44-.5,3.14,3.14,0,0,0,1-1.53,9,9,0,0,0,.43-3,9.08,9.08,0,0,0-.38-2.86,3.35,3.35,0,0,0-1.07-1.63,2.25,2.25,0,0,0-2.88,0,3.12,3.12,0,0,0-1,1.52A9.26,9.26,0,0,0,59.09,100.61Z"/><path class="cls-2" d="M66.93,100.59a10,10,0,0,1,.49-3.54,4.09,4.09,0,0,1,1.39-1.9,3.34,3.34,0,0,1,2-.64,3.4,3.4,0,0,1,2,.65A4.34,4.34,0,0,1,74.3,97.1a9.52,9.52,0,0,1,.53,3.49,9.4,9.4,0,0,1-.53,3.47A4.26,4.26,0,0,1,72.86,106a3.43,3.43,0,0,1-2,.66,3.28,3.28,0,0,1-2-.64,4,4,0,0,1-1.39-1.9A10,10,0,0,1,66.93,100.59Zm1.09,0a9.63,9.63,0,0,0,.35,3,3.07,3.07,0,0,0,1,1.52,2.32,2.32,0,0,0,1.44.52,2.35,2.35,0,0,0,1.44-.5,3.09,3.09,0,0,0,1-1.53,9,9,0,0,0,.43-3,8.77,8.77,0,0,0-.39-2.86,3.27,3.27,0,0,0-1.06-1.63,2.25,2.25,0,0,0-2.88,0,3.12,3.12,0,0,0-1,1.52A9.26,9.26,0,0,0,68,100.61Z"/><path class="cls-2" d="M81.05,97.81h1.1v1.57A4.41,4.41,0,0,1,83.65,98a4,4,0,0,1,1.89-.45,4.23,4.23,0,0,1,3.12,1.31,4.33,4.33,0,0,1,1.3,3.17,4.43,4.43,0,0,1-1.28,3.2,4.34,4.34,0,0,1-5,.9,4.85,4.85,0,0,1-1.55-1.27v4.6h-1.1Zm4.4.84a3.25,3.25,0,0,0-2.4,1,3.42,3.42,0,0,0-1,2.48,3.56,3.56,0,0,0,.44,1.76,3.19,3.19,0,0,0,1.24,1.23,3.53,3.53,0,0,0,1.72.45,3.3,3.3,0,0,0,1.67-.45,3.42,3.42,0,0,0,1.24-1.29,3.48,3.48,0,0,0,0-3.46,3.29,3.29,0,0,0-2.93-1.72Z"/><path class="cls-2" d="M92,97.81h1.1v1.48a4.37,4.37,0,0,1,1.19-1.2,3.37,3.37,0,0,1,1.75-.5,2.78,2.78,0,0,1,1.18.25,2.49,2.49,0,0,1,.92.64,3.57,3.57,0,0,1,.61,1.16,4.19,4.19,0,0,1,1.37-1.53,3.33,3.33,0,0,1,1.78-.52,2.75,2.75,0,0,1,1.56.45,2.66,2.66,0,0,1,1,1.25,6.67,6.67,0,0,1,.33,2.41v4.67h-1.12V101.7a6.17,6.17,0,0,0-.2-1.9,1.63,1.63,0,0,0-.67-.82,2,2,0,0,0-1.13-.32,2.47,2.47,0,0,0-1.46.47,2.69,2.69,0,0,0-1,1.26A7.82,7.82,0,0,0,99,103v3.35h-1.1V102a7.55,7.55,0,0,0-.19-2.11A1.7,1.7,0,0,0,97,99a1.9,1.9,0,0,0-1.14-.34,2.43,2.43,0,0,0-1.42.46,2.76,2.76,0,0,0-1,1.24,6.71,6.71,0,0,0-.32,2.38v3.63H92Z"/></svg>