<svg id="Background" xmlns="http://www.w3.org/2000/svg" viewBox="0 0 150 50"><defs><style>.cls-1{fill:#fff;}.cls-2{fill:#edc3cf;}.cls-3{fill:#ff9bd4;}.cls-4{fill:#9973a2;}.cls-5{fill:#dcc5fe;}.cls-6{fill:#ffc9f1;}.cls-7{fill:#ffc08c;}</style></defs><path class="cls-1" d="M26.37,42.39a19.93,19.93,0,0,0,6.38,1.21c1.66,0,3.29.26,4.92.23a38.83,38.83,0,0,0,.21-13.56,13,13,0,0,0-2.55-6.71c-1-1.23-2.79-2.15-4.26-1.49a4.18,4.18,0,0,0-2,3.18,12.11,12.11,0,0,0,.82,7.2A12.89,12.89,0,0,0,22,29.75c-1.73,0-3.67.5-4.47,2a4.66,4.66,0,0,0,.51,4.36A14.62,14.62,0,0,0,26.37,42.39Z"/><path class="cls-2" d="M21.19,17.81c1,2.5,2.57,4.23,4,6.34,1.74-2.57,1.83-6.67,1.41-9.64a13,13,0,0,0-4.47-8.22.68.68,0,0,0-.26-.15c-.28,0-.48.26-.59.52A15.28,15.28,0,0,0,21.19,17.81Z"/><path class="cls-3" d="M6.14,25.31c4.78-.24,9.25-2.73,14-2.47A12.37,12.37,0,0,0,9.4,18.35,11.45,11.45,0,0,0,.27,23.57C1.63,25.2,4,25.42,6.14,25.31Z"/><path class="cls-2" d="M2.12,31.23c2.49-2.5,4.46,2.49,4.74,4,1.14-.84,4.25-3.86,5.56-1.85s-1.65,5-2.87,6.15A21.78,21.78,0,0,1,3.08,43.7,14.19,14.19,0,0,1,1.53,32.42,2.73,2.73,0,0,1,2.12,31.23Z"/><path class="cls-4" d="M53.61,33.23c2.53,2.46-2.43,4.48-4,4.78.85,1.13,3.9,4.21,1.91,5.54s-5-1.59-6.18-2.8a21.68,21.68,0,0,1-4.23-6.43,14.22,14.22,0,0,1,11.27-1.67A2.62,2.62,0,0,1,53.61,33.23Z"/><path class="cls-2" d="M50.35,28.24a23,23,0,0,0,10.4,3.36,19.57,19.57,0,0,0-4.32-7.89,12.93,12.93,0,0,0-7.57-3.9c-4.72-.59-3.46,4.17-1.13,6.38A17.79,17.79,0,0,0,50.35,28.24Z"/><path class="cls-5" d="M63.36,31.22c.34-4.44,1.53-9.48,6-11.58a2,2,0,0,1,1.11-.24,1.57,1.57,0,0,1,1.16,1.06,3.45,3.45,0,0,1,.07,1.63c-.62,4.29-4.58,7.57-8.32,9.2a19.17,19.17,0,0,1,.9-5.42"/><path class="cls-6" d="M62.15,17.83a1.24,1.24,0,0,1,0-2.48,1.24,1.24,0,0,1,0,2.48Z"/><path class="cls-6" d="M38.37,17.83a1.24,1.24,0,0,1,0-2.48,1.24,1.24,0,0,1,0,2.48Z"/><path class="cls-6" d="M43.05,26.92a1.24,1.24,0,0,1,0-2.48,1.24,1.24,0,0,1,0,2.48Z"/><path class="cls-6" d="M12.52,30.49a1.24,1.24,0,0,1,0-2.48,1.24,1.24,0,0,1,0,2.48Z"/><path class="cls-7" d="M65,35.32a1.24,1.24,0,0,1,0-2.48,1.24,1.24,0,0,1,0,2.48Z"/><path class="cls-6" d="M74.84,17.62a1.24,1.24,0,0,1,0-2.48,1.24,1.24,0,0,1,0,2.48Z"/><path class="cls-7" d="M59.75,43.86a1.24,1.24,0,0,1,0-2.48,1.24,1.24,0,0,1,0,2.48Z"/><path class="cls-1" d="M100.06,42.39a19.93,19.93,0,0,0,6.38,1.21c1.67,0,3.3.26,4.93.23a39.32,39.32,0,0,0,.21-13.56A13.12,13.12,0,0,0,109,23.56c-1-1.23-2.78-2.15-4.26-1.49a4.21,4.21,0,0,0-2,3.18,12.11,12.11,0,0,0,.82,7.2,12.89,12.89,0,0,0-7.85-2.7c-1.72,0-3.67.5-4.47,2a4.72,4.72,0,0,0,.51,4.36A14.62,14.62,0,0,0,100.06,42.39Z"/><path class="cls-2" d="M94.88,17.81c1,2.5,2.57,4.23,4,6.34,1.75-2.57,1.84-6.67,1.41-9.64a13,13,0,0,0-4.46-8.22.72.72,0,0,0-.27-.15c-.28,0-.48.26-.59.52A15.28,15.28,0,0,0,94.88,17.81Z"/><path class="cls-3" d="M79.84,25.31c4.77-.24,9.24-2.73,14-2.47A12.39,12.39,0,0,0,83.1,18.35,11.42,11.42,0,0,0,74,23.57C75.33,25.2,77.72,25.42,79.84,25.31Z"/><path class="cls-2" d="M75.81,31.23c2.49-2.5,4.46,2.49,4.74,4,1.14-.84,4.25-3.86,5.56-1.85s-1.64,5-2.87,6.15a21.65,21.65,0,0,1-6.47,4.16,14.23,14.23,0,0,1-1.55-11.28A2.84,2.84,0,0,1,75.81,31.23Z"/><path class="cls-4" d="M127.31,33.23c2.52,2.46-2.44,4.48-4,4.78.86,1.13,3.9,4.21,1.91,5.54s-5-1.59-6.18-2.8a21.68,21.68,0,0,1-4.23-6.43,14.22,14.22,0,0,1,11.27-1.67A2.71,2.71,0,0,1,127.31,33.23Z"/><path class="cls-2" d="M124.05,28.24a22.89,22.89,0,0,0,10.4,3.36,19.71,19.71,0,0,0-4.33-7.89,12.93,12.93,0,0,0-7.57-3.9c-4.72-.59-3.46,4.17-1.13,6.38A17.36,17.36,0,0,0,124.05,28.24Z"/><path class="cls-5" d="M137.06,31.22c.33-4.44,1.52-9.48,6-11.58a2,2,0,0,1,1.11-.24,1.54,1.54,0,0,1,1.16,1.06,3.45,3.45,0,0,1,.07,1.63c-.62,4.29-4.58,7.57-8.31,9.2a18.82,18.82,0,0,1,.9-5.42"/><path class="cls-6" d="M135.85,17.83a1.24,1.24,0,0,1,0-2.48,1.24,1.24,0,0,1,0,2.48Z"/><path class="cls-6" d="M112.07,17.83a1.24,1.24,0,0,1,0-2.48,1.24,1.24,0,0,1,0,2.48Z"/><path class="cls-6" d="M116.74,26.92a1.24,1.24,0,0,1,0-2.48,1.24,1.24,0,0,1,0,2.48Z"/><path class="cls-6" d="M86.21,30.49a1.24,1.24,0,0,1,0-2.48,1.24,1.24,0,0,1,0,2.48Z"/><path class="cls-7" d="M138.72,35.32a1.24,1.24,0,0,1,0-2.48,1.24,1.24,0,0,1,0,2.48Z"/><path class="cls-6" d="M148.53,17.62a1.24,1.24,0,0,1,0-2.48,1.24,1.24,0,0,1,0,2.48Z"/><path class="cls-7" d="M133.45,43.86a1.24,1.24,0,0,1,0-2.48,1.24,1.24,0,0,1,0,2.48Z"/></svg>