<svg id="Background" xmlns="http://www.w3.org/2000/svg" viewBox="0 0 150 40"><defs><style>.cls-1{fill:#42434c;}</style></defs><path class="cls-1" d="M6.52,27a1.21,1.21,0,0,1-.79-.53,18.31,18.31,0,0,1-.11-3c0-.49,0-1,0-1.62,0-.76,0-1.39,0-1.88s0-1,0-1.65,0-1.45.09-2.53v-.18c0-1.92.08-3.48.08-4.67,0-.54,0-.93,0-1.19s0-.57-.06-.75-.06-.39-.1-.59l-.07-.35,0-.09a.87.87,0,0,1,.2-.16.75.75,0,0,1,.25-.13,1.45,1.45,0,0,1,.4,0h.32a1.18,1.18,0,0,1,.25,0A2.65,2.65,0,0,1,7.83,8a1.77,1.77,0,0,1,.49.5l.1.18V9.87q0,1.7-.09,4.2c0,.23,0,.42,0,.58s0,.24,0,.25a.48.48,0,0,0,.08-.17c0-.12.09-.25.14-.42a10.25,10.25,0,0,1,2.19-4,4.24,4.24,0,0,1,2.12-1.19,5,5,0,0,1,.79-.06,3.6,3.6,0,0,1,.69.05,2.85,2.85,0,0,1,1.66.92,4.5,4.5,0,0,1,.72,1,12.35,12.35,0,0,1,1,5.48c0,.28,0,.58,0,.89,0,.48,0,1-.08,1.62s-.1,1.35-.16,2.27-.11,1.44-.14,1.86-.05.77-.06,1.06v2.57l-.19.07a2.86,2.86,0,0,1-.62.07,3,3,0,0,1-.44,0,2.36,2.36,0,0,1-1.36-.85.37.37,0,0,1-.06-.1,1,1,0,0,0,0-.15V25.5c0-.31,0-.73,0-1.25s.07-1.39.13-2.59.11-2.11.15-2.72.05-1.13.06-1.55,0-.94,0-1.57c0-1.28,0-2.05,0-2.33-.14-1.92-.49-3-1.07-3.28l-.1-.05h-.3a2.55,2.55,0,0,0-1.86.84,6.68,6.68,0,0,0-1.29,1.86A27.61,27.61,0,0,0,8.07,21.3L8,22v1.6c0,.78,0,1.37,0,1.74s0,.71.09,1c0,.09,0,.16,0,.2v.07a.14.14,0,0,0,0,.06.93.93,0,0,1-.49.31,3.1,3.1,0,0,1-.64.06Z"/><path class="cls-1" d="M27.88,25.31c-1.24-.3-2-1.5-2.33-3.6A12.93,12.93,0,0,1,25.41,20l0-.55-.17.44c-1,2.44-1.89,3.87-2.68,4.29l-.14.06-.16,0h-.31a2.65,2.65,0,0,1-.62-.06,1.91,1.91,0,0,1-.55-.21,2.9,2.9,0,0,1-1.46-2.26,3.36,3.36,0,0,1-.06-.63c0-.22,0-.37,0-.44a5,5,0,0,1,0-.71,8.83,8.83,0,0,1,1-3.28,5.44,5.44,0,0,1,1.94-2.12l.45-.19a2.59,2.59,0,0,1,.47-.13,1.42,1.42,0,0,1,.33,0h.31a4.91,4.91,0,0,1,1.5.29l.27.08.11,0a.49.49,0,0,0,0-.14c0-.08,0-.18,0-.31a.57.57,0,0,0,0-.13c0-.16,0-.29,0-.38a1.78,1.78,0,0,1,0-.2.2.2,0,0,1,0-.1.18.18,0,0,1,.05-.07h0A1.08,1.08,0,0,1,26.6,13a2,2,0,0,1,1.6.93.55.55,0,0,1,.07.23,2.55,2.55,0,0,1,0,.31,37.91,37.91,0,0,0-.4,4.78c0,.41,0,.8,0,1.17A11.34,11.34,0,0,0,28.2,24a.61.61,0,0,0,.12.22.21.21,0,0,0,.12.05h0c.33-.07.71-.43,1.14-1.07q.15-.26.39-.72c.15-.31.27-.59.36-.83a16.61,16.61,0,0,0,.79-2.74,4.4,4.4,0,0,1,.1-.52.66.66,0,0,1,.11-.25.83.83,0,0,1,.18-.13.54.54,0,0,1,.22,0,.56.56,0,0,1,.4.19.32.32,0,0,1,.1.19.66.66,0,0,1,0,.13,2.88,2.88,0,0,1,0,.35A15.84,15.84,0,0,1,31,23a4.32,4.32,0,0,1-2,2.29,1.06,1.06,0,0,1-.23.08h-.48ZM22.31,23a9,9,0,0,0,1.39-2.31A31.5,31.5,0,0,0,25.13,17a9.16,9.16,0,0,0,.39-1.42.06.06,0,0,0,0,0,.68.68,0,0,0-.19-.05l-.25,0-.19,0-.09,0c-.68.11-1.31.81-1.89,2.09a11.79,11.79,0,0,0-.85,2.67A11.45,11.45,0,0,0,21.84,22a3.09,3.09,0,0,0,.12.93c.08.2.13.3.18.3l.05-.06A.4.4,0,0,0,22.31,23Z"/><path class="cls-1" d="M33.7,28.38C32.35,28.09,31.52,27,31.18,25A14.56,14.56,0,0,1,31,22.6v-.23c0-.93,0-2.16.15-3.66,0-.51.06-1.15.1-1.94s.09-1.51.13-2.16.05-1,.06-1.12v-.11l-.55,0a6.76,6.76,0,0,1-1-.08,2.71,2.71,0,0,1-.68-.17q-.25-.15-.27-.3a1.77,1.77,0,0,1,0-.19.49.49,0,0,1,.17-.36c.09-.08.15-.13.21-.13h.11a1.48,1.48,0,0,1,.36.06l.62.09a6.12,6.12,0,0,0,.66,0h.46l0-.42c0-.24,0-.51,0-.81s0-.56,0-.76l0-.58c0-.38,0-.66,0-.83a5.92,5.92,0,0,0-.14-.9V7.93s0,0,0-.06a.49.49,0,0,0,.08-.1,1,1,0,0,1,.69-.24A1.81,1.81,0,0,1,33.37,8a1.54,1.54,0,0,1,.42.48l.08.16v2c0,.33,0,.6,0,.78v.51a.31.31,0,0,0,0,.1s0,0,0,0h0c.76-.1,1.3-.16,1.63-.19s.62,0,.88,0h.25a3.5,3.5,0,0,1,1.53.27.53.53,0,0,1,.19.4s0,.09,0,.14A.52.52,0,0,1,38,13h-.17L37.56,13a4.29,4.29,0,0,0-.68-.06l-.6,0a5.79,5.79,0,0,0-.61,0c-.13,0-.3,0-.5.05l-.6.07-.51.07-.23,0a.87.87,0,0,0,0,.26q0,.26,0,.6,0,.9-.09,1.86c0,.65-.07,1.43-.13,2.36s-.09,1.59-.11,2.07,0,.85,0,1.13,0,.53,0,.76V23c0,.58,0,1,0,1.36s0,.59,0,.81.05.46.08.71A3.5,3.5,0,0,0,34,27.28s.05,0,.07,0a0,0,0,0,0,0,0h0l.05,0a3.89,3.89,0,0,0,1.08-1.74,35.49,35.49,0,0,0,1.68-6.65c0-.17,0-.32.08-.45s0-.21.05-.24a.58.58,0,0,1,.21-.2A.48.48,0,0,1,37.5,18a.53.53,0,0,1,.31.13.52.52,0,0,1,.2.28.41.41,0,0,1,0,.12,1.15,1.15,0,0,1,0,.24c0,.1,0,.25-.08.45a37.07,37.07,0,0,1-1.68,6.72c-.11.27-.24.55-.39.85s-.28.53-.39.71a2.5,2.5,0,0,1-.87.83.73.73,0,0,1-.22.09.86.86,0,0,1-.25,0h-.23Z"/><path class="cls-1" d="M45.23,25.31q-1.86-.45-2.34-3.6A13.09,13.09,0,0,1,42.76,20l0-.55-.18.44q-1.48,3.66-2.67,4.29l-.15.06-.16,0h-.3a2.65,2.65,0,0,1-.62-.06,2,2,0,0,1-.56-.21,3,3,0,0,1-1.46-2.26q0-.32-.06-.63c0-.22,0-.37,0-.44a7,7,0,0,1,0-.71,9,9,0,0,1,1-3.28,5.39,5.39,0,0,1,1.95-2.12l.44-.19a2.68,2.68,0,0,1,.48-.13,1.39,1.39,0,0,1,.32,0h.31a4.91,4.91,0,0,1,1.5.29l.27.08.11,0s0-.05,0-.14,0-.18,0-.31a.59.59,0,0,0,0-.13c0-.16,0-.29,0-.38a1.78,1.78,0,0,1,0-.2.41.41,0,0,1,0-.1l.05-.07h0A1.06,1.06,0,0,1,44,13a1.72,1.72,0,0,1,.48.08,1.75,1.75,0,0,1,1.11.85.58.58,0,0,1,.08.23,1.61,1.61,0,0,1,0,.31,36.46,36.46,0,0,0-.39,4.78c0,.41,0,.8,0,1.17A11.75,11.75,0,0,0,45.54,24a.78.78,0,0,0,.13.22.21.21,0,0,0,.11.05h0c.34-.07.72-.43,1.14-1.07a7,7,0,0,0,.39-.72,7.73,7.73,0,0,0,.37-.83,17.62,17.62,0,0,0,.78-2.74c0-.23.07-.4.1-.52a.53.53,0,0,1,.12-.25.59.59,0,0,1,.17-.13.6.6,0,0,1,.22,0,.58.58,0,0,1,.41.19.39.39,0,0,1,.1.19v.13c0,.08,0,.2,0,.35A15.47,15.47,0,0,1,48.31,23a4.27,4.27,0,0,1-2,2.29,1,1,0,0,1-.24.08h-.48ZM39.66,23a9.29,9.29,0,0,0,1.39-2.31A33.37,33.37,0,0,0,42.47,17a9.16,9.16,0,0,0,.39-1.42s0,0,0,0a.69.69,0,0,0-.18-.05l-.26,0-.18,0-.1,0c-.67.11-1.3.81-1.89,2.09a12.24,12.24,0,0,0-.84,2.67A11.45,11.45,0,0,0,39.19,22a3.09,3.09,0,0,0,.12.93c.07.2.13.3.17.3l.06-.06Z"/><path class="cls-1" d="M51.12,28.4A2.81,2.81,0,0,1,49,26.48a9.29,9.29,0,0,1-.57-2.57c0-.24,0-.78,0-1.61v-1c0-.28,0-.59,0-.94s0-.81.08-1.39q.3-4.65.36-6.28t.06-2.4a12.78,12.78,0,0,0-.06-1.41,3.27,3.27,0,0,0,0-.53c0-.18-.05-.3-.07-.38h0s0-.09.12-.17a.83.83,0,0,1,.16-.13l.2-.08a2,2,0,0,1,.36,0,2,2,0,0,1,.74.16,1.81,1.81,0,0,1,.86.77l.08.19,0,1.53c0,2.28-.11,4.9-.29,7.84q-.12,1.77-.15,2.64c0,.58,0,1.2,0,1.88v1.67c0,.44,0,.82.06,1.17a7.55,7.55,0,0,0,.33,1.55,2.1,2.1,0,0,0,.15.3c.06.09.11.14.13.14s.07,0,.14-.09l.2-.21a2.56,2.56,0,0,0,.2-.26q1.26-2.07,2.26-7.77c0-.2.07-.37.1-.51a1.65,1.65,0,0,1,.05-.25.43.43,0,0,1,.2-.22.52.52,0,0,1,.29-.09.54.54,0,0,1,.21.05.51.51,0,0,1,.18.14.33.33,0,0,1,.1.15.88.88,0,0,1,0,.17v.11c0,.12,0,.29-.08.51a31.48,31.48,0,0,1-2.08,7.67A3.2,3.2,0,0,1,52,28.29l-.17.08-.14,0-.22,0h-.23Z"/><path class="cls-1" d="M56.84,25.29a3,3,0,0,1-2-2.24,12.89,12.89,0,0,1-.53-4,31.75,31.75,0,0,1,.31-4.21l.07-.5.15-.13a.81.81,0,0,1,.64-.23h.1a1.68,1.68,0,0,1,.8.21,1.87,1.87,0,0,1,.44.33,1.55,1.55,0,0,1,.31.4l.08.19,0,.45c-.1,1.13-.17,2.12-.2,3s0,1.53,0,2c0,.68,0,1.3.05,1.86,0,.28,0,.57.09.86a4,4,0,0,0,.1.6c.09.29.24.44.45.44h0a1.27,1.27,0,0,0,.86-.55,12,12,0,0,0,1.86-4.95c0-.12,0-.22.06-.32a.94.94,0,0,1,0-.17.48.48,0,0,1,.2-.2.6.6,0,0,1,.29-.08.5.5,0,0,1,.3.11.69.69,0,0,1,.2.28.34.34,0,0,1,0,.11,2.11,2.11,0,0,1,0,.31c0,.22-.1.54-.2,1a11.47,11.47,0,0,1-2,4.69,2.6,2.6,0,0,1-1.15.81.48.48,0,0,1-.21.06h-.4A2.44,2.44,0,0,1,56.84,25.29Zm-1-14.06a2.17,2.17,0,0,1-1-.5,1,1,0,0,1-.31-.42,3.14,3.14,0,0,1-.11-.74c0-.16,0-.32,0-.47a3.74,3.74,0,0,1,.07-.79.84.84,0,0,1,.32-.62,1.14,1.14,0,0,1,.42-.07h.16a3.17,3.17,0,0,1,.76.12,1.55,1.55,0,0,1,.95.65,1.31,1.31,0,0,1,.05.15.65.65,0,0,1,0,.17c0,.08,0,.2,0,.36v.18a3.49,3.49,0,0,1-.26,1.47.77.77,0,0,1-.74.55A1.13,1.13,0,0,1,55.83,11.23Z"/><path class="cls-1" d="M68.67,25.31q-1.86-.45-2.34-3.6A15.16,15.16,0,0,1,66.2,20l0-.55-.17.44q-1.5,3.66-2.68,4.29l-.14.06-.16,0h-.31a2.65,2.65,0,0,1-.62-.06,2.07,2.07,0,0,1-.56-.21,3,3,0,0,1-1.46-2.26q0-.32-.06-.63v-.44a5,5,0,0,1,0-.71,8.65,8.65,0,0,1,1-3.28A5.37,5.37,0,0,1,63,14.57l.45-.19a2.59,2.59,0,0,1,.47-.13,1.42,1.42,0,0,1,.33,0h.31a5,5,0,0,1,1.5.29l.27.08.11,0s0-.05,0-.14,0-.18,0-.31a.57.57,0,0,0,0-.13c0-.16,0-.29,0-.38s0-.16,0-.2a.19.19,0,0,1,0-.1.18.18,0,0,1,.05-.07h0a1.08,1.08,0,0,1,.73-.27,1.85,1.85,0,0,1,.49.08A1.76,1.76,0,0,1,69,14a.58.58,0,0,1,.08.23,1.61,1.61,0,0,1,0,.31,36.46,36.46,0,0,0-.39,4.78c0,.41,0,.8,0,1.17A11.75,11.75,0,0,0,69,24a.78.78,0,0,0,.13.22.21.21,0,0,0,.12.05h0c.33-.07.71-.43,1.13-1.07.11-.17.24-.41.4-.72s.27-.59.36-.83a16.58,16.58,0,0,0,.78-2.74,4,4,0,0,1,.11-.52.66.66,0,0,1,.11-.25.64.64,0,0,1,.18-.13.52.52,0,0,1,.21,0,.56.56,0,0,1,.41.19.32.32,0,0,1,.1.19c0,.05,0,.1,0,.13a2.88,2.88,0,0,1,0,.35A15.84,15.84,0,0,1,71.76,23a4.32,4.32,0,0,1-2,2.29,1,1,0,0,1-.24.08H69ZM63.1,23a9,9,0,0,0,1.39-2.31A33.3,33.3,0,0,0,65.92,17a9.16,9.16,0,0,0,.39-1.42s0,0,0,0a.5.5,0,0,0-.18-.05l-.26,0-.18,0-.09,0c-.68.11-1.31.81-1.9,2.09a12.24,12.24,0,0,0-.84,2.67A11.45,11.45,0,0,0,62.63,22a3.09,3.09,0,0,0,.12.93q.11.3.18.3l0-.06A.4.4,0,0,0,63.1,23Z"/><path class="cls-1" d="M78.69,26.48a.53.53,0,0,1,0-.11s0-.11,0-.21,0-.25,0-.44,0-.45,0-.78v-.16q0-1.05,0-2.19c0-1.72,0-3.94.15-6.64.08-2.18.12-3.81.12-4.88a16.41,16.41,0,0,0-.09-2c0-.19-.05-.38-.08-.56s-.07-.31-.08-.37v0A.24.24,0,0,1,78.66,8a.79.79,0,0,1,.17-.14l.2-.12a2,2,0,0,1,.53-.05,2,2,0,0,1,.51.05,2,2,0,0,1,1.26.91l.07.14v1.63c0,.72,0,1.56,0,2.51s-.09,2.35-.18,4.19c-.06,1.29-.11,2.28-.14,3S81,21.28,81,21.7s0,.9,0,1.4v.68c0,1,0,1.75.07,2.12l0,.1,1.64,0h3.48l.1.08a.56.56,0,0,1,.21.43.52.52,0,0,1-.16.38h0l-.07.05-.13,0-.29,0-.55,0h-.87L83.1,27H83l-2.85,0h-.33l-.17,0-.1,0h0A1.1,1.1,0,0,1,78.69,26.48Z"/><path class="cls-1" d="M89.53,25.29a3,3,0,0,1-2-2.24A13.22,13.22,0,0,1,87,19a31.75,31.75,0,0,1,.31-4.21l.07-.5.14-.13a.85.85,0,0,1,.65-.23h.1a1.71,1.71,0,0,1,.8.21,1.87,1.87,0,0,1,.44.33,1.55,1.55,0,0,1,.31.4l.08.19,0,.45c-.1,1.13-.17,2.12-.2,3s0,1.53,0,2q0,1,.06,1.86a8.6,8.6,0,0,0,.08.86,4,4,0,0,0,.1.6c.09.29.24.44.45.44h0a1.27,1.27,0,0,0,.86-.55A12,12,0,0,0,93,18.75c0-.12,0-.22.06-.32a.94.94,0,0,1,0-.17.48.48,0,0,1,.2-.2.6.6,0,0,1,.29-.08.5.5,0,0,1,.3.11.69.69,0,0,1,.2.28.34.34,0,0,1,0,.11,2.11,2.11,0,0,1,0,.31c0,.22-.1.54-.2,1a11.47,11.47,0,0,1-2,4.69,2.6,2.6,0,0,1-1.15.81.48.48,0,0,1-.21.06h-.4A2.44,2.44,0,0,1,89.53,25.29Zm-1-14.06a2.17,2.17,0,0,1-1-.5,1.09,1.09,0,0,1-.31-.42,3.14,3.14,0,0,1-.11-.74c0-.16,0-.32,0-.47a3.74,3.74,0,0,1,.07-.79.84.84,0,0,1,.32-.62,1.14,1.14,0,0,1,.42-.07H88a3.17,3.17,0,0,1,.76.12,1.55,1.55,0,0,1,.95.65,1.31,1.31,0,0,1,.05.15.65.65,0,0,1,0,.17,3.44,3.44,0,0,1,0,.36v.18a3.49,3.49,0,0,1-.26,1.47.77.77,0,0,1-.74.55A1.13,1.13,0,0,1,88.52,11.23Z"/><path class="cls-1" d="M95.77,32.44a1.68,1.68,0,0,1-1.41-1.69,3,3,0,0,1,.58-1.67,2.7,2.7,0,0,1,.2-.25,1.92,1.92,0,0,1,.28-.29,5.67,5.67,0,0,1,1.08-.87c.44-.3,1.13-.71,2.08-1.23l.66-.36.58-.34.12-.07a2,2,0,0,0,.31-.19.3.3,0,0,0,.13-.15c0-.06,0-.15.05-.27l0-.1a9.63,9.63,0,0,0,.15-1.6,4.63,4.63,0,0,0,0-.54c0-.13,0-.25,0-.38s0-.23-.05-.32a.41.41,0,0,0,0-.14s0,0,0,0h-.34a7.3,7.3,0,0,0-4.23,2.07l-.3.29-.31-.17a2.15,2.15,0,0,1-.84-.66,1.91,1.91,0,0,1-.16-.27.77.77,0,0,1-.08-.19l.12-.15.3-.31a19.27,19.27,0,0,0,3.51-4.8A13.39,13.39,0,0,0,98.86,16a5.36,5.36,0,0,0,.16-.52c.06-.19.1-.36.14-.5l0-.22h0a1,1,0,0,0-.27.11c-.16.08-.35.18-.57.31l-.58.36a7.92,7.92,0,0,0-2.73,3l-.14.26a.35.35,0,0,1-.09.11.3.3,0,0,1-.11.07l-.11,0-.12,0H94L93.74,19a1.41,1.41,0,0,1-1.06-.91.66.66,0,0,1,0-.14.5.5,0,0,1,0-.16,1.05,1.05,0,0,1,.19-.36A8,8,0,0,1,94.08,16a9.38,9.38,0,0,1,4-2.54,1.79,1.79,0,0,1,.33-.07l.4,0h.31l.19,0,.23.07a4.28,4.28,0,0,1,1.61,1,3.38,3.38,0,0,1,.3.35,1,1,0,0,1,.15.34,1,1,0,0,1,0,.25v.08a2.93,2.93,0,0,1-.12.47,12.65,12.65,0,0,1-1,2.17A16.22,16.22,0,0,1,99,20.34a.16.16,0,0,0,0,.09,0,0,0,0,0,0,0l.25-.05a4,4,0,0,1,1.1-.14h.19a2.93,2.93,0,0,1,.61.07,1.77,1.77,0,0,1,.49.19c.77.42,1.17,1.33,1.19,2.73v.34l.26-.27a8.94,8.94,0,0,0,1.67-2.51,10.57,10.57,0,0,0,.66-2.32.57.57,0,0,1,.25-.42.38.38,0,0,1,.13-.06l.17,0a.46.46,0,0,1,.43.24.42.42,0,0,1,.08.26,2.19,2.19,0,0,1-.07.47,9.89,9.89,0,0,1-2,4.44,11,11,0,0,1-.76.83c-.33.34-.6.59-.79.76l-.22.18-.09.38a11.4,11.4,0,0,1-2.87,5,7.35,7.35,0,0,1-2,1.49,3.72,3.72,0,0,1-1.56.43A1.36,1.36,0,0,1,95.77,32.44Zm.55-1.06a3.69,3.69,0,0,0,1.35-1,10.59,10.59,0,0,0,1.8-2.47c.08-.15.16-.3.23-.45s.13-.28.16-.37a.85.85,0,0,0,.06-.17h0l-.3.16c-.19.11-.44.24-.72.41-.7.38-1.22.69-1.57.9a6.33,6.33,0,0,0-.85.61,2.31,2.31,0,0,0-1,1.77c0,.28.07.46.22.54a.66.66,0,0,0,.36.11A1,1,0,0,0,96.32,31.38Z"/><path class="cls-1" d="M106,28.75a1.08,1.08,0,0,1-.75-.55l-.07-.14V25.28c0-1.79,0-3,0-3.68q.09-2.49.24-5.16c.07-1.35.13-2.41.16-3.16s.06-1.3.07-1.64,0-.61,0-.84v-.65c0-.54,0-.94,0-1.19a5.42,5.42,0,0,0-.11-.72L105.47,8l.08-.11.12-.1a.48.48,0,0,1,.17-.1l.14-.07a.31.31,0,0,1,.13,0h.23a1.87,1.87,0,0,1,.45,0,2.51,2.51,0,0,1,.43.17,2.34,2.34,0,0,1,.42.32,1.64,1.64,0,0,1,.31.37.73.73,0,0,1,0,.12.88.88,0,0,1,0,.2,3.56,3.56,0,0,1,0,.37c0,.21,0,.45,0,.71q0,2.31-.34,7.22c0,.42,0,.77-.06,1.06s0,.45,0,.48v0a1.65,1.65,0,0,0,.19-.42,13.93,13.93,0,0,1,1.78-3.52,5.59,5.59,0,0,1,.42-.44,2.35,2.35,0,0,1,.39-.33,1.66,1.66,0,0,1,.38-.17,2.25,2.25,0,0,1,.4,0h.17l.38,0a1.3,1.3,0,0,1,.27,0,2.51,2.51,0,0,1,2.14,2.15,6.77,6.77,0,0,1,0,.78V17a12.08,12.08,0,0,1-.09,1.31,9.66,9.66,0,0,1-1.18,3.85,4.67,4.67,0,0,1-3,2.33,4.48,4.48,0,0,1-.72.05,5,5,0,0,1-.74-.05,6,6,0,0,1-1-.33l-.14-.06-.06,0h0a3.35,3.35,0,0,0,0,.4c0,.26,0,.57,0,1v.61c0,.38,0,.7,0,1a10.23,10.23,0,0,0,.07,1c0,.07,0,.13,0,.18a.17.17,0,0,1,0,.1.11.11,0,0,1,0,.07c-.13.23-.43.35-.89.38A2.81,2.81,0,0,1,106,28.75Zm2-5.27.18,0,.17-.05c1-.36,1.91-1.41,2.59-3.14a10.39,10.39,0,0,0,.74-2.74c0-.65.08-1.07.08-1.25a2,2,0,0,0-.41-1.51.36.36,0,0,0-.2-.06.77.77,0,0,0-.27.07,4.16,4.16,0,0,0-1.22,1.6,37.12,37.12,0,0,0-2.11,5.53c-.06.19-.11.34-.13.44a1.68,1.68,0,0,0-.06.27,2.45,2.45,0,0,0,0,.3c0,.11,0,.21,0,.3a1.77,1.77,0,0,0,0,.19v.08s0,0,0,0H108Z"/><path class="cls-1" d="M119.51,25.36A4.13,4.13,0,0,1,117,24.14a4.78,4.78,0,0,1-1.27-2.35,6.5,6.5,0,0,1-.19-1.13c0-.4-.06-.76-.06-1.09v-.23a8.14,8.14,0,0,1,.88-3.3,4.46,4.46,0,0,1,2-2,3,3,0,0,1,1.21-.26,3.3,3.3,0,0,1,1,.18,3.11,3.11,0,0,1,2,2,4.54,4.54,0,0,1,.25,1.57v.1a5.77,5.77,0,0,1-.27,1.78,3.82,3.82,0,0,1-3.14,2.69,4.16,4.16,0,0,1-.54,0,1.86,1.86,0,0,1-.46,0h-.08a.35.35,0,0,0,0,.1,1.31,1.31,0,0,0,.06.23A3.21,3.21,0,0,0,119.3,24a1.29,1.29,0,0,0,.91.39l.2,0a4.48,4.48,0,0,0,2.41-1.4A8.26,8.26,0,0,0,125,18.61a1.6,1.6,0,0,1,0-.21.76.76,0,0,1,0-.16.4.4,0,0,1,.15-.17.5.5,0,0,1,.23-.09h.07a.59.59,0,0,1,.31.09.56.56,0,0,1,.22.33v.07a5.41,5.41,0,0,1-.18,1,8.54,8.54,0,0,1-3.73,5.34,4.69,4.69,0,0,1-1.35.55,3.3,3.3,0,0,1-.61,0A4.72,4.72,0,0,1,119.51,25.36Zm-1-4.31c.91-.34,1.57-1.49,2-3.45a9,9,0,0,0,.15-1.4,2.22,2.22,0,0,0-.15-.95q-.09-.21-.24-.21a.66.66,0,0,0-.42.26,4.7,4.7,0,0,0-.84,1.32,9.59,9.59,0,0,0-.61,1.83,6.81,6.81,0,0,0-.14.8c0,.22,0,.51,0,.89,0,.19,0,.37,0,.53a1.67,1.67,0,0,0,0,.31h0c0,.05,0,.08,0,.09l0,0h0l.16,0Z"/><path class="cls-1" d="M127.5,28.38C126.15,28.09,125.32,27,125,25a13.55,13.55,0,0,1-.17-2.42v-.23c0-.93,0-2.16.14-3.66,0-.51.07-1.15.11-1.94s.09-1.51.12-2.16.06-1,.07-1.12v-.11l-.55,0a6.76,6.76,0,0,1-1-.08,2.71,2.71,0,0,1-.68-.17q-.26-.15-.27-.3a1.77,1.77,0,0,1,0-.19.46.46,0,0,1,.17-.36.35.35,0,0,1,.21-.13h.1a1.55,1.55,0,0,1,.37.06l.62.09a6.12,6.12,0,0,0,.66,0h.46l0-.42c0-.24,0-.51,0-.81s0-.56,0-.76l0-.58c0-.38,0-.66,0-.83a7.54,7.54,0,0,0-.14-.9V7.93l0-.06a.3.3,0,0,0,.09-.1,1,1,0,0,1,.69-.24,2.09,2.09,0,0,1,.57.09,2.25,2.25,0,0,1,.62.35,1.54,1.54,0,0,1,.42.48l.08.16v2c0,.33,0,.6,0,.78v.51a.31.31,0,0,0,0,.1s0,0,0,0h0c.76-.1,1.3-.16,1.63-.19s.62,0,.87,0h.26a3.53,3.53,0,0,1,1.53.27.56.56,0,0,1,.19.4.78.78,0,0,1,0,.14.5.5,0,0,1-.42.4h-.16l-.23-.06a4.55,4.55,0,0,0-.69-.06l-.59,0a5.79,5.79,0,0,0-.61,0c-.14,0-.3,0-.5.05l-.6.07-.52.07-.22,0a1.09,1.09,0,0,0,0,.26c0,.17,0,.37,0,.6q0,.9-.09,1.86c0,.65-.07,1.43-.13,2.36s-.09,1.59-.11,2.07,0,.85,0,1.13,0,.53,0,.76V23c0,.58,0,1,0,1.36s0,.59,0,.81,0,.46.08.71a3.5,3.5,0,0,0,.45,1.45.12.12,0,0,0,.06,0l0,0h0l.06,0A3.89,3.89,0,0,0,129,25.59a35.49,35.49,0,0,0,1.68-6.65,4.12,4.12,0,0,1,.08-.45,1.41,1.41,0,0,1,0-.24.55.55,0,0,1,.2-.2.48.48,0,0,1,.27-.09.54.54,0,0,1,.32.13.52.52,0,0,1,.2.28.41.41,0,0,1,0,.12c0,.06,0,.14,0,.24l-.09.45A36.35,36.35,0,0,1,130,25.9c-.11.27-.24.55-.39.85a7.87,7.87,0,0,1-.4.71,2.57,2.57,0,0,1-.86.83.84.84,0,0,1-.22.09.9.9,0,0,1-.25,0h-.24Z"/><path class="cls-1" d="M131.46,28.79a1.3,1.3,0,0,1-.64-.28l0,0a.87.87,0,0,1-.13-.15.42.42,0,0,1-.08-.21q0-.14,0-.42c0-.19,0-.45,0-.78v-.17c0-.48,0-1,0-1.5,0-.86,0-1.79,0-2.77q.06-2.37.26-6c.08-1.37.13-2.44.17-3.19s.06-1.31.07-1.64,0-.61,0-.82v-.64c0-.51,0-.91,0-1.19a7.42,7.42,0,0,0-.1-.76.61.61,0,0,1,0-.16V8a.09.09,0,0,1,0-.06.91.91,0,0,1,.2-.19.88.88,0,0,1,.26-.12.79.79,0,0,1,.28,0h.17a1.86,1.86,0,0,1,.5.09,1.82,1.82,0,0,1,1,.8l.1.16v1.72c0,.74,0,1.58-.07,2.53,0,1.21-.17,3-.34,5.46-.06.94-.11,1.78-.16,2.51s-.07,1.15-.07,1.22l0-.13c0-.11.07-.25.11-.41,1-3.76,2.07-6.15,3.22-7.16a2.94,2.94,0,0,1,.39-.26,1.34,1.34,0,0,1,.39-.16,2.19,2.19,0,0,1,.46,0,3.78,3.78,0,0,1,.46,0,4.51,4.51,0,0,1,1,.27,3.9,3.9,0,0,1,.38.22,3.3,3.3,0,0,1,.33.27,3.35,3.35,0,0,1,.88,2.54c0,.13,0,.26,0,.39s0,.34,0,.49,0,.36-.06.62-.08.65-.15,1.16S140,21,140,21.38s-.07.66-.09.89,0,.47,0,.72v.32c0,.18,0,.33,0,.43a1,1,0,0,0,.1.38l.07.08a.19.19,0,0,0,.07.08.18.18,0,0,0,.08,0h.16c.49,0,1-.54,1.54-1.48a11.09,11.09,0,0,0,.81-1.92,15.61,15.61,0,0,0,.57-2.36.62.62,0,0,1,.25-.48.57.57,0,0,1,.31-.1.54.54,0,0,1,.36.15.32.32,0,0,1,.12.18.64.64,0,0,1,0,.2,1,1,0,0,1,0,.16c0,.15-.07.38-.12.68a11.78,11.78,0,0,1-2.13,5.11,2.15,2.15,0,0,1-.37.37,3.14,3.14,0,0,1-.45.26,2.12,2.12,0,0,1-.51.21,3.1,3.1,0,0,1-.54.05,2.89,2.89,0,0,1-3-2.3,8.59,8.59,0,0,1-.2-1.9V20.9c0-.42.05-.87.1-1.36s.16-1.21.3-2.16a11.81,11.81,0,0,0,.17-1.73c0-.34-.08-.54-.22-.59l-.09,0c-.28,0-.64.41-1.09,1.22a26.25,26.25,0,0,0-1.66,3.92,31.27,31.27,0,0,0-1.81,7.7c0,.14,0,.26,0,.37a.76.76,0,0,1,0,.18.68.68,0,0,1-.43.3,2.37,2.37,0,0,1-.57.08Z"/></svg>