<svg xmlns="http://www.w3.org/2000/svg" xmlns:xlink="http://www.w3.org/1999/xlink" viewBox="0 0 150 150"><defs><style>.cls-1{fill:none;}.cls-2{isolation:isolate;}.cls-3{clip-path:url(#clip-path);}.cls-4{fill:#f6948b;}.cls-5{opacity:0.64;}.cls-10,.cls-13,.cls-5{mix-blend-mode:multiply;}.cls-6{fill:#ff9bd4;}.cls-7{fill:#ffa69d;}.cls-8{fill:#c46765;}.cls-9{fill:#f46aad;}.cls-11{fill:#e75099;opacity:0.32;}.cls-12{fill:#cc5091;}.cls-13{opacity:0.26;}.cls-14{fill:#f7e8e2;}</style><clipPath id="clip-path"><rect class="cls-1" width="150" height="150"/></clipPath></defs><g class="cls-2"><g id="Background"><g class="cls-3"><path class="cls-4" d="M64.67,34.46a23.5,23.5,0,0,0-14.21-21,23.35,23.35,0,0,0-24.81,5A23.22,23.22,0,0,0,20.82,43.3,23.08,23.08,0,0,0,42,57"/><g class="cls-5"><path class="cls-6" d="M54.36,36A11.07,11.07,0,0,0,35.47,28.3,10.93,10.93,0,0,0,43.4,47"/></g><path class="cls-4" d="M130.88,34.46a22.87,22.87,0,0,1,39-16,23.22,23.22,0,0,1,4.83,24.82A23.08,23.08,0,0,1,153.52,57"/><path class="cls-6" d="M141.19,36a11.07,11.07,0,0,1,18.89-7.74A10.93,10.93,0,0,1,152.15,47"/><path class="cls-7" d="M155.31,44.83c-9.37-9.06-21.88-14-34.6-16.11a150.14,150.14,0,0,0-19.28-1.86V26.8c-1.22,0-2.45,0-3.68,0s-2.45,0-3.68,0v.06A150,150,0,0,0,74.8,28.72c-12.72,2.06-25.23,7.05-34.61,16.11C23.84,60.65,21.11,88.06,22.43,109.41c.61,9.85,2.53,20,8.44,27.94,11.18,15,30.41,20.24,47.9,23.14a115.42,115.42,0,0,0,38,0c17.5-2.9,36.72-8.19,47.9-23.14,5.91-7.9,7.84-18.09,8.45-27.94C174.39,88.06,171.67,60.65,155.31,44.83Z"/><ellipse class="cls-8" cx="63.36" cy="92.31" rx="3.86" ry="6.52"/><ellipse class="cls-8" cx="132.28" cy="92.31" rx="3.86" ry="6.52"/><ellipse class="cls-8" cx="62.55" cy="67.75" rx="7.23" ry="4.45" transform="translate(-15.63 18.86) rotate(-15.27)"/><ellipse class="cls-8" cx="133.08" cy="67.75" rx="4.45" ry="7.23" transform="translate(32.68 178.3) rotate(-74.73)"/><path class="cls-9" d="M125.65,28a31.45,31.45,0,0,0-10.12-17.58,17.93,17.93,0,0,0-5.93-3.64c-9.24-3.13-16.76,4.45-19.16,12.68-2.64,9.07-4.58,23,2.84,30.1,4,3.82,10.38,4.43,15.56,2.45,6.83-2.6,12.19-8.85,16.09-14.91"/><path class="cls-9" d="M130.93,28.48a31.54,31.54,0,0,1,15.93-12.57,18.07,18.07,0,0,1,6.85-1.17c9.74.53,13.91,10.35,13.08,18.89C165.87,43,162.5,56.69,153,60.52c-5.14,2.06-11.28.25-15.35-3.5-5.38-5-8-12.75-9.4-19.82"/><g class="cls-10"><path class="cls-11" d="M124.16,34.09c-.14-.31-4,1-8.92,2.22s-8.91,2.28-8.84,2.64,4.19-.14,9.16-1.41S124.31,34.42,124.16,34.09Z"/><path class="cls-11" d="M123.94,32.4c.24-.23-2.88-3.71-7.72-6.77s-9.31-4.43-9.41-4.12,4,2.19,8.72,5.19S123.68,32.67,123.94,32.4Z"/><path class="cls-11" d="M130.05,34.7c-.27.25,2.54,3.39,6.7,6.4s7.8,5,8,4.7-3.14-2.74-7.22-5.72S130.29,34.46,130.05,34.7Z"/><path class="cls-11" d="M130.88,33.21c.14.35,4.44-1.16,9.92-2.17s10-1.2,10-1.58-4.64-.74-10.26.33S130.74,32.91,130.88,33.21Z"/></g><path class="cls-12" d="M135.73,30.13c-2.16-6.87-10.14-8.07-14.48-2.62a13,13,0,0,0-2.23,10A9.09,9.09,0,0,0,120.78,42a7.27,7.27,0,0,0,7.42,2.12,10.74,10.74,0,0,0,6.19-5A11.22,11.22,0,0,0,135.73,30.13Z"/><g class="cls-13"><path class="cls-6" d="M145.91,115.91A23.61,23.61,0,0,0,163.7,138.5c.31-.38.63-.75.93-1.15,5.91-7.9,7.84-18.09,8.45-27.94a146.54,146.54,0,0,0,.08-16.8,25.26,25.26,0,0,0-2.91-.18C156.81,92.43,145.91,102.94,145.91,115.91Z"/><path class="cls-6" d="M49.73,115.91c0-13-10.9-23.48-24.34-23.48a25.47,25.47,0,0,0-3.05.2,146.12,146.12,0,0,0,.09,16.78c.61,9.85,2.53,20,8.44,27.94.31.41.64.78,1,1.18A23.63,23.63,0,0,0,49.73,115.91Z"/></g><path class="cls-14" d="M125.51,109.19c0,14-12.43,23-27.76,23s-27.77-9-27.77-23S82.41,82.65,97.75,82.65,125.51,95.18,125.51,109.19Z"/><path class="cls-7" d="M104.21,108.35a6.37,6.37,0,0,1-5.87,6.27V95.39a.59.59,0,0,0-1.18,0v19.24a6.47,6.47,0,0,1-5.9-5.26c-.17-.74-1.31-.42-1.14.32,2,8.94,14.76,7.76,15.27-1.34C105.43,107.59,104.26,107.6,104.21,108.35Z"/><path class="cls-9" d="M107.39,88.81a25,25,0,0,0-9.15-1.75A22.73,22.73,0,0,0,88.1,88.81c-4.09,1.83-4.39,6.22-2,9.65a15.73,15.73,0,0,0,9.16,5.74,11.67,11.67,0,0,0,2.29.29.86.86,0,0,0,.16,0,.43.43,0,0,0,.16,0,11,11,0,0,0,2.29-.28,15.76,15.76,0,0,0,9.16-5.74C111.79,95,111.48,90.64,107.39,88.81Z"/><ellipse class="cls-14" cx="97.75" cy="91.46" rx="4.51" ry="2.4"/></g></g></g></svg>