<svg id="Background" xmlns="http://www.w3.org/2000/svg" viewBox="0 0 150 150"><defs><style>.cls-1{fill:#edc3cf;}.cls-2{fill:#fff;}.cls-3{fill:#42434c;}</style></defs><path class="cls-1" d="M119.24,48.15c-.49-6.3-2.81-13.12-8.38-16.12-6.27-3.38-14.13-.61-20,3.39A53.46,53.46,0,0,0,70.2,62.92a50,50,0,0,0-13.9-26.6c-3.84-3.82-9-7.17-14.31-6.22-6.58,1.16-10.39,8.35-11.13,15-1.11,10,2.42,19.92,6.81,29,7.73,15.92,19.14,34,32.18,46,5.64-3.71,10.55-8.5,16.33-12.24,7.34-4.74,13.79-12.07,19.09-18.94C114.21,77.26,120.37,62.8,119.24,48.15Z"/><path class="cls-2" d="M68.2,102.19c-3.7-.19-7.18-2.12-10.85-1.92a9.56,9.56,0,0,1,8.32-3.48,8.83,8.83,0,0,1,7.09,4C71.71,102.1,69.85,102.28,68.2,102.19Z"/><path class="cls-2" d="M70.91,106.82c-1.93-1.95-3.46,1.93-3.67,3.11-.89-.66-3.31-3-4.33-1.44s1.28,3.89,2.23,4.78a17.3,17.3,0,0,0,5,3.23,11,11,0,0,0,1.2-8.77A1.92,1.92,0,0,0,70.91,106.82Z"/><path class="cls-2" d="M104,50.15c-1.92,1.86,1.84,3.4,3,3.62-.65.86-3,3.19-1.45,4.2s3.81-1.2,4.68-2.12A16.66,16.66,0,0,0,113.42,51a10.82,10.82,0,0,0-8.54-1.26A2,2,0,0,0,104,50.15Z"/><path class="cls-2" d="M108.52,45.17a17.11,17.11,0,0,1-7.88,2.55,14.89,14.89,0,0,1,3.28-6,9.75,9.75,0,0,1,5.73-3c3.58-.44,2.63,3.16.86,4.84A13.35,13.35,0,0,1,108.52,45.17Z"/><path class="cls-2" d="M98.51,47.74C98.25,44.37,97.35,40.56,94,39a1.54,1.54,0,0,0-.84-.18,1.19,1.19,0,0,0-.88.8,2.73,2.73,0,0,0,0,1.24c.47,3.25,3.47,5.74,6.3,7a14.31,14.31,0,0,0-.68-4.1"/><path class="cls-2" d="M97.6,38.52a.94.94,0,1,0-.94-.94.94.94,0,0,0,.94.94Z"/><path class="cls-2" d="M113,46.63a.94.94,0,1,0-.94-.94.94.94,0,0,0,.94.94Z"/><path class="cls-2" d="M63.25,106.21a1,1,0,1,0-.7-.7A1,1,0,0,0,63.25,106.21Z"/><path class="cls-2" d="M96.34,53a.94.94,0,1,0-.94-.94A.94.94,0,0,0,96.34,53Z"/><path class="cls-2" d="M77.07,107h.13a1,1,0,0,0,0-2h-.13a1,1,0,0,0,0,2Z"/><path class="cls-2" d="M71.56,95.26a1,1,0,1,0-.7-.7A1,1,0,0,0,71.56,95.26Z"/><path class="cls-3" d="M39.4,95.46a3.33,3.33,0,0,1-2.5-.87,2.85,2.85,0,0,1-.85-2,3.72,3.72,0,0,1,.4-1.63,5.21,5.21,0,0,1,2.77-2.53,2.21,2.21,0,0,1,.86-.24.6.6,0,0,1,.42.16.54.54,0,0,1,.18.43.78.78,0,0,1-.51.74A4.8,4.8,0,0,0,38.34,91a2.77,2.77,0,0,0-.64,1.6c0,.72.41,1.09,1.23,1.09q2.45,0,3.68-3.4a15.52,15.52,0,0,0,1-5.39Q43.58,80,41,80a4.45,4.45,0,0,0-2.08.54.67.67,0,0,1-.29.08.68.68,0,0,1-.42-.15,1,1,0,0,1-.42-.82.64.64,0,0,1,.34-.54,9.72,9.72,0,0,0,2.94-3,14.71,14.71,0,0,0,1.74-3.84,13.62,13.62,0,0,0,.57-3.7c0-1.51-.36-2.26-1.06-2.26a2.83,2.83,0,0,0-1.75,1,11.38,11.38,0,0,0-1.83,2.43,4.37,4.37,0,0,0-.64,1.84q-.81,9.48-.81,16.58a2,2,0,0,1-.35,1.4,1.13,1.13,0,0,1-.86.36,1.26,1.26,0,0,1-1.32-1.1,26.11,26.11,0,0,1-.58-5.39c0-2,0-3.35,0-4.14,0-2.38,0-4.76.14-7.16q.16-4.78.36-7.41a1.49,1.49,0,0,1,.37-1,1.51,1.51,0,0,1,.8-.42,4.59,4.59,0,0,1,1-.1,4.72,4.72,0,0,1,.85.07,1.23,1.23,0,0,1,.68.34,1.19,1.19,0,0,1,.27.87q0,.64-.09,1.53c-.06.59-.12,1.2-.18,1.82A9.68,9.68,0,0,1,41.06,65a4.6,4.6,0,0,1,2.61-.82c2.46,0,3.69,1.54,3.69,4.64a9.62,9.62,0,0,1-.52,2.66A15.21,15.21,0,0,1,45.17,75a15.51,15.51,0,0,1-3,3.43,6,6,0,0,1,2.39.68,4.52,4.52,0,0,1,1.79,1.81,6.3,6.3,0,0,1,.69,3.16,17.55,17.55,0,0,1-.26,2.86,15.79,15.79,0,0,1-1.52,4.65Q43.24,95.46,39.4,95.46Z"/><path class="cls-3" d="M58.65,89.25q-3,0-3.39-6.16a18.92,18.92,0,0,1-1.36,3.45c-.85,1.54-1.89,2.32-3.1,2.32a2.23,2.23,0,0,1-1.57-.52A2.82,2.82,0,0,1,48.44,87a5.78,5.78,0,0,1-.24-1.65,21.47,21.47,0,0,1,.17-2.53,19.64,19.64,0,0,1,.53-2.73,11.58,11.58,0,0,1,1-2.47,5.57,5.57,0,0,1,1.53-1.81,3.51,3.51,0,0,1,2.15-.68,2.48,2.48,0,0,1,2,1.1,2,2,0,0,1,.31-.72,2.21,2.21,0,0,1,1.87-.68,2.48,2.48,0,0,1,1.35.27,1,1,0,0,1,.4.89,4.41,4.41,0,0,1,0,.6c0,.33-.13,1-.25,2.12q-.37,3.71-.37,6.18c0,.3,0,.75,0,1.37s.16.93.41.93c.46,0,1.13-1,2-2.94A43.84,43.84,0,0,0,63,79.69a.56.56,0,0,1,.59-.42.68.68,0,0,1,.57.26.62.62,0,0,1,.12.38,24.16,24.16,0,0,1-.91,2.83C61.85,87.08,60.27,89.25,58.65,89.25ZM52,86.16c.26,0,.57-.38.94-1.15a23.26,23.26,0,0,0,1.1-2.69c.35-1,.66-2,.9-2.87a10.23,10.23,0,0,0,.4-1.81.94.94,0,0,0-.35-.33.88.88,0,0,0-.51-.16c-.89,0-1.62.91-2.18,2.73a17.67,17.67,0,0,0-.76,5.32C51.56,85.84,51.71,86.16,52,86.16Z"/><path class="cls-3" d="M73.3,89.25a2.3,2.3,0,0,1-1.65-.62,4.14,4.14,0,0,1-1-1.65,10.2,10.2,0,0,1-.55-2.3,12.37,12.37,0,0,1-.75,1.83A5,5,0,0,1,68.15,88a2.57,2.57,0,0,1-1.76.61,2.75,2.75,0,0,1-1.9-.58,3.69,3.69,0,0,1-1-1.62A10.16,10.16,0,0,1,63,84c-.07-.92-.1-1.91-.1-3,0-2.92.21-4.66.63-5.23a2,2,0,0,1,1.71-.68,2.52,2.52,0,0,1,1.36.27,1,1,0,0,1,.4.89,4.41,4.41,0,0,1,0,.6,46.71,46.71,0,0,0-.62,7.31,5.1,5.1,0,0,0,.18,1.56.7.7,0,0,0,.72.52c.62,0,1.25-1.35,1.89-4a28.82,28.82,0,0,0,1-5.57,1.79,1.79,0,0,1,.31-1.15,1.53,1.53,0,0,1,.82-.54,4,4,0,0,1,1.13-.15,2.48,2.48,0,0,1,1.35.27,1,1,0,0,1,.4.89c0,.18-.08.89-.25,2.14-.27,2.63-.4,4.86-.4,6.67,0,1.59.14,2.39.43,2.39.47,0,1.13-1,2-2.94a46.29,46.29,0,0,0,1.71-4.56.54.54,0,0,1,.57-.42.68.68,0,0,1,.57.26.62.62,0,0,1,.12.38,26.71,26.71,0,0,1-.9,2.83Q75.72,89.25,73.3,89.25Z"/><path class="cls-3" d="M80.8,89.55A2.14,2.14,0,0,1,79.23,89a5.86,5.86,0,0,1-1.43-3.55,27.72,27.72,0,0,1-.21-3.58q0-2.62.32-7.52c-.44,0-.88,0-1.3-.09a.43.43,0,0,1-.39-.35,3.41,3.41,0,0,1-.09-.87,2,2,0,0,1,.05-.49.29.29,0,0,1,.3-.25l.46,0,1.1.14c0-.56.08-1.15.14-1.75a1.25,1.25,0,0,1,.38-.89,2.64,2.64,0,0,1,1.78-.47,5.31,5.31,0,0,1,.81.07,1.24,1.24,0,0,1,.64.31,1,1,0,0,1,.25.78,10.42,10.42,0,0,1-.11,1.36c0,.25-.07.53-.1.85h1.71c.37,0,.55.2.55.59s-.11.57-.32.66a7,7,0,0,1-2.11.36q-.6,6.87-.6,10.84,0,2.34.39,2.34c.45,0,1.1-1,1.94-3a49.05,49.05,0,0,0,1.74-4.75.56.56,0,0,1,.59-.42.68.68,0,0,1,.57.26.62.62,0,0,1,.12.38,23.55,23.55,0,0,1-.75,2.44Q83.25,89.55,80.8,89.55Z"/><path class="cls-3" d="M88.5,89.25c-1.27,0-2.19-.83-2.75-2.49a15.32,15.32,0,0,1-.67-4.93q0-5.4.68-6.32a2.14,2.14,0,0,1,1.85-.68A2.5,2.5,0,0,1,89,75.1a1,1,0,0,1,.39.89,4.41,4.41,0,0,1,0,.6q-.06.43-.21,1.83c-.09.93-.18,2-.27,3.17s-.12,2.25-.12,3.21c0,1.59.14,2.39.43,2.39q.7,0,2-2.94a39.49,39.49,0,0,0,1.69-4.56.54.54,0,0,1,.57-.42.68.68,0,0,1,.57.26.65.65,0,0,1,.12.39,27.38,27.38,0,0,1-.89,2.82Q90.94,89.25,88.5,89.25ZM87.71,74A4.42,4.42,0,0,1,87,73.9a1,1,0,0,1-.58-.35,1.51,1.51,0,0,1-.22-.91,2.17,2.17,0,0,1,.25-1.17,1.22,1.22,0,0,1,.67-.51,3.66,3.66,0,0,1,1.68-.06.93.93,0,0,1,.58.35,1.51,1.51,0,0,1,.22.91A1.62,1.62,0,0,1,87.71,74Z"/><path class="cls-3" d="M93.9,99.23a3.16,3.16,0,0,1-2.31-.85,2.85,2.85,0,0,1-.84-2.08,6.94,6.94,0,0,1,1.67-4.53,24.92,24.92,0,0,1,3.8-3.41l1.09-.84a3.7,3.7,0,0,0-.56-1.5,1.43,1.43,0,0,0-1.27-.58l-1,.09h0c-.22,0-.33-.28-.33-.83a3.22,3.22,0,0,1,.47-1.47c.31-.57.65-1.13,1-1.7a5.89,5.89,0,0,0,1.09-2.14c0-.61-.66-1.23-2-1.87q-.33,1.53-.69,2.64a.56.56,0,0,1-.57.44.63.63,0,0,1-.56-.27A.68.68,0,0,1,92.8,80a.85.85,0,0,1,0-.26,19.6,19.6,0,0,0,.67-3,3,3,0,0,1-1-2.31v-.6a1.19,1.19,0,0,1,.39-1.07A2.18,2.18,0,0,1,94,72.44a3.36,3.36,0,0,1,.63.06,1.07,1.07,0,0,1,.52.23.7.7,0,0,1,.21.56,13.11,13.11,0,0,1-.27,2.59,3.61,3.61,0,0,0,1.06.75c.41.19.84.37,1.29.53s.85.33,1.23.51a3.22,3.22,0,0,1,.91.65,1.35,1.35,0,0,1,.36,1,2.06,2.06,0,0,1-.42,1.08,12.11,12.11,0,0,1-1,1.3c-.38.44-.75.84-1.09,1.2s-.59.65-.75.85a3.8,3.8,0,0,1,3.15,1.58,12.78,12.78,0,0,0,1.26-1.54,12,12,0,0,0,2-4.05.53.53,0,0,1,.56-.44.68.68,0,0,1,.57.26.62.62,0,0,1,.12.38.79.79,0,0,1,0,.25c-.23.73-.5,1.45-.81,2.19a13.1,13.1,0,0,1-1.22,2.2,13.68,13.68,0,0,1-1.7,2A6.67,6.67,0,0,1,101,89a12.22,12.22,0,0,1-.53,3.45,14,14,0,0,1-1.49,3.31,9.05,9.05,0,0,1-2.25,2.49A4.57,4.57,0,0,1,93.9,99.23Zm-.47-1.83a2.53,2.53,0,0,0,1.88-1.12,9.31,9.31,0,0,0,1.54-2.86,11,11,0,0,0,.61-3.6c0-.22,0-.43,0-.65Q96.1,90.23,95,91.27a10.26,10.26,0,0,0-1.86,2.21,5.07,5.07,0,0,0-.71,2.64,1.56,1.56,0,0,0,.26.92A.92.92,0,0,0,93.43,97.4Z"/><path class="cls-3" d="M107.16,89a3.18,3.18,0,0,1-2-.63q-2.2-1.74-2.21-6.59a21.94,21.94,0,0,1,.16-2.56,3.89,3.89,0,0,1,1-2.28,1.62,1.62,0,0,1,1.24-.51,2.63,2.63,0,0,1,.74.09,2.65,2.65,0,0,1,2.53-2c2,0,3.07,1.68,3.07,5a22.76,22.76,0,0,1-.36,4.13q2,0,3-3c.11-.35.21-.67.3-.94a.55.55,0,0,1,.59-.42.67.67,0,0,1,.56.26.69.69,0,0,1,.12.39,7.23,7.23,0,0,1-.36,1.28C114.67,83.72,113.16,85,111,85Q109.8,89,107.16,89Zm.31-1.7c.71,0,1.3-.86,1.76-2.57a5.1,5.1,0,0,1-2.85-2.54c0,.69-.08,1.31-.08,1.87a13.28,13.28,0,0,0,.1,1.62,3.23,3.23,0,0,0,.36,1.18A.79.79,0,0,0,107.47,87.28Zm2.07-4a18.48,18.48,0,0,0,.32-3.51,11.51,11.51,0,0,0-.21-2.44c-.21-.91-.62-1.36-1.22-1.36a.88.88,0,0,0-.8.52,3.93,3.93,0,0,0-.4,1.24,9,9,0,0,0-.11,1.32,4.77,4.77,0,0,0,.62,2.53A4.15,4.15,0,0,0,109.54,83.28Z"/><path class="cls-3" d="M42.46,62.77a1.2,1.2,0,0,1-.63-.25,1.78,1.78,0,0,1-.58-1A22.81,22.81,0,0,1,41,59.15c0-1-.14-2.1-.19-3.21s0-2.22,0-3.28a15.9,15.9,0,0,1,.11-2.5,2.57,2.57,0,0,1,.4-1.37.56.56,0,0,1,.5-.26A1.26,1.26,0,0,1,43,49.1a4.19,4.19,0,0,1,.33,2v2.11c0,1,.09,2,.1,3.11.13-1,.28-2,.45-3a21.72,21.72,0,0,1,.63-2.74,10.28,10.28,0,0,1,.85-2,1.43,1.43,0,0,1,1.06-.87,1.77,1.77,0,0,1,1.33.35,4,4,0,0,1,1,1.45,8.52,8.52,0,0,1,.65,3.1,9.2,9.2,0,0,1,.89-2.32,1.72,1.72,0,0,1,1.29-1,2.63,2.63,0,0,1,1.64.43,3.83,3.83,0,0,1,1.14,1.56,8.51,8.51,0,0,1,.53,3.43,4.82,4.82,0,0,0,0,.93v3.59a1.28,1.28,0,0,0,.31.64.54.54,0,0,0,.65.17c.26,0,.56-.41.9-.95a11.89,11.89,0,0,0,1.1-2.75,3.55,3.55,0,0,1,.19-.78,1.87,1.87,0,0,1,.2-.51c.08-.14.17-.22.25-.22.46,0,.56.52.29,1.36a6.44,6.44,0,0,1-.32,1.16,10.13,10.13,0,0,1-.72,1.74,5.24,5.24,0,0,1-1.13,1.55,2.22,2.22,0,0,1-1.55.67A2.12,2.12,0,0,1,53,59.76a20.26,20.26,0,0,1-.7-5.42v-.73A5.3,5.3,0,0,0,52,51.68c-.19-.36-.39-.5-.59-.46s-.65.55-.9,1.55a32.49,32.49,0,0,0-.73,3.79v1.69c0,1.27-.5,1.89-1.27,1.86a.8.8,0,0,1-.75-.51,3.21,3.21,0,0,1-.26-.67,25.22,25.22,0,0,1-.39-4.42V52.36A4.67,4.67,0,0,0,46.94,51a7.92,7.92,0,0,0-.19-1c0-.27-.17-.39-.28-.39s-.47.4-.72,1.07a19.58,19.58,0,0,0-.83,2.7c-.19,1.12-.39,2.39-.58,3.84s-.39,2.9-.59,4.45a1.46,1.46,0,0,1-.26.53,1.77,1.77,0,0,1-.41.36A.9.9,0,0,1,42.46,62.77Z"/><path class="cls-3" d="M59.34,61.05c-.68,0-1.16-.44-1.46-1.31a8.3,8.3,0,0,1-.34-2.59c0-1.9.11-3,.35-3.33a1.15,1.15,0,0,1,1-.36,1.35,1.35,0,0,1,.71.14.53.53,0,0,1,.21.47,2,2,0,0,1,0,.32c0,.15,0,.47-.1,1s-.1,1-.15,1.67-.06,1.18-.06,1.69c0,.83.07,1.25.23,1.25s.6-.51,1-1.55A19.07,19.07,0,0,0,61.62,56a.28.28,0,0,1,.3-.22.35.35,0,0,1,.3.13.38.38,0,0,1,.07.21,14.86,14.86,0,0,1-.47,1.48C61,59.91,60.19,61.05,59.34,61.05Zm-.43-8a2.33,2.33,0,0,1-.38,0,.45.45,0,0,1-.3-.18.79.79,0,0,1-.12-.48,1.15,1.15,0,0,1,.13-.62.58.58,0,0,1,.35-.26,1.59,1.59,0,0,1,.5-.07,2.34,2.34,0,0,1,.38,0,.53.53,0,0,1,.31.19.77.77,0,0,1,.12.48C59.9,52.69,59.57,53,58.91,53Z"/></svg>