<svg id="Background" xmlns="http://www.w3.org/2000/svg" viewBox="0 0 150 150"><defs><style>.cls-1{fill:#edc3cf;}.cls-2{fill:#fff;}.cls-3{fill:#42434c;}</style></defs><path class="cls-1" d="M119.24,48.15c-.49-6.3-2.81-13.12-8.38-16.12-6.27-3.38-14.13-.61-20,3.39a53.51,53.51,0,0,0-20.66,27.5,50,50,0,0,0-13.9-26.6c-3.84-3.82-9-7.17-14.31-6.22-6.58,1.16-10.39,8.35-11.13,15-1.11,10,2.42,19.92,6.81,29,7.73,15.92,19.14,34,32.18,46,5.64-3.71,10.55-8.5,16.33-12.24,7.34-4.74,13.79-12.07,19.09-18.94C114.21,77.26,120.37,62.8,119.24,48.15Z"/><path class="cls-2" d="M68.2,102.19c-3.7-.19-7.18-2.12-10.85-1.92a9.56,9.56,0,0,1,8.32-3.48,8.85,8.85,0,0,1,7.09,4C71.71,102.1,69.85,102.28,68.2,102.19Z"/><path class="cls-2" d="M70.91,106.82c-1.93-1.95-3.46,1.93-3.67,3.11-.89-.66-3.31-3-4.33-1.44s1.28,3.89,2.23,4.78a17.1,17.1,0,0,0,5,3.23,11,11,0,0,0,1.2-8.77A1.92,1.92,0,0,0,70.91,106.82Z"/><path class="cls-2" d="M104,50.15c-1.92,1.86,1.84,3.4,3,3.62-.65.86-3,3.19-1.45,4.2s3.81-1.2,4.68-2.12A16.53,16.53,0,0,0,113.42,51a10.82,10.82,0,0,0-8.54-1.26A2,2,0,0,0,104,50.15Z"/><path class="cls-2" d="M108.52,45.17a17.18,17.18,0,0,1-7.88,2.55,14.87,14.87,0,0,1,3.28-6,9.76,9.76,0,0,1,5.73-3c3.58-.44,2.63,3.16.86,4.84A13,13,0,0,1,108.52,45.17Z"/><path class="cls-2" d="M98.51,47.74C98.25,44.37,97.35,40.56,94,39a1.54,1.54,0,0,0-.84-.18,1.19,1.19,0,0,0-.88.8,2.72,2.72,0,0,0-.05,1.24c.47,3.25,3.47,5.74,6.3,7a14.25,14.25,0,0,0-.68-4.1"/><path class="cls-2" d="M97.6,38.52a.94.94,0,0,0,0-1.88.94.94,0,0,0,0,1.88Z"/><path class="cls-2" d="M113,46.63a.94.94,0,0,0,0-1.88.94.94,0,0,0,0,1.88Z"/><path class="cls-2" d="M63.25,106.21a1,1,0,0,0,0-1.93,1,1,0,0,0,0,1.93Z"/><path class="cls-2" d="M96.34,53a.94.94,0,0,0,0-1.88.94.94,0,0,0,0,1.88Z"/><path class="cls-2" d="M77.07,107h.13a1,1,0,1,0,0-2h-.13a1,1,0,1,0,0,2Z"/><path class="cls-2" d="M71.56,95.26a1,1,0,0,0,0-1.93,1,1,0,0,0,0,1.93Z"/><path class="cls-3" d="M46.76,64a.77.77,0,0,1-.41-.16,1.13,1.13,0,0,1-.37-.67,14.84,14.84,0,0,1-.19-1.5c0-.65-.09-1.35-.12-2.07s0-1.43,0-2.11,0-1.21.07-1.61A1.69,1.69,0,0,1,46,55a.37.37,0,0,1,.32-.17.81.81,0,0,1,.76.37,2.65,2.65,0,0,1,.21,1.31c0,.28,0,.73,0,1.36s.06,1.29.07,2c.08-.63.18-1.27.29-1.92a13.33,13.33,0,0,1,.4-1.77,6.76,6.76,0,0,1,.55-1.3.93.93,0,0,1,.68-.56,1.14,1.14,0,0,1,.86.23,2.58,2.58,0,0,1,.67.93,5.63,5.63,0,0,1,.42,2,6,6,0,0,1,.57-1.5,1.1,1.1,0,0,1,.83-.66,1.67,1.67,0,0,1,1.06.28,2.5,2.5,0,0,1,.73,1,5.42,5.42,0,0,1,.34,2.21,4,4,0,0,0,0,.6c0,.19,0,.35,0,.49,0,.45,0,.84,0,1.17s0,.54,0,.65a.83.83,0,0,0,.2.41.34.34,0,0,0,.42.11c.17,0,.36-.26.58-.61a7.53,7.53,0,0,0,.71-1.77,2.27,2.27,0,0,1,.12-.5,1.13,1.13,0,0,1,.13-.33c.05-.09.11-.14.16-.14.3,0,.36.33.19.87,0,.14-.1.39-.21.75a6.43,6.43,0,0,1-.46,1.12,3.48,3.48,0,0,1-.73,1,1.44,1.44,0,0,1-1,.43,1.37,1.37,0,0,1-1.34-1,13.29,13.29,0,0,1-.45-3.49v-.47a3.3,3.3,0,0,0-.21-1.24c-.12-.23-.25-.32-.38-.3s-.42.36-.58,1A20.65,20.65,0,0,0,51.44,60c0,.13,0,.3,0,.48s0,.39,0,.61c0,.82-.32,1.22-.82,1.2a.52.52,0,0,1-.48-.33,2.26,2.26,0,0,1-.17-.43,16.06,16.06,0,0,1-.25-2.85v-.44c0-.31,0-.63,0-.94s0-.59-.08-.85a4.38,4.38,0,0,0-.12-.63c0-.17-.11-.25-.18-.25s-.3.26-.46.69A12.87,12.87,0,0,0,48.34,58c-.12.72-.25,1.54-.37,2.47s-.25,1.87-.38,2.87a1,1,0,0,1-.17.34,1,1,0,0,1-.26.23A.56.56,0,0,1,46.76,64Z"/><path class="cls-3" d="M65.21,64.52a.22.22,0,0,1,.21,0,.39.39,0,0,1,.17.14.31.31,0,0,1,0,.23.34.34,0,0,1-.13.2l-.45.27a3.12,3.12,0,0,1-.49.23,4.77,4.77,0,0,1-1.06.3c-.36.06-.72.11-1.09.15l0,.37c0,.12,0,.24,0,.36-.06.4-.14.8-.23,1.2a5.77,5.77,0,0,1-.39,1.15,3.94,3.94,0,0,1-.52.86,2.19,2.19,0,0,1-.8.62,1.94,1.94,0,0,1-1,.18A2.14,2.14,0,0,1,57.91,70a4.62,4.62,0,0,1-.52-.73,2.27,2.27,0,0,1-.29-.84,2,2,0,0,1,.45-1.72,2.2,2.2,0,0,1,.71-.54,7.18,7.18,0,0,1,.81-.32,5,5,0,0,1,.85-.2c.28,0,.56-.09.86-.12,0-.49,0-1,0-1.4s0-.83,0-1.18l0-1.13-.11-5.15c-.12.62-.25,1.27-.4,2s-.3,1.36-.48,2a10.1,10.1,0,0,1-.59,1.62,1.73,1.73,0,0,1-.71.89,1,1,0,0,1-.64.09,1.05,1.05,0,0,1-.55-.29,2.13,2.13,0,0,1-.49-.91,1.35,1.35,0,0,1-.11-.45c0-.17,0-.32-.07-.45a4.46,4.46,0,0,1,0-.5c0-.88,0-1.74,0-2.57a16.75,16.75,0,0,1,.11-1.87,1.46,1.46,0,0,1,.12-.5,1.63,1.63,0,0,1,.19-.34.34.34,0,0,1,.29-.16.83.83,0,0,1,.78.37,2.65,2.65,0,0,1,.19,1.32c0,.16,0,.4,0,.73s0,.71,0,1.14,0,.88,0,1.37,0,1,0,1.47c0,.12,0,.18.08.18s.24-.23.41-.71.35-1.07.54-1.74.36-1.36.53-2.09.3-1.31.39-1.76a2.76,2.76,0,0,1,.36-1,.9.9,0,0,1,.4-.37.4.4,0,0,1,.34,0c.1.05.15.08.15.1a1.62,1.62,0,0,1,.55.61,2.94,2.94,0,0,1,.3,1.55l0,2.55c0,.34,0,.7,0,1.09s0,.75,0,1.11V63c0,.82,0,1.62,0,2.42a8.32,8.32,0,0,0,1.41-.25A4.59,4.59,0,0,0,65.21,64.52Zm-6.9,5a2.86,2.86,0,0,0,.43.35,1.33,1.33,0,0,0,.51.2.63.63,0,0,0,.59-.27,2.62,2.62,0,0,0,.43-.87,9,9,0,0,0,.28-1.25c.08-.47.14-1,.18-1.46a9.4,9.4,0,0,0-1.17.38,3.63,3.63,0,0,0-1,.57,1.91,1.91,0,0,0-.62.84,1.37,1.37,0,0,0,.11,1.1.57.57,0,0,1,.11.16A.92.92,0,0,0,58.31,69.57Z"/><path class="cls-3" d="M13.39,78.2a3.67,3.67,0,0,1-.88.13,2.94,2.94,0,0,1-.66,0,3.32,3.32,0,0,1-.62-.16c.08,1.15.15,2.23.2,3.24s.06,1.89,0,2.63a7.3,7.3,0,0,1-.06,1.32,3,3,0,0,1-.22.93q-.19.42-.51.45a1.46,1.46,0,0,1-1.44-1,8.93,8.93,0,0,1-.67-3.41c0-.57-.1-1.45-.23-2.63S8.1,77.21,8,75.83s-.19-2.8-.26-4.2a36.3,36.3,0,0,1,0-3.73A2.56,2.56,0,0,1,8,66.39a1.24,1.24,0,0,1,.7-.38.66.66,0,0,1,.51.09,1,1,0,0,1,.42.38,2.72,2.72,0,0,1,.34.87,1.79,1.79,0,0,1,.09.46,4.76,4.76,0,0,1,.37-1.39,11.38,11.38,0,0,1,.72-1.33,6.28,6.28,0,0,1,1.21-1.41,3.9,3.9,0,0,1,.51-.4A3.35,3.35,0,0,1,14.28,63a2.49,2.49,0,0,1,.89.23,4.23,4.23,0,0,1,.86.59A4.47,4.47,0,0,1,16.94,65a12.09,12.09,0,0,1,.44,1.28c.1.41.2.89.3,1.46a11.42,11.42,0,0,1,.15,1.84,13.75,13.75,0,0,1-.28,2.79,14.25,14.25,0,0,1-.79,2.53,7,7,0,0,1-1.54,2.34,4,4,0,0,1,1.38.55,5.94,5.94,0,0,1,1.12.94,4.17,4.17,0,0,1,.91,1.66l.68-.17a4.67,4.67,0,0,1,.81-.17l1.09-.14a6,6,0,0,1,1.41,0,1.18,1.18,0,0,1,.56.14v0s0,.09-.12.13l-.49.2L22,80.5a2.66,2.66,0,0,1-.49.1l-.49.1-.94.22a6.44,6.44,0,0,0-.72.2l-.62.17a4.16,4.16,0,0,1,.08,1.36,5.52,5.52,0,0,1-.28,1.4,5.78,5.78,0,0,1-.89,1.66,6.27,6.27,0,0,1-.74.88,8.83,8.83,0,0,1-.81.68,4.92,4.92,0,0,1-1.23.57A3.43,3.43,0,0,1,14,88a3,3,0,0,1-.79-.11,1.29,1.29,0,0,1-.81-.57,2,2,0,0,1-.29-.87,3,3,0,0,1,.09-1,1.53,1.53,0,0,1,.17-.55A3.21,3.21,0,0,1,13,83.68a5.43,5.43,0,0,1,.74-.84,7.56,7.56,0,0,1,1-.78,9.88,9.88,0,0,1,1.54-.82,3.47,3.47,0,0,0-.65-1.56,4.09,4.09,0,0,0-1-.9A3.58,3.58,0,0,0,13.39,78.2ZM12,65.75a7.72,7.72,0,0,0-.77,1.77c-.17.6-.31,1.14-.41,1.62s-.19,1.11-.26,1.66c.15,1,.28,2,.39,3.14s.2,2.29.28,3.44a1.44,1.44,0,0,1,.4-.13l.5-.1.36,0a3,3,0,0,0,1.42-1.67,12.3,12.3,0,0,0,.86-3A17.36,17.36,0,0,0,15,69.2a8.79,8.79,0,0,0-.4-2.74,3.11,3.11,0,0,0-.71-1.28.92.92,0,0,0-.76-.29,1.07,1.07,0,0,0-.75.36C12.21,65.47,12.06,65.64,12,65.75ZM16.39,82.3a7.07,7.07,0,0,0-.84.49c-.25.17-.46.33-.67.49a5,5,0,0,0-.59.54,4.17,4.17,0,0,0-.9,1.38l-.15.43a2.28,2.28,0,0,0-.11.45.86.86,0,0,0,0,.45.79.79,0,0,0,.2.37.69.69,0,0,1,.19.1.53.53,0,0,0,.33.15,6.39,6.39,0,0,0,1.76-2,5.92,5.92,0,0,0,.76-2.84Z"/><path class="cls-3" d="M35.12,78.51c.46,0,.59.51.37,1.36a6.84,6.84,0,0,0-.19.81c-.08.4-.18.85-.31,1.36s-.31,1.07-.5,1.59a8.93,8.93,0,0,1-.73,1.53,4.29,4.29,0,0,1-1,1.13,2,2,0,0,1-1.25.44,2.76,2.76,0,0,1-1.81-.61A4.5,4.5,0,0,1,28.53,84a3.58,3.58,0,0,1-1.07,1.31,3.48,3.48,0,0,1-2,.58,3.94,3.94,0,0,1-2.23-.52,4.78,4.78,0,0,1-1.5-1.4,6,6,0,0,1-.86-1.74,7.58,7.58,0,0,1-.32-1.56,11.55,11.55,0,0,1,.31-3.36,6.49,6.49,0,0,1,1.3-2.46A4.59,4.59,0,0,1,25,73.37a4,4,0,0,1,.91,0c.24,0,.53.1.85.18a2,2,0,0,1,.88.45,5.68,5.68,0,0,1,0-.59,5.25,5.25,0,0,1,.14-.87,1.67,1.67,0,0,1,.36-.73.77.77,0,0,1,.66-.28,1.57,1.57,0,0,1,1.28.9,4.53,4.53,0,0,1,.52,1.82c0,.22,0,.62.07,1.22s.06,1.27.1,2,.08,1.56.13,2.4.09,1.62.14,2.35.11,1.37.17,1.91a6.82,6.82,0,0,0,.14,1,.57.57,0,0,0,.37.45c.21.09.46,0,.73-.32a5.8,5.8,0,0,0,.93-1.67,21.93,21.93,0,0,0,1-3.56,3.4,3.4,0,0,1,.18-.78,1.63,1.63,0,0,1,.21-.53C34.94,78.59,35,78.51,35.12,78.51Zm-6.65.87a10.56,10.56,0,0,0-.13-1.48c-.08-.44-.16-.84-.25-1.19a8.65,8.65,0,0,0-.4-1.07,4.26,4.26,0,0,0-.52-.87,1.49,1.49,0,0,0-.77-.53,1,1,0,0,0-1,.25,3.16,3.16,0,0,0-.8,1.25,10.22,10.22,0,0,0-.54,2,25.1,25.1,0,0,0-.29,2.61,9.15,9.15,0,0,0,.18,2.76,4,4,0,0,0,.63,1.39,1.52,1.52,0,0,0,1,.59,2.13,2.13,0,0,0,1-.28,2.68,2.68,0,0,0,.75-.63,3.56,3.56,0,0,0,.53-.87,7.64,7.64,0,0,0,.37-.94,8.63,8.63,0,0,0,.27-1.6c0-.52.06-1,.06-1.43Z"/><path class="cls-3" d="M47.27,78.19a.6.6,0,0,1-.08.29,4.29,4.29,0,0,1-.83.76,8,8,0,0,1-2,1,7.76,7.76,0,0,1-2,3.81,4,4,0,0,1-2.52,1.25,5.17,5.17,0,0,1-.68,0,3.57,3.57,0,0,1-.64-.11,1.46,1.46,0,0,1-.61-.36,2.19,2.19,0,0,1-.55-.86,2.46,2.46,0,0,1,0-1.37A2.62,2.62,0,0,1,38,81.34a3.45,3.45,0,0,1,1-.79,5.24,5.24,0,0,1,1.27-.47c.47-.11,1-.23,1.47-.32a28.27,28.27,0,0,0,.34-3,16.85,16.85,0,0,0,0-2.84,6,6,0,0,0-.52-2,1,1,0,0,0-1.06-.66A2.17,2.17,0,0,0,39,72.54a13.13,13.13,0,0,0-1,2.68,27.72,27.72,0,0,0-.54,2.72c-.12.84-.2,1.34-.23,1.5A17.34,17.34,0,0,1,37,82.23c-.15.74-.38,1.12-.68,1.16a.62.62,0,0,1-.51-.14,2,2,0,0,1-.49-.65,4.82,4.82,0,0,1-.46-1.45c-.08-.43-.17-1.06-.26-1.9s-.17-1.81-.24-2.89-.14-2.24-.2-3.46S34,70.49,34,69.34s0-2.24-.06-3.26,0-1.87.07-2.55a8.67,8.67,0,0,1,.12-1.25,3.24,3.24,0,0,1,.25-.91.61.61,0,0,1,.55-.42,1.46,1.46,0,0,1,1.4,1,8.49,8.49,0,0,1,.51,3.3c0,.32,0,.78,0,1.39s0,1.29.09,2,.08,1.59.12,2.45.1,1.77.14,2.68a8.71,8.71,0,0,1,1.22-2.53,2.49,2.49,0,0,1,2-1.15,3.36,3.36,0,0,1,2.35.81,5.21,5.21,0,0,1,1.41,2.14,9.61,9.61,0,0,1,.59,3,13.32,13.32,0,0,1-.2,3.15,3.57,3.57,0,0,0,1.73-1,1.68,1.68,0,0,1,.4-.3.53.53,0,0,1,.18,0q.32.06.33.27Zm-8,5.85a.58.58,0,0,0,.43,0l.38-.18a1.42,1.42,0,0,0,.31-.29A4.12,4.12,0,0,0,41,82.4c.16-.46.32-1,.47-1.51a10,10,0,0,0-1.58.59,1.88,1.88,0,0,0-1.11,1.21,1.57,1.57,0,0,0-.1.61,1,1,0,0,0,.14.45.65.65,0,0,0,.48.29Z"/><path class="cls-3" d="M73.21,83.35a2.88,2.88,0,0,0,2-1.08,4.55,4.55,0,0,0,.95-3,8.09,8.09,0,0,0-.31-2,9.33,9.33,0,0,0-.72-1.69A10,10,0,0,0,74,74c-.45-.53-1-1.1-1.54-1.72a12.73,12.73,0,0,1-2-2.56,9.73,9.73,0,0,1-.63-1.35,7.33,7.33,0,0,1-.42-2.5,8.13,8.13,0,0,1,.26-2,6.58,6.58,0,0,1,.69-1.77,4.5,4.5,0,0,1,.91-1.08,4.35,4.35,0,0,1,1.23-.76,5,5,0,0,1,1.78-.36,4.8,4.8,0,0,1,1.19.16,6.63,6.63,0,0,1,1,.39,3.11,3.11,0,0,1,1,.79A2.32,2.32,0,0,1,78,62a5.52,5.52,0,0,1,.34.88,7.6,7.6,0,0,1,.25,1.17v.28a1.57,1.57,0,0,1-.05.37,2.57,2.57,0,0,1-.21,1,.68.68,0,0,1-.86.38,1,1,0,0,1-.6-.49,1.84,1.84,0,0,1,0-1,3.35,3.35,0,0,0,0-1.41,2,2,0,0,0-.35-.87,2.47,2.47,0,0,0-.51-.56,2.61,2.61,0,0,0-.68-.36,2,2,0,0,0-.85-.12,2.3,2.3,0,0,0-.57.11,2.21,2.21,0,0,0-.89.62,3.31,3.31,0,0,0-.67,1.75c0,.16-.07.41-.11.75a6.7,6.7,0,0,0-.06,1.1,7.6,7.6,0,0,0,.16,1.27,4.09,4.09,0,0,0,.49,1.27,11,11,0,0,0,.91,1.47,21.47,21.47,0,0,0,1.82,2.2c.79.87,1.42,1.6,1.88,2.19l.51.8A8.38,8.38,0,0,1,78.55,76,8.71,8.71,0,0,1,79,77.64a7.6,7.6,0,0,1,.06,2,5,5,0,0,1-.37,1.65,6.27,6.27,0,0,1-.83,1.44,4.31,4.31,0,0,1-2.78,1.8,6.85,6.85,0,0,1-1.49.2,6.07,6.07,0,0,1-1.89-.25,4.42,4.42,0,0,1-1.43-.61,4.91,4.91,0,0,1-1-.85,5.79,5.79,0,0,1-1.34-2.57,10.8,10.8,0,0,1-.1-1.5,8.6,8.6,0,0,1,.14-1.52,5.45,5.45,0,0,1,.53-1.53,6,6,0,0,1,.71-1.09A7.93,7.93,0,0,1,70,74a1.47,1.47,0,0,1,.64-.24.56.56,0,0,1,.54.28.87.87,0,0,1,.09.63,1.21,1.21,0,0,1-.37.5,7.9,7.9,0,0,1-.64.52,4.37,4.37,0,0,0-.68.68,2.73,2.73,0,0,0-.32.61A4,4,0,0,0,69,78.58a5.63,5.63,0,0,0,.09,1,10,10,0,0,0,.24,1,3.13,3.13,0,0,0,.52,1,4.77,4.77,0,0,0,.85.89,4.69,4.69,0,0,0,1,.6A3.35,3.35,0,0,0,73.21,83.35Z"/><path class="cls-3" d="M94.26,77.62q.67.13.24,1.38l-.45,1.52a20.51,20.51,0,0,1-1,2.5,10,10,0,0,1-1.44,2.31,2.29,2.29,0,0,1-1.93,1,2.59,2.59,0,0,1-1-.3,2,2,0,0,1-.81-.92,6.66,6.66,0,0,1-.55-1.81,19.59,19.59,0,0,1-.2-3l.05-2.65v-1q0-.64-.06-1.29a7.44,7.44,0,0,0-.18-1.15,1.15,1.15,0,0,0-.35-.67c-.12-.08-.27,0-.45.27a6.37,6.37,0,0,0-.6,1.12c-.21.48-.42,1-.63,1.64s-.42,1.24-.63,1.88-.39,1.26-.54,1.85-.27,1.08-.37,1.48a1,1,0,0,1-.23.48,1,1,0,0,1-.42.33,1.09,1.09,0,0,1-.64.1.78.78,0,0,1-.25-.07.66.66,0,0,1-.33-.31,3.53,3.53,0,0,1-.33-.71,5,5,0,0,1-.25-1.27c0-.43-.09-1.07-.12-1.91s0-1.82,0-2.9,0-2.25,0-3.47.06-2.4.12-3.56.12-2.24.18-3.25.16-1.87.26-2.54a8.68,8.68,0,0,1,.21-1.24,3,3,0,0,1,.32-.88.61.61,0,0,1,.58-.39,1.4,1.4,0,0,1,1.32,1A8.52,8.52,0,0,1,84,64.49c0,.43,0,1.06,0,1.89s0,1.78-.08,2.86-.08,2.2-.12,3.38-.1,2.33-.19,3.46c.2-.54.4-1,.6-1.54a11.17,11.17,0,0,1,.67-1.34,4.27,4.27,0,0,1,.77-1,1.43,1.43,0,0,1,.83-.41,3.1,3.1,0,0,0,.44,0,1.56,1.56,0,0,1,.43,0,2.94,2.94,0,0,1,1.16.34,2.4,2.4,0,0,1,.91,1,5.75,5.75,0,0,1,.54,1.8,15.75,15.75,0,0,1,.14,2.83c0,.18,0,.38,0,.58s0,.41,0,.62q0,.89-.06,1.77c0,.59,0,1.14-.06,1.65s0,1,0,1.31a2.81,2.81,0,0,0,0,.71.4.4,0,0,0,.33.39c.2,0,.46-.11.79-.46a7.58,7.58,0,0,0,1.1-1.73,25.65,25.65,0,0,0,1.37-3.5,3.36,3.36,0,0,1,.24-.76,1.83,1.83,0,0,1,.26-.5A.41.41,0,0,1,94.26,77.62Z"/><path class="cls-3" d="M108,74.08a.23.23,0,0,1,0,.2.79.79,0,0,1-.43.43A13.42,13.42,0,0,1,103.2,76c-.06.72-.18,1.63-.36,2.74A15.43,15.43,0,0,1,102,81.9a7.53,7.53,0,0,1-1.68,2.63,3.33,3.33,0,0,1-2.75.94,4,4,0,0,1-2-.61,3.83,3.83,0,0,1-1.25-1.28,5.09,5.09,0,0,1-.62-1.68,11.42,11.42,0,0,1-.2-1.76,7,7,0,0,1,.08-1.52,9.18,9.18,0,0,1,.23-1,6.74,6.74,0,0,1,.43-1.24,2.23,2.23,0,0,1,.58-.84,1.91,1.91,0,0,1,1.27-.34,1,1,0,0,1,1,1v.06a11.34,11.34,0,0,1-.27,1.84,12,12,0,0,0-.23,1.79,13.22,13.22,0,0,0,0,2,5.84,5.84,0,0,0,.34,1.65c.18.45.44.69.77.72a1.33,1.33,0,0,0,1.12-.48,4.68,4.68,0,0,0,.91-1.63,18.47,18.47,0,0,0,.68-2.63c.19-1,.34-2.21.45-3.49a13.2,13.2,0,0,1-3.1-.61,7.36,7.36,0,0,1-2.3-1.17,3.47,3.47,0,0,1-1.18-1.93,4.06,4.06,0,0,1,.1-2.34,3.5,3.5,0,0,1,1.51-1.82A4.81,4.81,0,0,1,99,67.68a3.7,3.7,0,0,1,2.46,1.13A6.23,6.23,0,0,1,102.7,71a9.49,9.49,0,0,1,.51,2.23c.05.48.07.95.08,1.43a20.81,20.81,0,0,0,2.13-.19,6.38,6.38,0,0,0,1.81-.53l.32-.07a1,1,0,0,1,.25,0C107.89,73.87,107.94,74,108,74.08Zm-7,.46c0-.19,0-.58,0-1.17a9.87,9.87,0,0,0-.15-1.88,5.68,5.68,0,0,0-.63-1.83,2.14,2.14,0,0,0-1.42-1.07,2.2,2.2,0,0,0-2,.26,2.27,2.27,0,0,0-.83,1.5,3.62,3.62,0,0,0,.28,1.92,2.91,2.91,0,0,0,1.45,1.52,5.37,5.37,0,0,0,1.37.45,18.26,18.26,0,0,0,1.92.31Z"/><path class="cls-3" d="M123,78.79c-.47.2-2.41-.56-2.62-.65-.08.4-.19.83-.31,1.28s-.27.94-.45,1.47c-.12.37-.27.81-.45,1.34a7,7,0,0,1-.76,1.52A5.31,5.31,0,0,1,117.2,85a2.4,2.4,0,0,1-1.58.53,2.58,2.58,0,0,1-1.82-.65,4.12,4.12,0,0,1-1-2.11,7.63,7.63,0,0,1-1.71,2.31,3.27,3.27,0,0,1-2.63.78,3.41,3.41,0,0,1-1.94-.82,4.46,4.46,0,0,1-1.15-1.69,8,8,0,0,1-.49-2.2,15.7,15.7,0,0,1-.07-2.27A17.76,17.76,0,0,1,105,77a10.29,10.29,0,0,1,.26-1.2A10.73,10.73,0,0,1,105.8,74a4.09,4.09,0,0,1,.71-1.19,1.2,1.2,0,0,1,1.08-.43,1,1,0,0,1,.73.42,2,2,0,0,1,.26.92A5.71,5.71,0,0,1,108.5,75c-.08.46-.17.91-.29,1.37a16.71,16.71,0,0,0-.34,2.12,24.66,24.66,0,0,0-.15,2.72,13.68,13.68,0,0,0,.19,2.39c.12.68.35,1,.68,1.08a1.36,1.36,0,0,0,1.17-.48,4.79,4.79,0,0,0,.95-1.67,19.4,19.4,0,0,0,.75-2.68c.21-1,.39-2.25.54-3.59,0-.16.09-.34.15-.53a1.54,1.54,0,0,1,.26-.53,1.15,1.15,0,0,1,.45-.37,1.06,1.06,0,0,1,.68,0,1.71,1.71,0,0,1,1.22,1,4.51,4.51,0,0,1,.37,1.43c0,.68,0,1.35.07,2s.07,1.3.09,1.88,0,1.08.07,1.5,0,.69.06.83a1.86,1.86,0,0,0,.23.47.75.75,0,0,0,.36.32.84.84,0,0,0,1-.39,6.12,6.12,0,0,0,.81-1.59,16.86,16.86,0,0,0,.62-2.29c.17-.85.32-1.69.43-2.52a6.57,6.57,0,0,1-1.24-1.23,4.54,4.54,0,0,1-.83-2.06,5,5,0,0,1-.07-2.18,3,3,0,0,1,.55-1.13,1.6,1.6,0,0,1,1-.52,2.16,2.16,0,0,1,1.59.81,4.3,4.3,0,0,1,.83,2,11.63,11.63,0,0,1-.16,4,9.74,9.74,0,0,0,2,.94C123,78.17,123.18,78.57,123,78.79Zm-4.61-4.46a4.94,4.94,0,0,0,.73,1.45,10.49,10.49,0,0,0,0-1.94,2.8,2.8,0,0,0-.34-1.12c-.17-.26-.32-.39-.45-.37s-.23.19-.23.5A4.4,4.4,0,0,0,118.34,74.33Z"/><path class="cls-3" d="M132,79.58c.42.1.47.57.16,1.4l-.23.55a4.34,4.34,0,0,0-.2.5,2,2,0,0,1-.2.42A10.5,10.5,0,0,1,129.9,85a4.78,4.78,0,0,1-2.65,1.54,5.33,5.33,0,0,1-2.54-.13,2.94,2.94,0,0,1-1.27-.7,3.81,3.81,0,0,1-.82-1.13,5.53,5.53,0,0,1-.45-1.43,9.94,9.94,0,0,1-.17-1.54,17.61,17.61,0,0,1,.34-4,10.16,10.16,0,0,1,1-2.71,4.69,4.69,0,0,1,1.41-1.56,2,2,0,0,1,2.06-.09,2.06,2.06,0,0,1,1.08,1.13,5.4,5.4,0,0,1,.35,1.82,7.72,7.72,0,0,1-.25,2.09,11.73,11.73,0,0,1-.69,2,6.52,6.52,0,0,1-1,1.61,2.1,2.1,0,0,1-1.18.8,6.16,6.16,0,0,0,.33,1.76,1.25,1.25,0,0,0,1,.91,2.64,2.64,0,0,0,1.34-.15,3.51,3.51,0,0,0,1.11-.71,6.63,6.63,0,0,0,.91-1,7.35,7.35,0,0,0,.68-1.06,3.11,3.11,0,0,0,.2-.41,2.68,2.68,0,0,1,.19-.42c.08-.16.15-.33.23-.52a2.55,2.55,0,0,1,.34-.75,1.72,1.72,0,0,1,.29-.49C131.85,79.64,132,79.57,132,79.58Zm-6.75-.18a4.31,4.31,0,0,0-.1.61l0,.65a7.18,7.18,0,0,0,0,.82,3.55,3.55,0,0,0,1-1.18,7.27,7.27,0,0,0,.81-2.79c0-.43.05-.83.05-1.18s0-.6-.06-.91a.93.93,0,0,0-.27-.63c-.12,0-.25.14-.4.45a7.71,7.71,0,0,0-.46,1.38C125.66,77.27,125.48,78.19,125.29,79.4Z"/><path class="cls-3" d="M142,80.33c.45.12.49.58.14,1.4a11,11,0,0,0-.57,1.37,14.57,14.57,0,0,1-1.07,2.17,9.43,9.43,0,0,1-1.55,2,2.27,2.27,0,0,1-1.92.72c-1.6-.21-2.46-1.68-2.58-4.43A42.18,42.18,0,0,1,136.11,72a.62.62,0,0,1,.07-.23.46.46,0,0,0,.06-.23.64.64,0,0,1,.13-.29c-.31,0-.64,0-1,0a4.63,4.63,0,0,1-1-.14,14.32,14.32,0,0,1-.24,2.69q-.27,1.5-.63,2.85c-.25.91-.48,1.69-.7,2.36l-.4,1.25c-.27.85-.62,1.2-1.07,1-.09,0-.13-.13-.13-.29a1.58,1.58,0,0,1,.13-.56,4.3,4.3,0,0,1,.26-.79,24.85,24.85,0,0,0,.94-3.48c.18-.91.31-1.83.4-2.75a12.2,12.2,0,0,0,0-1.91,3,3,0,0,0-.18-1,2.1,2.1,0,0,1-.35-.66,1.47,1.47,0,0,1,0-.47.89.89,0,0,1,.08-.32.48.48,0,0,1,.3-.24.85.85,0,0,1,.32,0,1.53,1.53,0,0,1,.36.07,1.28,1.28,0,0,1,.59.49,5.81,5.81,0,0,0,1.12.48,10.75,10.75,0,0,0,1.86.37,2.07,2.07,0,0,1,.49.12,2,2,0,0,1,1,.68,4.2,4.2,0,0,1,.33,1.2,4.64,4.64,0,0,1-.22,1.89,32.09,32.09,0,0,0-.77,3.33c-.25,1.27-.44,2.51-.59,3.72s-.25,2.29-.28,3.23a5.91,5.91,0,0,0,.12,1.92.9.9,0,0,0,.39.45c.19.11.44,0,.76-.22a5.92,5.92,0,0,0,1.13-1.5A26.23,26.23,0,0,0,141,81.75a7.12,7.12,0,0,1,.35-.74,2.34,2.34,0,0,1,.27-.49A.42.42,0,0,1,142,80.33Z"/><path class="cls-3" d="M64.66,79.89a3,3,0,0,0-3.74.34,2.31,2.31,0,0,0,.44,4c.62.23,1.09-.47.54-.86s-.76-.39-1-.86.09-1.42.51-1.84A2.11,2.11,0,0,1,64,80.43a2.73,2.73,0,0,1,1.06,2.28,3.49,3.49,0,0,1-1.4,2.35,11.35,11.35,0,0,1-4.2,2.19,13.7,13.7,0,0,1-2.47.41c0-1.24.06-2.48,0-3.75,0-.4,0-.85,0-1.36V80.94c0-.56,0-1.13,0-1.73s0-1.15-.06-1.69l-.13-3.94a4.36,4.36,0,0,0-.53-2.41,3.29,3.29,0,0,0-1-.94s-.09-.08-.26-.15a.76.76,0,0,0-.59,0,1.55,1.55,0,0,0-.71.58,4.05,4.05,0,0,0-.61,1.61c-.15.7-.37,1.61-.66,2.72s-.6,2.2-.91,3.25-.62,1.94-.91,2.7-.53,1.13-.72,1.11-.14-.09-.14-.28c0-.75,0-1.51,0-2.27s-.05-1.48-.07-2.13,0-1.24-.06-1.76,0-.88,0-1.13a3.56,3.56,0,0,0-.36-2,1.48,1.48,0,0,0-1.37-.57.63.63,0,0,0-.51.25,2.62,2.62,0,0,0-.33.53,2.37,2.37,0,0,0-.2.77,20.27,20.27,0,0,0-.15,2.91c0,1.29,0,2.61.06,4a6.68,6.68,0,0,0,.07.77c0,.21.08.45.12.7a2.44,2.44,0,0,0,.2.7,3.37,3.37,0,0,0,.87,1.4,2,2,0,0,0,2.11.29,2.83,2.83,0,0,0,1.23-1.38,15.24,15.24,0,0,0,1-2.52q.45-1.44.81-3.06l.67-3L54,82.13l0,1.77c0,.54,0,1.15,0,1.83s0,1.41-.07,2.16l-1.5.2a11,11,0,0,0-1.49.32,13.32,13.32,0,0,0-1.42.52,3.85,3.85,0,0,0-1.23.84,2.86,2.86,0,0,0-.78,2.68,3.38,3.38,0,0,0,.52,1.29A6.67,6.67,0,0,0,49,94.86a4.2,4.2,0,0,0,4.41.83,3.83,3.83,0,0,0,1.38-1,6,6,0,0,0,.91-1.33,9.4,9.4,0,0,0,.67-1.79c.16-.62.29-1.25.39-1.87,0-.18,0-.37,0-.56s0-.38.05-.57a12.21,12.21,0,0,0,7.5-2.91,4.25,4.25,0,0,0,1.53-2.84A3.32,3.32,0,0,0,64.66,79.89Zm-11,11.44a13.25,13.25,0,0,1-.49,2,3.81,3.81,0,0,1-.73,1.34,1.12,1.12,0,0,1-1,.43,2.28,2.28,0,0,1-.91-.3,5.91,5.91,0,0,1-.77-.54,1.29,1.29,0,0,1-.33-.37.83.83,0,0,0-.19-.26A1.9,1.9,0,0,1,49,91.87a3.06,3.06,0,0,1,1.07-1.29,7.05,7.05,0,0,1,1.82-.91,18,18,0,0,1,2.06-.6C53.87,89.85,53.78,90.6,53.65,91.33Z"/></svg>